<?xml version='1.0' encoding='utf-8'?>
<mlt LC_NUMERIC="en_US.UTF-8" producer="main_bin" root="C:/Users/23052058/Code/ICTLC/ICT-Python-ML/Week 2" version="7.33.0">
 <profile colorspace="709" description="HD 1080p 25 fps" display_aspect_den="9" display_aspect_num="16" frame_rate_den="1" frame_rate_num="25" height="1080" progressive="1" sample_aspect_den="1" sample_aspect_num="1" width="1920"/>
 <chain id="chain4" out="00:09:55.920">
  <property name="length">14899</property>
  <property name="eof">pause</property>
  <property name="resource">Assets/Videos/raw/Loops_1.mkv</property>
  <property name="mlt_service">avformat-novalidate</property>
  <property name="meta.media.nb_streams">2</property>
  <property name="meta.media.0.stream.type">video</property>
  <property name="meta.media.0.stream.frame_rate">60</property>
  <property name="meta.media.0.stream.sample_aspect_ratio">0</property>
  <property name="meta.media.0.codec.width">1920</property>
  <property name="meta.media.0.codec.height">1080</property>
  <property name="meta.media.0.codec.rotate">0</property>
  <property name="meta.media.0.codec.pix_fmt">yuv420p</property>
  <property name="meta.media.0.codec.sample_aspect_ratio">1</property>
  <property name="meta.media.0.codec.colorspace">709</property>
  <property name="meta.media.0.codec.color_trc">1</property>
  <property name="meta.media.0.codec.name">h264</property>
  <property name="meta.media.0.codec.long_name">H.264 / AVC / MPEG-4 AVC / MPEG-4 part 10</property>
  <property name="meta.media.0.codec.bit_rate">0</property>
  <property name="meta.attr.0.stream.DURATION.markup">00:09:55.950000000</property>
  <property name="meta.media.1.stream.type">audio</property>
  <property name="meta.media.1.codec.sample_fmt">fltp</property>
  <property name="meta.media.1.codec.sample_rate">48000</property>
  <property name="meta.media.1.codec.channels">2</property>
  <property name="meta.media.1.codec.layout">stereo</property>
  <property name="meta.media.1.codec.name">aac</property>
  <property name="meta.media.1.codec.long_name">AAC (Advanced Audio Coding)</property>
  <property name="meta.media.1.codec.bit_rate">0</property>
  <property name="meta.attr.1.stream.title.markup">simple_aac_recording0</property>
  <property name="meta.attr.1.stream.DURATION.markup">00:09:55.904000000</property>
  <property name="meta.attr.ENCODER.markup">Lavf60.16.100</property>
  <property name="seekable">1</property>
  <property name="meta.media.sample_aspect_num">1</property>
  <property name="meta.media.sample_aspect_den">1</property>
  <property name="format">3</property>
  <property name="audio_index">1</property>
  <property name="video_index">0</property>
  <property name="vstream">0</property>
  <property name="meta.media.frame_rate_num">60</property>
  <property name="meta.media.frame_rate_den">1</property>
  <property name="meta.media.colorspace">709</property>
  <property name="meta.media.color_trc">1</property>
  <property name="meta.media.has_b_frames">2</property>
  <property name="meta.media.width">1920</property>
  <property name="meta.media.height">1080</property>
  <property name="meta.media.aspect_ratio">1</property>
  <property name="meta.media.color_range">mpeg</property>
  <property name="astream">0</property>
  <property name="meta.media.top_field_first">0</property>
  <property name="meta.media.progressive">1</property>
  <property name="kdenlive:folderid">-1</property>
  <property name="kdenlive:id">4</property>
  <property name="kdenlive:control_uuid">{ad6f90a7-227c-4e47-9ac4-cfcbb9dca6b7}</property>
  <property name="mute_on_pause">0</property>
  <property name="kdenlive:clip_type">0</property>
  <property name="kdenlive:file_size">25409101</property>
  <property name="kdenlive:file_hash">0733de0895b747414e12665fd9328d92</property>
  <property name="kdenlive:monitorPosition">109</property>
 </chain>
 <chain id="chain5" out="00:10:56.520">
  <property name="length">16414</property>
  <property name="eof">pause</property>
  <property name="resource">Assets/Audio/loops_1.wav</property>
  <property name="mlt_service">avformat</property>
  <property name="meta.media.nb_streams">1</property>
  <property name="meta.media.0.stream.type">audio</property>
  <property name="meta.media.0.codec.sample_fmt">s16</property>
  <property name="meta.media.0.codec.sample_rate">48000</property>
  <property name="meta.media.0.codec.channels">2</property>
  <property name="meta.media.0.codec.layout">stereo</property>
  <property name="meta.media.0.codec.name">pcm_s16le</property>
  <property name="meta.media.0.codec.long_name">PCM signed 16-bit little-endian</property>
  <property name="meta.media.0.codec.bit_rate">1536000</property>
  <property name="seekable">1</property>
  <property name="audio_index">0</property>
  <property name="video_index">-1</property>
  <property name="astream">0</property>
  <property name="kdenlive:folderid">-1</property>
  <property name="kdenlive:id">5</property>
  <property name="kdenlive:control_uuid">{6c979658-0a52-443c-9056-2c1dae0d570a}</property>
  <property name="kdenlive:clip_type">1</property>
  <property name="kdenlive:file_size">126058564</property>
  <property name="kdenlive:file_hash">e8bc88d222dec8f3f9d43c49e570fcaa</property>
 </chain>
 <chain id="chain13" out="00:09:51.480">
  <property name="length">14788</property>
  <property name="eof">pause</property>
  <property name="resource">Assets/Videos/raw/Loops_2.mkv</property>
  <property name="mlt_service">avformat-novalidate</property>
  <property name="meta.media.nb_streams">2</property>
  <property name="meta.media.0.stream.type">video</property>
  <property name="meta.media.0.stream.frame_rate">60</property>
  <property name="meta.media.0.stream.sample_aspect_ratio">0</property>
  <property name="meta.media.0.codec.width">1920</property>
  <property name="meta.media.0.codec.height">1080</property>
  <property name="meta.media.0.codec.rotate">0</property>
  <property name="meta.media.0.codec.pix_fmt">yuv420p</property>
  <property name="meta.media.0.codec.sample_aspect_ratio">1</property>
  <property name="meta.media.0.codec.colorspace">709</property>
  <property name="meta.media.0.codec.color_trc">1</property>
  <property name="meta.media.0.codec.name">h264</property>
  <property name="meta.media.0.codec.long_name">H.264 / AVC / MPEG-4 AVC / MPEG-4 part 10</property>
  <property name="meta.media.0.codec.bit_rate">0</property>
  <property name="meta.attr.0.stream.DURATION.markup">00:09:51.534000000</property>
  <property name="meta.media.1.stream.type">audio</property>
  <property name="meta.media.1.codec.sample_fmt">fltp</property>
  <property name="meta.media.1.codec.sample_rate">48000</property>
  <property name="meta.media.1.codec.channels">2</property>
  <property name="meta.media.1.codec.layout">stereo</property>
  <property name="meta.media.1.codec.name">aac</property>
  <property name="meta.media.1.codec.long_name">AAC (Advanced Audio Coding)</property>
  <property name="meta.media.1.codec.bit_rate">0</property>
  <property name="meta.attr.1.stream.title.markup">simple_aac_recording0</property>
  <property name="meta.attr.1.stream.DURATION.markup">00:09:51.488000000</property>
  <property name="meta.attr.ENCODER.markup">Lavf60.16.100</property>
  <property name="seekable">1</property>
  <property name="meta.media.sample_aspect_num">1</property>
  <property name="meta.media.sample_aspect_den">1</property>
  <property name="audio_index">1</property>
  <property name="video_index">0</property>
  <property name="vstream">0</property>
  <property name="meta.media.frame_rate_num">60</property>
  <property name="meta.media.frame_rate_den">1</property>
  <property name="meta.media.colorspace">709</property>
  <property name="meta.media.color_trc">1</property>
  <property name="meta.media.has_b_frames">2</property>
  <property name="meta.media.width">1920</property>
  <property name="meta.media.height">1080</property>
  <property name="meta.media.aspect_ratio">1</property>
  <property name="meta.media.color_range">mpeg</property>
  <property name="astream">0</property>
  <property name="meta.media.top_field_first">0</property>
  <property name="meta.media.progressive">1</property>
  <property name="kdenlive:folderid">-1</property>
  <property name="kdenlive:id">6</property>
  <property name="kdenlive:control_uuid">{ea91381e-cca3-44c5-af65-b1b9d97fef49}</property>
  <property name="mute_on_pause">0</property>
  <property name="kdenlive:clip_type">0</property>
  <property name="kdenlive:file_size">24131387</property>
  <property name="kdenlive:file_hash">1762fd213f26783cae9ab2cbdc90059c</property>
  <property name="kdenlive:monitorPosition">0</property>
 </chain>
 <chain id="chain14" out="00:18:50.320">
  <property name="length">28259</property>
  <property name="eof">pause</property>
  <property name="resource">Assets/Videos/raw/Loops_3.mkv</property>
  <property name="mlt_service">avformat-novalidate</property>
  <property name="meta.media.nb_streams">2</property>
  <property name="meta.media.0.stream.type">video</property>
  <property name="meta.media.0.stream.frame_rate">60</property>
  <property name="meta.media.0.stream.sample_aspect_ratio">0</property>
  <property name="meta.media.0.codec.width">1920</property>
  <property name="meta.media.0.codec.height">1080</property>
  <property name="meta.media.0.codec.rotate">0</property>
  <property name="meta.media.0.codec.pix_fmt">yuv420p</property>
  <property name="meta.media.0.codec.sample_aspect_ratio">1</property>
  <property name="meta.media.0.codec.colorspace">709</property>
  <property name="meta.media.0.codec.color_trc">1</property>
  <property name="meta.media.0.codec.name">h264</property>
  <property name="meta.media.0.codec.long_name">H.264 / AVC / MPEG-4 AVC / MPEG-4 part 10</property>
  <property name="meta.media.0.codec.bit_rate">0</property>
  <property name="meta.attr.0.stream.DURATION.markup">00:18:50.350000000</property>
  <property name="meta.media.1.stream.type">audio</property>
  <property name="meta.media.1.codec.sample_fmt">fltp</property>
  <property name="meta.media.1.codec.sample_rate">48000</property>
  <property name="meta.media.1.codec.channels">2</property>
  <property name="meta.media.1.codec.layout">stereo</property>
  <property name="meta.media.1.codec.name">aac</property>
  <property name="meta.media.1.codec.long_name">AAC (Advanced Audio Coding)</property>
  <property name="meta.media.1.codec.bit_rate">0</property>
  <property name="meta.attr.1.stream.title.markup">simple_aac_recording0</property>
  <property name="meta.attr.1.stream.DURATION.markup">00:18:50.304000000</property>
  <property name="meta.attr.ENCODER.markup">Lavf60.16.100</property>
  <property name="seekable">1</property>
  <property name="meta.media.sample_aspect_num">1</property>
  <property name="meta.media.sample_aspect_den">1</property>
  <property name="audio_index">1</property>
  <property name="video_index">0</property>
  <property name="vstream">0</property>
  <property name="meta.media.frame_rate_num">60</property>
  <property name="meta.media.frame_rate_den">1</property>
  <property name="meta.media.colorspace">709</property>
  <property name="meta.media.color_trc">1</property>
  <property name="meta.media.has_b_frames">2</property>
  <property name="meta.media.width">1920</property>
  <property name="meta.media.height">1080</property>
  <property name="meta.media.aspect_ratio">1</property>
  <property name="meta.media.color_range">mpeg</property>
  <property name="astream">0</property>
  <property name="meta.media.top_field_first">0</property>
  <property name="meta.media.progressive">1</property>
  <property name="kdenlive:folderid">-1</property>
  <property name="kdenlive:id">7</property>
  <property name="kdenlive:control_uuid">{3e3872f1-f41d-45ea-ab9d-9c80c7d969a6}</property>
  <property name="mute_on_pause">0</property>
  <property name="kdenlive:clip_type">0</property>
  <property name="kdenlive:file_size">48962920</property>
  <property name="kdenlive:file_hash">321d95344d6eea00f0d46aa16140f6a2</property>
  <property name="kdenlive:monitorPosition">0</property>
 </chain>
 <chain id="chain15" out="00:11:47.520">
  <property name="length">17689</property>
  <property name="eof">pause</property>
  <property name="resource">Assets/Audio/loops_2.wav</property>
  <property name="mlt_service">avformat</property>
  <property name="meta.media.nb_streams">1</property>
  <property name="meta.media.0.stream.type">audio</property>
  <property name="meta.media.0.codec.sample_fmt">s16</property>
  <property name="meta.media.0.codec.sample_rate">48000</property>
  <property name="meta.media.0.codec.channels">2</property>
  <property name="meta.media.0.codec.layout">stereo</property>
  <property name="meta.media.0.codec.name">pcm_s16le</property>
  <property name="meta.media.0.codec.long_name">PCM signed 16-bit little-endian</property>
  <property name="meta.media.0.codec.bit_rate">1536000</property>
  <property name="seekable">1</property>
  <property name="audio_index">0</property>
  <property name="video_index">-1</property>
  <property name="astream">0</property>
  <property name="kdenlive:folderid">-1</property>
  <property name="kdenlive:id">8</property>
  <property name="kdenlive:control_uuid">{d04f1a9f-8fb0-46fe-8608-1888d4766988}</property>
  <property name="kdenlive:clip_type">1</property>
  <property name="kdenlive:file_size">135848004</property>
  <property name="kdenlive:file_hash">7b398f72806cb2eb4a03b9966d7791be</property>
  <property name="kdenlive:monitorPosition">0</property>
 </chain>
 <chain id="chain16" out="00:19:10.880">
  <property name="length">28773</property>
  <property name="eof">pause</property>
  <property name="resource">Assets/Audio/loops_3.wav</property>
  <property name="mlt_service">avformat</property>
  <property name="meta.media.nb_streams">1</property>
  <property name="meta.media.0.stream.type">audio</property>
  <property name="meta.media.0.codec.sample_fmt">s16</property>
  <property name="meta.media.0.codec.sample_rate">48000</property>
  <property name="meta.media.0.codec.channels">2</property>
  <property name="meta.media.0.codec.layout">stereo</property>
  <property name="meta.media.0.codec.name">pcm_s16le</property>
  <property name="meta.media.0.codec.long_name">PCM signed 16-bit little-endian</property>
  <property name="meta.media.0.codec.bit_rate">1536000</property>
  <property name="seekable">1</property>
  <property name="audio_index">0</property>
  <property name="video_index">-1</property>
  <property name="astream">0</property>
  <property name="kdenlive:folderid">-1</property>
  <property name="kdenlive:id">9</property>
  <property name="kdenlive:control_uuid">{969284ce-85be-4cbd-bc9d-553ac42bc015}</property>
  <property name="kdenlive:clip_type">1</property>
  <property name="kdenlive:file_size">220979268</property>
  <property name="kdenlive:file_hash">2b429aa7cc9b887e929a78e2525e9f49</property>
 </chain>
 <producer id="producer0" in="00:00:00.000" out="00:31:45.760">
  <property name="length">2147483647</property>
  <property name="eof">continue</property>
  <property name="resource">black</property>
  <property name="aspect_ratio">1</property>
  <property name="mlt_service">color</property>
  <property name="kdenlive:playlistid">black_track</property>
  <property name="mlt_image_format">rgba</property>
  <property name="set.test_audio">0</property>
 </producer>
 <chain id="chain0" out="00:10:56.520">
  <property name="length">16414</property>
  <property name="eof">pause</property>
  <property name="resource">Assets/Audio/loops_1.wav</property>
  <property name="mlt_service">avformat-novalidate</property>
  <property name="seekable">1</property>
  <property name="audio_index">0</property>
  <property name="video_index">-1</property>
  <property name="astream">0</property>
  <property name="kdenlive:folderid">-1</property>
  <property name="kdenlive:id">5</property>
  <property name="kdenlive:control_uuid">{6c979658-0a52-443c-9056-2c1dae0d570a}</property>
  <property name="kdenlive:clip_type">1</property>
  <property name="kdenlive:file_size">126058564</property>
  <property name="kdenlive:file_hash">e8bc88d222dec8f3f9d43c49e570fcaa</property>
  <property name="meta.media.nb_streams">1</property>
  <property name="meta.media.0.stream.type">audio</property>
  <property name="meta.media.0.codec.sample_fmt">s16</property>
  <property name="meta.media.0.codec.sample_rate">48000</property>
  <property name="meta.media.0.codec.channels">2</property>
  <property name="meta.media.0.codec.layout">stereo</property>
  <property name="meta.media.0.codec.name">pcm_s16le</property>
  <property name="meta.media.0.codec.long_name">PCM signed 16-bit little-endian</property>
  <property name="meta.media.0.codec.bit_rate">1536000</property>
  <property name="xml">was here</property>
  <property name="mute_on_pause">0</property>
  <property name="set.test_audio">0</property>
  <property name="set.test_image">1</property>
 </chain>
 <chain id="chain1" out="00:10:56.520">
  <property name="length">16414</property>
  <property name="eof">pause</property>
  <property name="resource">Assets/Audio/loops_1.wav</property>
  <property name="mlt_service">avformat-novalidate</property>
  <property name="seekable">1</property>
  <property name="audio_index">0</property>
  <property name="video_index">-1</property>
  <property name="astream">0</property>
  <property name="kdenlive:folderid">-1</property>
  <property name="kdenlive:id">5</property>
  <property name="kdenlive:control_uuid">{6c979658-0a52-443c-9056-2c1dae0d570a}</property>
  <property name="kdenlive:clip_type">1</property>
  <property name="kdenlive:file_size">126058564</property>
  <property name="kdenlive:file_hash">e8bc88d222dec8f3f9d43c49e570fcaa</property>
  <property name="meta.media.nb_streams">1</property>
  <property name="meta.media.0.stream.type">audio</property>
  <property name="meta.media.0.codec.sample_fmt">s16</property>
  <property name="meta.media.0.codec.sample_rate">48000</property>
  <property name="meta.media.0.codec.channels">2</property>
  <property name="meta.media.0.codec.layout">stereo</property>
  <property name="meta.media.0.codec.name">pcm_s16le</property>
  <property name="meta.media.0.codec.long_name">PCM signed 16-bit little-endian</property>
  <property name="meta.media.0.codec.bit_rate">1536000</property>
  <property name="xml">was here</property>
  <property name="mute_on_pause">0</property>
  <property name="set.test_audio">1</property>
  <property name="set.test_image">1</property>
 </chain>
 <chain id="chain2" out="00:11:47.520">
  <property name="length">17689</property>
  <property name="eof">pause</property>
  <property name="resource">Assets/Audio/loops_2.wav</property>
  <property name="mlt_service">avformat-novalidate</property>
  <property name="seekable">1</property>
  <property name="audio_index">0</property>
  <property name="video_index">-1</property>
  <property name="astream">0</property>
  <property name="kdenlive:folderid">-1</property>
  <property name="kdenlive:id">8</property>
  <property name="kdenlive:control_uuid">{d04f1a9f-8fb0-46fe-8608-1888d4766988}</property>
  <property name="kdenlive:clip_type">1</property>
  <property name="kdenlive:file_size">135848004</property>
  <property name="kdenlive:file_hash">7b398f72806cb2eb4a03b9966d7791be</property>
  <property name="kdenlive:monitorPosition">0</property>
  <property name="meta.media.nb_streams">1</property>
  <property name="meta.media.0.stream.type">audio</property>
  <property name="meta.media.0.codec.sample_fmt">s16</property>
  <property name="meta.media.0.codec.sample_rate">48000</property>
  <property name="meta.media.0.codec.channels">2</property>
  <property name="meta.media.0.codec.layout">stereo</property>
  <property name="meta.media.0.codec.name">pcm_s16le</property>
  <property name="meta.media.0.codec.long_name">PCM signed 16-bit little-endian</property>
  <property name="meta.media.0.codec.bit_rate">1536000</property>
  <property name="xml">was here</property>
  <property name="mute_on_pause">0</property>
  <property name="set.test_audio">0</property>
  <property name="set.test_image">1</property>
 </chain>
 <chain id="chain3" out="00:19:10.880">
  <property name="length">28773</property>
  <property name="eof">pause</property>
  <property name="resource">Assets/Audio/loops_3.wav</property>
  <property name="mlt_service">avformat-novalidate</property>
  <property name="seekable">1</property>
  <property name="audio_index">0</property>
  <property name="video_index">-1</property>
  <property name="astream">0</property>
  <property name="kdenlive:folderid">-1</property>
  <property name="kdenlive:id">9</property>
  <property name="kdenlive:control_uuid">{969284ce-85be-4cbd-bc9d-553ac42bc015}</property>
  <property name="kdenlive:clip_type">1</property>
  <property name="kdenlive:file_size">220979268</property>
  <property name="kdenlive:file_hash">2b429aa7cc9b887e929a78e2525e9f49</property>
  <property name="meta.media.nb_streams">1</property>
  <property name="meta.media.0.stream.type">audio</property>
  <property name="meta.media.0.codec.sample_fmt">s16</property>
  <property name="meta.media.0.codec.sample_rate">48000</property>
  <property name="meta.media.0.codec.channels">2</property>
  <property name="meta.media.0.codec.layout">stereo</property>
  <property name="meta.media.0.codec.name">pcm_s16le</property>
  <property name="meta.media.0.codec.long_name">PCM signed 16-bit little-endian</property>
  <property name="meta.media.0.codec.bit_rate">1536000</property>
  <property name="xml">was here</property>
  <property name="mute_on_pause">0</property>
  <property name="set.test_audio">0</property>
  <property name="set.test_image">1</property>
 </chain>
 <playlist id="playlist0">
  <property name="kdenlive:audio_track">1</property>
  <entry in="00:00:00.000" out="00:00:16.480" producer="chain0">
   <property name="kdenlive:id">5</property>
   <filter id="filter0">
    <property name="mlt_service">ladspa.9354877</property>
    <property name="kdenlive_id">ladspa.9354877</property>
    <property name="2">49</property>
    <property name="3">500</property>
    <property name="4">0</property>
    <property name="instances">2</property>
   </filter>
  </entry>
  <entry in="00:00:19.560" out="00:00:28.000" producer="chain0">
   <property name="kdenlive:id">5</property>
   <filter id="filter1">
    <property name="mlt_service">ladspa.9354877</property>
    <property name="kdenlive_id">ladspa.9354877</property>
    <property name="2">49</property>
    <property name="3">500</property>
    <property name="4">0</property>
    <property name="instances">2</property>
   </filter>
  </entry>
  <entry in="00:00:28.400" out="00:00:55.640" producer="chain0">
   <property name="kdenlive:id">5</property>
   <filter id="filter2">
    <property name="mlt_service">ladspa.9354877</property>
    <property name="kdenlive_id">ladspa.9354877</property>
    <property name="2">49</property>
    <property name="3">500</property>
    <property name="4">0</property>
    <property name="instances">2</property>
   </filter>
  </entry>
  <entry in="00:01:05.240" out="00:01:57.160" producer="chain0">
   <property name="kdenlive:id">5</property>
   <filter id="filter3">
    <property name="mlt_service">ladspa.9354877</property>
    <property name="kdenlive_id">ladspa.9354877</property>
    <property name="2">49</property>
    <property name="3">500</property>
    <property name="4">0</property>
    <property name="instances">2</property>
   </filter>
  </entry>
  <entry in="00:02:05.800" out="00:02:16.240" producer="chain0">
   <property name="kdenlive:id">5</property>
   <filter id="filter4">
    <property name="mlt_service">ladspa.9354877</property>
    <property name="kdenlive_id">ladspa.9354877</property>
    <property name="2">49</property>
    <property name="3">500</property>
    <property name="4">0</property>
    <property name="instances">2</property>
   </filter>
  </entry>
  <entry in="00:02:52.680" out="00:02:58.800" producer="chain0">
   <property name="kdenlive:id">5</property>
   <filter id="filter5">
    <property name="mlt_service">ladspa.9354877</property>
    <property name="kdenlive_id">ladspa.9354877</property>
    <property name="2">49</property>
    <property name="3">500</property>
    <property name="4">0</property>
    <property name="instances">2</property>
    <property name="kdenlive:collapsed">0</property>
   </filter>
  </entry>
  <entry in="00:02:59.760" out="00:03:07.200" producer="chain0">
   <property name="kdenlive:id">5</property>
   <filter id="filter6">
    <property name="mlt_service">ladspa.9354877</property>
    <property name="kdenlive_id">ladspa.9354877</property>
    <property name="2">49</property>
    <property name="3">500</property>
    <property name="4">0</property>
    <property name="kdenlive:collapsed">0</property>
    <property name="instances">2</property>
   </filter>
  </entry>
  <entry in="00:03:08.360" out="00:03:09.320" producer="chain0">
   <property name="kdenlive:id">5</property>
   <filter id="filter7">
    <property name="mlt_service">ladspa.9354877</property>
    <property name="kdenlive_id">ladspa.9354877</property>
    <property name="2">49</property>
    <property name="3">500</property>
    <property name="4">0</property>
    <property name="instances">2</property>
   </filter>
  </entry>
  <entry in="00:03:09.960" out="00:03:10.760" producer="chain0">
   <property name="kdenlive:id">5</property>
   <filter id="filter8">
    <property name="mlt_service">ladspa.9354877</property>
    <property name="kdenlive_id">ladspa.9354877</property>
    <property name="2">49</property>
    <property name="3">500</property>
    <property name="4">0</property>
    <property name="instances">2</property>
   </filter>
  </entry>
  <entry in="00:03:11.640" out="00:03:17.240" producer="chain0">
   <property name="kdenlive:id">5</property>
   <filter id="filter9">
    <property name="mlt_service">ladspa.9354877</property>
    <property name="kdenlive_id">ladspa.9354877</property>
    <property name="2">49</property>
    <property name="3">500</property>
    <property name="4">0</property>
    <property name="instances">2</property>
   </filter>
  </entry>
  <entry in="00:03:36.000" out="00:03:42.240" producer="chain0">
   <property name="kdenlive:id">5</property>
   <filter id="filter10">
    <property name="mlt_service">ladspa.9354877</property>
    <property name="kdenlive_id">ladspa.9354877</property>
    <property name="2">49</property>
    <property name="3">500</property>
    <property name="4">0</property>
    <property name="instances">2</property>
   </filter>
  </entry>
  <entry in="00:03:45.160" out="00:03:45.480" producer="chain1">
   <property name="kdenlive:id">5</property>
   <filter id="filter11">
    <property name="mlt_service">ladspa.9354877</property>
    <property name="kdenlive_id">ladspa.9354877</property>
    <property name="2">49</property>
    <property name="3">500</property>
    <property name="4">0</property>
   </filter>
  </entry>
  <entry in="00:04:00.400" out="00:04:16.480" producer="chain0">
   <property name="kdenlive:id">5</property>
   <filter id="filter12">
    <property name="mlt_service">ladspa.9354877</property>
    <property name="kdenlive_id">ladspa.9354877</property>
    <property name="2">49</property>
    <property name="3">500</property>
    <property name="4">0</property>
    <property name="instances">2</property>
   </filter>
  </entry>
  <entry in="00:04:18.680" out="00:04:26.720" producer="chain0">
   <property name="kdenlive:id">5</property>
   <filter id="filter13">
    <property name="mlt_service">ladspa.9354877</property>
    <property name="kdenlive_id">ladspa.9354877</property>
    <property name="2">49</property>
    <property name="3">500</property>
    <property name="4">0</property>
    <property name="instances">2</property>
   </filter>
  </entry>
  <entry in="00:04:35.280" out="00:04:50.040" producer="chain0">
   <property name="kdenlive:id">5</property>
   <filter id="filter14">
    <property name="mlt_service">ladspa.9354877</property>
    <property name="kdenlive_id">ladspa.9354877</property>
    <property name="2">49</property>
    <property name="3">500</property>
    <property name="4">0</property>
    <property name="instances">2</property>
   </filter>
  </entry>
  <entry in="00:04:52.120" out="00:04:55.560" producer="chain0">
   <property name="kdenlive:id">5</property>
   <filter id="filter15">
    <property name="mlt_service">ladspa.9354877</property>
    <property name="kdenlive_id">ladspa.9354877</property>
    <property name="2">49</property>
    <property name="3">500</property>
    <property name="4">0</property>
    <property name="instances">2</property>
   </filter>
  </entry>
  <entry in="00:04:55.840" out="00:05:08.280" producer="chain0">
   <property name="kdenlive:id">5</property>
   <filter id="filter16">
    <property name="mlt_service">ladspa.9354877</property>
    <property name="kdenlive_id">ladspa.9354877</property>
    <property name="2">49</property>
    <property name="3">500</property>
    <property name="4">0</property>
    <property name="instances">2</property>
   </filter>
  </entry>
  <entry in="00:05:08.680" out="00:05:10.360" producer="chain0">
   <property name="kdenlive:id">5</property>
   <filter id="filter17">
    <property name="mlt_service">ladspa.9354877</property>
    <property name="kdenlive_id">ladspa.9354877</property>
    <property name="2">49</property>
    <property name="3">500</property>
    <property name="4">0</property>
    <property name="instances">2</property>
   </filter>
  </entry>
  <entry in="00:05:10.320" out="00:05:11.040" producer="chain0">
   <property name="kdenlive:id">5</property>
   <filter id="filter18">
    <property name="mlt_service">ladspa.9354877</property>
    <property name="kdenlive_id">ladspa.9354877</property>
    <property name="2">49</property>
    <property name="3">500</property>
    <property name="4">0</property>
    <property name="instances">2</property>
   </filter>
  </entry>
  <entry in="00:05:13.000" out="00:05:14.960" producer="chain0">
   <property name="kdenlive:id">5</property>
   <filter id="filter19">
    <property name="mlt_service">ladspa.9354877</property>
    <property name="kdenlive_id">ladspa.9354877</property>
    <property name="2">49</property>
    <property name="3">500</property>
    <property name="4">0</property>
    <property name="instances">2</property>
   </filter>
  </entry>
  <entry in="00:05:17.280" out="00:05:18.000" producer="chain0">
   <property name="kdenlive:id">5</property>
   <filter id="filter20">
    <property name="mlt_service">ladspa.9354877</property>
    <property name="kdenlive_id">ladspa.9354877</property>
    <property name="2">49</property>
    <property name="3">500</property>
    <property name="4">0</property>
    <property name="instances">2</property>
   </filter>
  </entry>
  <entry in="00:05:18.960" out="00:05:24.480" producer="chain0">
   <property name="kdenlive:id">5</property>
   <filter id="filter21">
    <property name="mlt_service">ladspa.9354877</property>
    <property name="kdenlive_id">ladspa.9354877</property>
    <property name="2">49</property>
    <property name="3">500</property>
    <property name="4">0</property>
    <property name="instances">2</property>
   </filter>
  </entry>
  <entry in="00:05:24.480" out="00:05:27.040" producer="chain0">
   <property name="kdenlive:id">5</property>
   <filter id="filter22">
    <property name="mlt_service">ladspa.9354877</property>
    <property name="kdenlive_id">ladspa.9354877</property>
    <property name="2">49</property>
    <property name="3">500</property>
    <property name="4">0</property>
    <property name="instances">2</property>
    <property name="kdenlive:collapsed">0</property>
   </filter>
  </entry>
  <entry in="00:05:27.640" out="00:05:31.360" producer="chain0">
   <property name="kdenlive:id">5</property>
   <filter id="filter23">
    <property name="mlt_service">ladspa.9354877</property>
    <property name="kdenlive_id">ladspa.9354877</property>
    <property name="2">49</property>
    <property name="3">500</property>
    <property name="4">0</property>
    <property name="instances">2</property>
   </filter>
  </entry>
  <entry in="00:05:32.240" out="00:05:46.400" producer="chain0">
   <property name="kdenlive:id">5</property>
   <filter id="filter24">
    <property name="mlt_service">ladspa.9354877</property>
    <property name="kdenlive_id">ladspa.9354877</property>
    <property name="2">49</property>
    <property name="3">500</property>
    <property name="4">0</property>
    <property name="instances">2</property>
   </filter>
  </entry>
  <entry in="00:05:59.200" out="00:05:59.760" producer="chain0">
   <property name="kdenlive:id">5</property>
   <filter id="filter25">
    <property name="mlt_service">ladspa.9354877</property>
    <property name="kdenlive_id">ladspa.9354877</property>
    <property name="2">49</property>
    <property name="3">500</property>
    <property name="4">0</property>
    <property name="instances">2</property>
   </filter>
  </entry>
  <entry in="00:06:45.760" out="00:06:57.720" producer="chain0">
   <property name="kdenlive:id">5</property>
   <filter id="filter26">
    <property name="mlt_service">ladspa.9354877</property>
    <property name="kdenlive_id">ladspa.9354877</property>
    <property name="2">49</property>
    <property name="3">500</property>
    <property name="4">0</property>
    <property name="instances">2</property>
   </filter>
  </entry>
  <entry in="00:07:22.440" out="00:07:32.560" producer="chain0">
   <property name="kdenlive:id">5</property>
   <filter id="filter27">
    <property name="mlt_service">ladspa.9354877</property>
    <property name="kdenlive_id">ladspa.9354877</property>
    <property name="2">49</property>
    <property name="3">500</property>
    <property name="4">0</property>
    <property name="instances">2</property>
   </filter>
  </entry>
  <entry in="00:08:00.560" out="00:08:28.240" producer="chain0">
   <property name="kdenlive:id">5</property>
   <filter id="filter28">
    <property name="mlt_service">ladspa.9354877</property>
    <property name="kdenlive_id">ladspa.9354877</property>
    <property name="2">49</property>
    <property name="3">500</property>
    <property name="4">0</property>
    <property name="instances">2</property>
   </filter>
  </entry>
  <entry in="00:09:11.040" out="00:09:26.280" producer="chain0">
   <property name="kdenlive:id">5</property>
   <filter id="filter29">
    <property name="mlt_service">ladspa.9354877</property>
    <property name="kdenlive_id">ladspa.9354877</property>
    <property name="2">49</property>
    <property name="3">500</property>
    <property name="4">0</property>
    <property name="instances">2</property>
   </filter>
  </entry>
  <entry in="00:00:02.120" out="00:00:13.120" producer="chain2">
   <property name="kdenlive:id">8</property>
   <filter id="filter30">
    <property name="mlt_service">ladspa.9354877</property>
    <property name="kdenlive_id">ladspa.9354877</property>
    <property name="2">49</property>
    <property name="3">500</property>
    <property name="4">0</property>
    <property name="instances">2</property>
   </filter>
  </entry>
  <entry in="00:00:23.200" out="00:00:28.160" producer="chain2">
   <property name="kdenlive:id">8</property>
   <filter id="filter31">
    <property name="mlt_service">ladspa.9354877</property>
    <property name="kdenlive_id">ladspa.9354877</property>
    <property name="2">49</property>
    <property name="3">500</property>
    <property name="4">0</property>
    <property name="instances">2</property>
   </filter>
  </entry>
  <entry in="00:00:41.960" out="00:00:51.800" producer="chain2">
   <property name="kdenlive:id">8</property>
   <filter id="filter32">
    <property name="mlt_service">ladspa.9354877</property>
    <property name="kdenlive_id">ladspa.9354877</property>
    <property name="2">49</property>
    <property name="3">500</property>
    <property name="4">0</property>
    <property name="instances">2</property>
   </filter>
  </entry>
  <entry in="00:00:52.400" out="00:00:54.480" producer="chain2">
   <property name="kdenlive:id">8</property>
   <filter id="filter33">
    <property name="mlt_service">ladspa.9354877</property>
    <property name="kdenlive_id">ladspa.9354877</property>
    <property name="2">49</property>
    <property name="3">500</property>
    <property name="4">0</property>
    <property name="instances">2</property>
   </filter>
  </entry>
  <entry in="00:00:55.120" out="00:00:57.040" producer="chain2">
   <property name="kdenlive:id">8</property>
   <filter id="filter34">
    <property name="mlt_service">ladspa.9354877</property>
    <property name="kdenlive_id">ladspa.9354877</property>
    <property name="2">49</property>
    <property name="3">500</property>
    <property name="4">0</property>
    <property name="instances">2</property>
   </filter>
  </entry>
  <entry in="00:00:57.640" out="00:01:01.600" producer="chain2">
   <property name="kdenlive:id">8</property>
   <filter id="filter35">
    <property name="mlt_service">ladspa.9354877</property>
    <property name="kdenlive_id">ladspa.9354877</property>
    <property name="2">49</property>
    <property name="3">500</property>
    <property name="4">0</property>
    <property name="instances">2</property>
    <property name="kdenlive:collapsed">0</property>
    <property name="kdenlive:kfrhidden">0</property>
   </filter>
  </entry>
  <entry in="00:01:01.800" out="00:01:04.520" producer="chain2">
   <property name="kdenlive:id">8</property>
   <filter id="filter36">
    <property name="mlt_service">ladspa.9354877</property>
    <property name="kdenlive_id">ladspa.9354877</property>
    <property name="2">49</property>
    <property name="3">500</property>
    <property name="4">0</property>
    <property name="kdenlive:kfrhidden">0</property>
    <property name="kdenlive:collapsed">0</property>
    <property name="instances">2</property>
   </filter>
  </entry>
  <entry in="00:01:05.320" out="00:01:05.840" producer="chain2">
   <property name="kdenlive:id">8</property>
   <filter id="filter37">
    <property name="mlt_service">ladspa.9354877</property>
    <property name="kdenlive_id">ladspa.9354877</property>
    <property name="2">49</property>
    <property name="3">500</property>
    <property name="4">0</property>
    <property name="kdenlive:kfrhidden">0</property>
    <property name="kdenlive:collapsed">0</property>
    <property name="instances">2</property>
   </filter>
  </entry>
  <entry in="00:01:06.040" out="00:01:10.400" producer="chain2">
   <property name="kdenlive:id">8</property>
   <filter id="filter38">
    <property name="mlt_service">ladspa.9354877</property>
    <property name="kdenlive_id">ladspa.9354877</property>
    <property name="2">49</property>
    <property name="3">500</property>
    <property name="4">0</property>
    <property name="kdenlive:kfrhidden">0</property>
    <property name="kdenlive:collapsed">0</property>
    <property name="instances">2</property>
   </filter>
  </entry>
  <entry in="00:01:12.240" out="00:01:14.720" producer="chain2">
   <property name="kdenlive:id">8</property>
   <filter id="filter39">
    <property name="mlt_service">ladspa.9354877</property>
    <property name="kdenlive_id">ladspa.9354877</property>
    <property name="2">49</property>
    <property name="3">500</property>
    <property name="4">0</property>
    <property name="kdenlive:kfrhidden">0</property>
    <property name="kdenlive:collapsed">0</property>
    <property name="instances">2</property>
   </filter>
  </entry>
  <entry in="00:01:15.200" out="00:01:17.160" producer="chain2">
   <property name="kdenlive:id">8</property>
   <filter id="filter40">
    <property name="mlt_service">ladspa.9354877</property>
    <property name="kdenlive_id">ladspa.9354877</property>
    <property name="2">49</property>
    <property name="3">500</property>
    <property name="4">0</property>
    <property name="kdenlive:kfrhidden">0</property>
    <property name="kdenlive:collapsed">0</property>
    <property name="instances">2</property>
   </filter>
  </entry>
  <entry in="00:01:17.200" out="00:01:17.280" producer="chain2">
   <property name="kdenlive:id">8</property>
   <filter id="filter41">
    <property name="mlt_service">ladspa.9354877</property>
    <property name="kdenlive_id">ladspa.9354877</property>
    <property name="2">49</property>
    <property name="3">500</property>
    <property name="4">0</property>
    <property name="kdenlive:kfrhidden">0</property>
    <property name="kdenlive:collapsed">0</property>
    <property name="instances">2</property>
   </filter>
  </entry>
  <entry in="00:01:17.200" out="00:01:17.280" producer="chain2">
   <property name="kdenlive:id">8</property>
   <filter id="filter42">
    <property name="mlt_service">ladspa.9354877</property>
    <property name="kdenlive_id">ladspa.9354877</property>
    <property name="2">49</property>
    <property name="3">500</property>
    <property name="4">0</property>
    <property name="instances">2</property>
   </filter>
  </entry>
  <entry in="00:01:26.440" out="00:01:32.680" producer="chain2">
   <property name="kdenlive:id">8</property>
   <filter id="filter43">
    <property name="mlt_service">ladspa.9354877</property>
    <property name="kdenlive_id">ladspa.9354877</property>
    <property name="2">49</property>
    <property name="3">500</property>
    <property name="4">0</property>
    <property name="kdenlive:kfrhidden">0</property>
    <property name="kdenlive:collapsed">0</property>
    <property name="instances">2</property>
   </filter>
  </entry>
  <entry in="00:01:41.160" out="00:01:43.360" producer="chain2">
   <property name="kdenlive:id">8</property>
   <filter id="filter44">
    <property name="mlt_service">ladspa.9354877</property>
    <property name="kdenlive_id">ladspa.9354877</property>
    <property name="2">49</property>
    <property name="3">500</property>
    <property name="4">0</property>
    <property name="kdenlive:kfrhidden">0</property>
    <property name="kdenlive:collapsed">0</property>
    <property name="instances">2</property>
   </filter>
  </entry>
  <blank length="00:00:00.040"/>
  <entry in="00:01:43.800" out="00:01:46.120" producer="chain2">
   <property name="kdenlive:id">8</property>
   <filter id="filter45">
    <property name="mlt_service">ladspa.9354877</property>
    <property name="kdenlive_id">ladspa.9354877</property>
    <property name="2">49</property>
    <property name="3">500</property>
    <property name="4">0</property>
    <property name="kdenlive:kfrhidden">0</property>
    <property name="kdenlive:collapsed">0</property>
    <property name="instances">2</property>
   </filter>
  </entry>
  <entry in="00:01:46.520" out="00:01:47.640" producer="chain2">
   <property name="kdenlive:id">8</property>
   <filter id="filter46">
    <property name="mlt_service">ladspa.9354877</property>
    <property name="kdenlive_id">ladspa.9354877</property>
    <property name="2">49</property>
    <property name="3">500</property>
    <property name="4">0</property>
    <property name="kdenlive:kfrhidden">0</property>
    <property name="kdenlive:collapsed">0</property>
    <property name="instances">2</property>
   </filter>
  </entry>
  <entry in="00:01:50.800" out="00:01:51.440" producer="chain2">
   <property name="kdenlive:id">8</property>
   <filter id="filter47">
    <property name="mlt_service">ladspa.9354877</property>
    <property name="kdenlive_id">ladspa.9354877</property>
    <property name="2">49</property>
    <property name="3">500</property>
    <property name="4">0</property>
    <property name="kdenlive:kfrhidden">0</property>
    <property name="kdenlive:collapsed">0</property>
    <property name="instances">2</property>
   </filter>
  </entry>
  <entry in="00:01:54.120" out="00:02:12.640" producer="chain2">
   <property name="kdenlive:id">8</property>
   <filter id="filter48">
    <property name="mlt_service">ladspa.9354877</property>
    <property name="kdenlive_id">ladspa.9354877</property>
    <property name="2">49</property>
    <property name="3">500</property>
    <property name="4">0</property>
    <property name="kdenlive:kfrhidden">0</property>
    <property name="kdenlive:collapsed">0</property>
    <property name="instances">2</property>
   </filter>
  </entry>
  <entry in="00:02:29.760" out="00:02:33.160" producer="chain2">
   <property name="kdenlive:id">8</property>
   <filter id="filter49">
    <property name="mlt_service">ladspa.9354877</property>
    <property name="kdenlive_id">ladspa.9354877</property>
    <property name="2">49</property>
    <property name="3">500</property>
    <property name="4">0</property>
    <property name="kdenlive:kfrhidden">0</property>
    <property name="kdenlive:collapsed">0</property>
    <property name="instances">2</property>
   </filter>
  </entry>
  <entry in="00:02:33.600" out="00:02:35.560" producer="chain2">
   <property name="kdenlive:id">8</property>
   <filter id="filter50">
    <property name="mlt_service">ladspa.9354877</property>
    <property name="kdenlive_id">ladspa.9354877</property>
    <property name="2">49</property>
    <property name="3">500</property>
    <property name="4">0</property>
    <property name="kdenlive:kfrhidden">0</property>
    <property name="kdenlive:collapsed">0</property>
    <property name="instances">2</property>
   </filter>
  </entry>
  <entry in="00:02:36.400" out="00:02:37.040" producer="chain2">
   <property name="kdenlive:id">8</property>
   <filter id="filter51">
    <property name="mlt_service">ladspa.9354877</property>
    <property name="kdenlive_id">ladspa.9354877</property>
    <property name="2">49</property>
    <property name="3">500</property>
    <property name="4">0</property>
    <property name="kdenlive:kfrhidden">0</property>
    <property name="kdenlive:collapsed">0</property>
    <property name="instances">2</property>
   </filter>
  </entry>
  <entry in="00:02:38.560" out="00:02:43.320" producer="chain2">
   <property name="kdenlive:id">8</property>
   <filter id="filter52">
    <property name="mlt_service">ladspa.9354877</property>
    <property name="kdenlive_id">ladspa.9354877</property>
    <property name="2">49</property>
    <property name="3">500</property>
    <property name="4">0</property>
    <property name="kdenlive:kfrhidden">0</property>
    <property name="kdenlive:collapsed">0</property>
    <property name="instances">2</property>
   </filter>
  </entry>
  <entry in="00:02:45.520" out="00:02:47.560" producer="chain2">
   <property name="kdenlive:id">8</property>
   <filter id="filter53">
    <property name="mlt_service">ladspa.9354877</property>
    <property name="kdenlive_id">ladspa.9354877</property>
    <property name="2">49</property>
    <property name="3">500</property>
    <property name="4">0</property>
    <property name="kdenlive:kfrhidden">0</property>
    <property name="kdenlive:collapsed">0</property>
    <property name="instances">2</property>
   </filter>
  </entry>
  <entry in="00:02:47.600" out="00:02:53.240" producer="chain2">
   <property name="kdenlive:id">8</property>
   <filter id="filter54">
    <property name="mlt_service">ladspa.9354877</property>
    <property name="kdenlive_id">ladspa.9354877</property>
    <property name="2">49</property>
    <property name="3">500</property>
    <property name="4">0</property>
    <property name="kdenlive:kfrhidden">0</property>
    <property name="kdenlive:collapsed">0</property>
    <property name="instances">2</property>
   </filter>
  </entry>
  <entry in="00:03:24.000" out="00:03:25.680" producer="chain2">
   <property name="kdenlive:id">8</property>
   <filter id="filter55">
    <property name="mlt_service">ladspa.9354877</property>
    <property name="kdenlive_id">ladspa.9354877</property>
    <property name="2">49</property>
    <property name="3">500</property>
    <property name="4">0</property>
    <property name="kdenlive:kfrhidden">0</property>
    <property name="kdenlive:collapsed">0</property>
    <property name="instances">2</property>
   </filter>
  </entry>
  <entry in="00:03:26.080" out="00:03:26.960" producer="chain2">
   <property name="kdenlive:id">8</property>
   <filter id="filter56">
    <property name="mlt_service">ladspa.9354877</property>
    <property name="kdenlive_id">ladspa.9354877</property>
    <property name="2">49</property>
    <property name="3">500</property>
    <property name="4">0</property>
    <property name="kdenlive:kfrhidden">0</property>
    <property name="kdenlive:collapsed">0</property>
    <property name="instances">2</property>
   </filter>
  </entry>
  <entry in="00:03:27.160" out="00:03:27.640" producer="chain2">
   <property name="kdenlive:id">8</property>
   <filter id="filter57">
    <property name="mlt_service">ladspa.9354877</property>
    <property name="kdenlive_id">ladspa.9354877</property>
    <property name="2">49</property>
    <property name="3">500</property>
    <property name="4">0</property>
    <property name="kdenlive:kfrhidden">0</property>
    <property name="kdenlive:collapsed">0</property>
    <property name="instances">2</property>
   </filter>
  </entry>
  <entry in="00:03:27.800" out="00:03:29.120" producer="chain2">
   <property name="kdenlive:id">8</property>
   <filter id="filter58">
    <property name="mlt_service">ladspa.9354877</property>
    <property name="kdenlive_id">ladspa.9354877</property>
    <property name="2">49</property>
    <property name="3">500</property>
    <property name="4">0</property>
    <property name="kdenlive:kfrhidden">0</property>
    <property name="kdenlive:collapsed">0</property>
    <property name="instances">2</property>
   </filter>
  </entry>
  <entry in="00:03:29.640" out="00:03:31.480" producer="chain2">
   <property name="kdenlive:id">8</property>
   <filter id="filter59">
    <property name="mlt_service">ladspa.9354877</property>
    <property name="kdenlive_id">ladspa.9354877</property>
    <property name="2">49</property>
    <property name="3">500</property>
    <property name="4">0</property>
    <property name="kdenlive:kfrhidden">0</property>
    <property name="kdenlive:collapsed">0</property>
    <property name="instances">2</property>
   </filter>
  </entry>
  <entry in="00:03:31.960" out="00:03:33.160" producer="chain2">
   <property name="kdenlive:id">8</property>
   <filter id="filter60">
    <property name="mlt_service">ladspa.9354877</property>
    <property name="kdenlive_id">ladspa.9354877</property>
    <property name="2">49</property>
    <property name="3">500</property>
    <property name="4">0</property>
    <property name="kdenlive:kfrhidden">0</property>
    <property name="kdenlive:collapsed">0</property>
    <property name="instances">2</property>
   </filter>
  </entry>
  <entry in="00:03:33.880" out="00:03:34.440" producer="chain2">
   <property name="kdenlive:id">8</property>
   <filter id="filter61">
    <property name="mlt_service">ladspa.9354877</property>
    <property name="kdenlive_id">ladspa.9354877</property>
    <property name="2">49</property>
    <property name="3">500</property>
    <property name="4">0</property>
    <property name="kdenlive:kfrhidden">0</property>
    <property name="kdenlive:collapsed">0</property>
    <property name="instances">2</property>
   </filter>
  </entry>
  <entry in="00:03:34.600" out="00:03:35.600" producer="chain2">
   <property name="kdenlive:id">8</property>
   <filter id="filter62">
    <property name="mlt_service">ladspa.9354877</property>
    <property name="kdenlive_id">ladspa.9354877</property>
    <property name="2">49</property>
    <property name="3">500</property>
    <property name="4">0</property>
    <property name="kdenlive:kfrhidden">0</property>
    <property name="kdenlive:collapsed">0</property>
    <property name="instances">2</property>
   </filter>
  </entry>
  <entry in="00:03:36.000" out="00:03:36.280" producer="chain2">
   <property name="kdenlive:id">8</property>
   <filter id="filter63">
    <property name="mlt_service">ladspa.9354877</property>
    <property name="kdenlive_id">ladspa.9354877</property>
    <property name="2">49</property>
    <property name="3">500</property>
    <property name="4">0</property>
    <property name="kdenlive:kfrhidden">0</property>
    <property name="kdenlive:collapsed">0</property>
    <property name="instances">2</property>
   </filter>
  </entry>
  <entry in="00:03:36.720" out="00:03:38.240" producer="chain2">
   <property name="kdenlive:id">8</property>
   <filter id="filter64">
    <property name="mlt_service">ladspa.9354877</property>
    <property name="kdenlive_id">ladspa.9354877</property>
    <property name="2">49</property>
    <property name="3">500</property>
    <property name="4">0</property>
    <property name="kdenlive:kfrhidden">0</property>
    <property name="kdenlive:collapsed">0</property>
    <property name="instances">2</property>
   </filter>
  </entry>
  <entry in="00:03:41.360" out="00:03:43.280" producer="chain2">
   <property name="kdenlive:id">8</property>
   <filter id="filter65">
    <property name="mlt_service">ladspa.9354877</property>
    <property name="kdenlive_id">ladspa.9354877</property>
    <property name="2">49</property>
    <property name="3">500</property>
    <property name="4">0</property>
    <property name="kdenlive:kfrhidden">0</property>
    <property name="kdenlive:collapsed">0</property>
    <property name="instances">2</property>
   </filter>
  </entry>
  <entry in="00:03:43.680" out="00:03:45.760" producer="chain2">
   <property name="kdenlive:id">8</property>
   <filter id="filter66">
    <property name="mlt_service">ladspa.9354877</property>
    <property name="kdenlive_id">ladspa.9354877</property>
    <property name="2">49</property>
    <property name="3">500</property>
    <property name="4">0</property>
    <property name="kdenlive:kfrhidden">0</property>
    <property name="kdenlive:collapsed">0</property>
    <property name="instances">2</property>
   </filter>
  </entry>
  <entry in="00:03:47.040" out="00:03:51.960" producer="chain2">
   <property name="kdenlive:id">8</property>
   <filter id="filter67">
    <property name="mlt_service">ladspa.9354877</property>
    <property name="kdenlive_id">ladspa.9354877</property>
    <property name="2">49</property>
    <property name="3">500</property>
    <property name="4">0</property>
    <property name="kdenlive:kfrhidden">0</property>
    <property name="kdenlive:collapsed">0</property>
    <property name="instances">2</property>
   </filter>
  </entry>
  <entry in="00:03:52.400" out="00:03:53.480" producer="chain2">
   <property name="kdenlive:id">8</property>
   <filter id="filter68">
    <property name="mlt_service">ladspa.9354877</property>
    <property name="kdenlive_id">ladspa.9354877</property>
    <property name="2">49</property>
    <property name="3">500</property>
    <property name="4">0</property>
    <property name="kdenlive:kfrhidden">0</property>
    <property name="kdenlive:collapsed">0</property>
    <property name="instances">2</property>
   </filter>
  </entry>
  <entry in="00:03:54.880" out="00:03:55.480" producer="chain2">
   <property name="kdenlive:id">8</property>
   <filter id="filter69">
    <property name="mlt_service">ladspa.9354877</property>
    <property name="kdenlive_id">ladspa.9354877</property>
    <property name="2">49</property>
    <property name="3">500</property>
    <property name="4">0</property>
    <property name="kdenlive:kfrhidden">0</property>
    <property name="kdenlive:collapsed">0</property>
    <property name="instances">2</property>
   </filter>
  </entry>
  <entry in="00:03:55.760" out="00:03:59.440" producer="chain2">
   <property name="kdenlive:id">8</property>
   <filter id="filter70">
    <property name="mlt_service">ladspa.9354877</property>
    <property name="kdenlive_id">ladspa.9354877</property>
    <property name="2">49</property>
    <property name="3">500</property>
    <property name="4">0</property>
    <property name="kdenlive:kfrhidden">0</property>
    <property name="kdenlive:collapsed">0</property>
    <property name="instances">2</property>
   </filter>
  </entry>
  <entry in="00:04:00.000" out="00:04:02.720" producer="chain2">
   <property name="kdenlive:id">8</property>
   <filter id="filter71">
    <property name="mlt_service">ladspa.9354877</property>
    <property name="kdenlive_id">ladspa.9354877</property>
    <property name="2">49</property>
    <property name="3">500</property>
    <property name="4">0</property>
    <property name="kdenlive:kfrhidden">0</property>
    <property name="kdenlive:collapsed">0</property>
    <property name="instances">2</property>
   </filter>
  </entry>
  <entry in="00:04:21.040" out="00:04:27.200" producer="chain2">
   <property name="kdenlive:id">8</property>
   <filter id="filter72">
    <property name="mlt_service">ladspa.9354877</property>
    <property name="kdenlive_id">ladspa.9354877</property>
    <property name="2">49</property>
    <property name="3">500</property>
    <property name="4">0</property>
    <property name="kdenlive:kfrhidden">0</property>
    <property name="kdenlive:collapsed">0</property>
    <property name="instances">2</property>
   </filter>
  </entry>
  <entry in="00:04:27.880" out="00:04:30.640" producer="chain2">
   <property name="kdenlive:id">8</property>
   <filter id="filter73">
    <property name="mlt_service">ladspa.9354877</property>
    <property name="kdenlive_id">ladspa.9354877</property>
    <property name="2">49</property>
    <property name="3">500</property>
    <property name="4">0</property>
    <property name="kdenlive:kfrhidden">0</property>
    <property name="kdenlive:collapsed">0</property>
    <property name="instances">2</property>
   </filter>
  </entry>
  <entry in="00:04:31.120" out="00:04:31.760" producer="chain2">
   <property name="kdenlive:id">8</property>
   <filter id="filter74">
    <property name="mlt_service">ladspa.9354877</property>
    <property name="kdenlive_id">ladspa.9354877</property>
    <property name="2">49</property>
    <property name="3">500</property>
    <property name="4">0</property>
    <property name="kdenlive:kfrhidden">0</property>
    <property name="kdenlive:collapsed">0</property>
    <property name="instances">2</property>
   </filter>
  </entry>
  <entry in="00:04:32.760" out="00:04:34.520" producer="chain2">
   <property name="kdenlive:id">8</property>
   <filter id="filter75">
    <property name="mlt_service">ladspa.9354877</property>
    <property name="kdenlive_id">ladspa.9354877</property>
    <property name="2">49</property>
    <property name="3">500</property>
    <property name="4">0</property>
    <property name="kdenlive:kfrhidden">0</property>
    <property name="kdenlive:collapsed">0</property>
    <property name="instances">2</property>
   </filter>
  </entry>
  <entry in="00:04:34.840" out="00:04:36.800" producer="chain2">
   <property name="kdenlive:id">8</property>
   <filter id="filter76">
    <property name="mlt_service">ladspa.9354877</property>
    <property name="kdenlive_id">ladspa.9354877</property>
    <property name="2">49</property>
    <property name="3">500</property>
    <property name="4">0</property>
    <property name="kdenlive:kfrhidden">0</property>
    <property name="kdenlive:collapsed">0</property>
    <property name="instances">2</property>
   </filter>
  </entry>
  <entry in="00:04:37.080" out="00:04:38.640" producer="chain2">
   <property name="kdenlive:id">8</property>
   <filter id="filter77">
    <property name="mlt_service">ladspa.9354877</property>
    <property name="kdenlive_id">ladspa.9354877</property>
    <property name="2">49</property>
    <property name="3">500</property>
    <property name="4">0</property>
    <property name="kdenlive:kfrhidden">0</property>
    <property name="kdenlive:collapsed">0</property>
    <property name="instances">2</property>
   </filter>
  </entry>
  <entry in="00:04:40.000" out="00:04:45.360" producer="chain2">
   <property name="kdenlive:id">8</property>
   <filter id="filter78">
    <property name="mlt_service">ladspa.9354877</property>
    <property name="kdenlive_id">ladspa.9354877</property>
    <property name="2">49</property>
    <property name="3">500</property>
    <property name="4">0</property>
    <property name="kdenlive:kfrhidden">0</property>
    <property name="kdenlive:collapsed">0</property>
    <property name="instances">2</property>
   </filter>
  </entry>
  <entry in="00:04:46.160" out="00:04:50.040" producer="chain2">
   <property name="kdenlive:id">8</property>
   <filter id="filter79">
    <property name="mlt_service">ladspa.9354877</property>
    <property name="kdenlive_id">ladspa.9354877</property>
    <property name="2">49</property>
    <property name="3">500</property>
    <property name="4">0</property>
    <property name="kdenlive:kfrhidden">0</property>
    <property name="kdenlive:collapsed">0</property>
    <property name="instances">2</property>
   </filter>
  </entry>
  <entry in="00:04:50.320" out="00:04:51.400" producer="chain2">
   <property name="kdenlive:id">8</property>
   <filter id="filter80">
    <property name="mlt_service">ladspa.9354877</property>
    <property name="kdenlive_id">ladspa.9354877</property>
    <property name="2">49</property>
    <property name="3">500</property>
    <property name="4">0</property>
    <property name="kdenlive:kfrhidden">0</property>
    <property name="kdenlive:collapsed">0</property>
    <property name="instances">2</property>
   </filter>
  </entry>
  <entry in="00:04:54.840" out="00:04:56.080" producer="chain2">
   <property name="kdenlive:id">8</property>
   <filter id="filter81">
    <property name="mlt_service">ladspa.9354877</property>
    <property name="kdenlive_id">ladspa.9354877</property>
    <property name="2">49</property>
    <property name="3">500</property>
    <property name="4">0</property>
    <property name="kdenlive:kfrhidden">0</property>
    <property name="kdenlive:collapsed">0</property>
    <property name="instances">2</property>
   </filter>
  </entry>
  <entry in="00:05:01.040" out="00:05:05.560" producer="chain2">
   <property name="kdenlive:id">8</property>
   <filter id="filter82">
    <property name="mlt_service">ladspa.9354877</property>
    <property name="kdenlive_id">ladspa.9354877</property>
    <property name="2">49</property>
    <property name="3">500</property>
    <property name="4">0</property>
    <property name="kdenlive:kfrhidden">0</property>
    <property name="kdenlive:collapsed">0</property>
    <property name="instances">2</property>
   </filter>
  </entry>
  <entry in="00:06:35.160" out="00:06:43.280" producer="chain2">
   <property name="kdenlive:id">8</property>
   <filter id="filter83">
    <property name="mlt_service">ladspa.9354877</property>
    <property name="kdenlive_id">ladspa.9354877</property>
    <property name="2">49</property>
    <property name="3">500</property>
    <property name="4">0</property>
    <property name="kdenlive:kfrhidden">0</property>
    <property name="kdenlive:collapsed">0</property>
    <property name="instances">2</property>
   </filter>
  </entry>
  <entry in="00:06:46.520" out="00:06:47.120" producer="chain2">
   <property name="kdenlive:id">8</property>
   <filter id="filter84">
    <property name="mlt_service">ladspa.9354877</property>
    <property name="kdenlive_id">ladspa.9354877</property>
    <property name="2">49</property>
    <property name="3">500</property>
    <property name="4">0</property>
    <property name="kdenlive:kfrhidden">0</property>
    <property name="kdenlive:collapsed">0</property>
    <property name="instances">2</property>
   </filter>
  </entry>
  <entry in="00:06:48.480" out="00:06:51.320" producer="chain2">
   <property name="kdenlive:id">8</property>
   <filter id="filter85">
    <property name="mlt_service">ladspa.9354877</property>
    <property name="kdenlive_id">ladspa.9354877</property>
    <property name="2">49</property>
    <property name="3">500</property>
    <property name="4">0</property>
    <property name="kdenlive:kfrhidden">0</property>
    <property name="kdenlive:collapsed">0</property>
    <property name="instances">2</property>
   </filter>
  </entry>
  <entry in="00:06:51.760" out="00:06:59.560" producer="chain2">
   <property name="kdenlive:id">8</property>
   <filter id="filter86">
    <property name="mlt_service">ladspa.9354877</property>
    <property name="kdenlive_id">ladspa.9354877</property>
    <property name="2">49</property>
    <property name="3">500</property>
    <property name="4">0</property>
    <property name="kdenlive:kfrhidden">0</property>
    <property name="kdenlive:collapsed">0</property>
    <property name="instances">2</property>
   </filter>
  </entry>
  <entry in="00:07:01.960" out="00:07:17.760" producer="chain2">
   <property name="kdenlive:id">8</property>
   <filter id="filter87">
    <property name="mlt_service">ladspa.9354877</property>
    <property name="kdenlive_id">ladspa.9354877</property>
    <property name="2">49</property>
    <property name="3">500</property>
    <property name="4">0</property>
    <property name="kdenlive:kfrhidden">0</property>
    <property name="kdenlive:collapsed">0</property>
    <property name="instances">2</property>
   </filter>
  </entry>
  <entry in="00:07:18.440" out="00:07:20.200" producer="chain2">
   <property name="kdenlive:id">8</property>
   <filter id="filter88">
    <property name="mlt_service">ladspa.9354877</property>
    <property name="kdenlive_id">ladspa.9354877</property>
    <property name="2">49</property>
    <property name="3">500</property>
    <property name="4">0</property>
    <property name="kdenlive:kfrhidden">0</property>
    <property name="kdenlive:collapsed">0</property>
    <property name="instances">2</property>
   </filter>
  </entry>
  <entry in="00:07:25.440" out="00:07:31.320" producer="chain2">
   <property name="kdenlive:id">8</property>
   <filter id="filter89">
    <property name="mlt_service">ladspa.9354877</property>
    <property name="kdenlive_id">ladspa.9354877</property>
    <property name="2">49</property>
    <property name="3">500</property>
    <property name="4">0</property>
    <property name="kdenlive:kfrhidden">0</property>
    <property name="kdenlive:collapsed">0</property>
    <property name="instances">2</property>
   </filter>
  </entry>
  <entry in="00:07:37.120" out="00:07:39.560" producer="chain2">
   <property name="kdenlive:id">8</property>
   <filter id="filter90">
    <property name="mlt_service">ladspa.9354877</property>
    <property name="kdenlive_id">ladspa.9354877</property>
    <property name="2">49</property>
    <property name="3">500</property>
    <property name="4">0</property>
    <property name="kdenlive:kfrhidden">0</property>
    <property name="kdenlive:collapsed">0</property>
    <property name="instances">2</property>
   </filter>
  </entry>
  <entry in="00:08:24.800" out="00:08:26.920" producer="chain2">
   <property name="kdenlive:id">8</property>
   <filter id="filter91">
    <property name="mlt_service">ladspa.9354877</property>
    <property name="kdenlive_id">ladspa.9354877</property>
    <property name="2">49</property>
    <property name="3">500</property>
    <property name="4">0</property>
    <property name="kdenlive:kfrhidden">0</property>
    <property name="kdenlive:collapsed">0</property>
    <property name="instances">2</property>
   </filter>
  </entry>
  <entry in="00:08:27.400" out="00:08:28.960" producer="chain2">
   <property name="kdenlive:id">8</property>
   <filter id="filter92">
    <property name="mlt_service">ladspa.9354877</property>
    <property name="kdenlive_id">ladspa.9354877</property>
    <property name="2">49</property>
    <property name="3">500</property>
    <property name="4">0</property>
    <property name="kdenlive:kfrhidden">0</property>
    <property name="kdenlive:collapsed">0</property>
    <property name="instances">2</property>
   </filter>
  </entry>
  <entry in="00:00:01.840" out="00:00:06.440" producer="chain3">
   <property name="kdenlive:id">9</property>
   <filter id="filter93">
    <property name="mlt_service">ladspa.9354877</property>
    <property name="kdenlive_id">ladspa.9354877</property>
    <property name="2">49</property>
    <property name="3">500</property>
    <property name="4">0</property>
    <property name="instances">2</property>
   </filter>
  </entry>
  <entry in="00:08:41.880" out="00:08:44.320" producer="chain2">
   <property name="kdenlive:id">8</property>
   <filter id="filter94">
    <property name="mlt_service">ladspa.9354877</property>
    <property name="kdenlive_id">ladspa.9354877</property>
    <property name="2">49</property>
    <property name="3">500</property>
    <property name="4">0</property>
    <property name="kdenlive:kfrhidden">0</property>
    <property name="kdenlive:collapsed">0</property>
    <property name="instances">2</property>
   </filter>
  </entry>
  <entry in="00:00:08.960" out="00:00:10.080" producer="chain3">
   <property name="kdenlive:id">9</property>
   <filter id="filter95">
    <property name="mlt_service">ladspa.9354877</property>
    <property name="kdenlive_id">ladspa.9354877</property>
    <property name="2">49</property>
    <property name="3">500</property>
    <property name="4">0</property>
    <property name="kdenlive:collapsed">0</property>
    <property name="instances">2</property>
   </filter>
  </entry>
  <entry in="00:00:12.320" out="00:00:15.120" producer="chain3">
   <property name="kdenlive:id">9</property>
   <filter id="filter96">
    <property name="mlt_service">ladspa.9354877</property>
    <property name="kdenlive_id">ladspa.9354877</property>
    <property name="2">49</property>
    <property name="3">500</property>
    <property name="4">0</property>
    <property name="kdenlive:collapsed">0</property>
    <property name="instances">2</property>
   </filter>
  </entry>
  <entry in="00:00:16.360" out="00:00:23.320" producer="chain3">
   <property name="kdenlive:id">9</property>
   <filter id="filter97">
    <property name="mlt_service">ladspa.9354877</property>
    <property name="kdenlive_id">ladspa.9354877</property>
    <property name="2">49</property>
    <property name="3">500</property>
    <property name="4">0</property>
    <property name="kdenlive:collapsed">0</property>
    <property name="instances">2</property>
   </filter>
  </entry>
  <entry in="00:00:23.640" out="00:00:24.720" producer="chain3">
   <property name="kdenlive:id">9</property>
   <filter id="filter98">
    <property name="mlt_service">ladspa.9354877</property>
    <property name="kdenlive_id">ladspa.9354877</property>
    <property name="2">49</property>
    <property name="3">500</property>
    <property name="4">0</property>
    <property name="kdenlive:collapsed">0</property>
    <property name="instances">2</property>
   </filter>
  </entry>
  <entry in="00:00:25.000" out="00:00:27.640" producer="chain3">
   <property name="kdenlive:id">9</property>
   <filter id="filter99">
    <property name="mlt_service">ladspa.9354877</property>
    <property name="kdenlive_id">ladspa.9354877</property>
    <property name="2">49</property>
    <property name="3">500</property>
    <property name="4">0</property>
    <property name="kdenlive:collapsed">0</property>
    <property name="instances">2</property>
   </filter>
  </entry>
  <entry in="00:00:28.040" out="00:00:30.840" producer="chain3">
   <property name="kdenlive:id">9</property>
   <filter id="filter100">
    <property name="mlt_service">ladspa.9354877</property>
    <property name="kdenlive_id">ladspa.9354877</property>
    <property name="2">49</property>
    <property name="3">500</property>
    <property name="4">0</property>
    <property name="kdenlive:collapsed">0</property>
    <property name="instances">2</property>
   </filter>
  </entry>
  <entry in="00:00:31.400" out="00:00:33.120" producer="chain3">
   <property name="kdenlive:id">9</property>
   <filter id="filter101">
    <property name="mlt_service">ladspa.9354877</property>
    <property name="kdenlive_id">ladspa.9354877</property>
    <property name="2">49</property>
    <property name="3">500</property>
    <property name="4">0</property>
    <property name="kdenlive:collapsed">0</property>
    <property name="instances">2</property>
   </filter>
  </entry>
  <entry in="00:00:48.320" out="00:00:54.120" producer="chain3">
   <property name="kdenlive:id">9</property>
   <filter id="filter102">
    <property name="mlt_service">ladspa.9354877</property>
    <property name="kdenlive_id">ladspa.9354877</property>
    <property name="2">49</property>
    <property name="3">500</property>
    <property name="4">0</property>
    <property name="kdenlive:collapsed">0</property>
    <property name="instances">2</property>
   </filter>
  </entry>
  <entry in="00:00:57.880" out="00:01:01.520" producer="chain3">
   <property name="kdenlive:id">9</property>
   <filter id="filter103">
    <property name="mlt_service">ladspa.9354877</property>
    <property name="kdenlive_id">ladspa.9354877</property>
    <property name="2">49</property>
    <property name="3">500</property>
    <property name="4">0</property>
    <property name="kdenlive:collapsed">0</property>
    <property name="instances">2</property>
   </filter>
  </entry>
  <entry in="00:01:02.880" out="00:01:03.640" producer="chain3">
   <property name="kdenlive:id">9</property>
   <filter id="filter104">
    <property name="mlt_service">ladspa.9354877</property>
    <property name="kdenlive_id">ladspa.9354877</property>
    <property name="2">49</property>
    <property name="3">500</property>
    <property name="4">0</property>
    <property name="kdenlive:collapsed">0</property>
    <property name="instances">2</property>
   </filter>
  </entry>
  <entry in="00:01:05.160" out="00:01:17.680" producer="chain3">
   <property name="kdenlive:id">9</property>
   <filter id="filter105">
    <property name="mlt_service">ladspa.9354877</property>
    <property name="kdenlive_id">ladspa.9354877</property>
    <property name="2">49</property>
    <property name="3">500</property>
    <property name="4">0</property>
    <property name="kdenlive:collapsed">0</property>
    <property name="instances">2</property>
   </filter>
  </entry>
  <entry in="00:01:18.920" out="00:01:20.680" producer="chain3">
   <property name="kdenlive:id">9</property>
   <filter id="filter106">
    <property name="mlt_service">ladspa.9354877</property>
    <property name="kdenlive_id">ladspa.9354877</property>
    <property name="2">49</property>
    <property name="3">500</property>
    <property name="4">0</property>
    <property name="kdenlive:collapsed">0</property>
    <property name="instances">2</property>
   </filter>
  </entry>
  <entry in="00:01:21.520" out="00:01:23.000" producer="chain3">
   <property name="kdenlive:id">9</property>
   <filter id="filter107">
    <property name="mlt_service">ladspa.9354877</property>
    <property name="kdenlive_id">ladspa.9354877</property>
    <property name="2">49</property>
    <property name="3">500</property>
    <property name="4">0</property>
    <property name="kdenlive:collapsed">0</property>
    <property name="instances">2</property>
   </filter>
  </entry>
  <entry in="00:01:23.600" out="00:01:24.200" producer="chain3">
   <property name="kdenlive:id">9</property>
   <filter id="filter108">
    <property name="mlt_service">ladspa.9354877</property>
    <property name="kdenlive_id">ladspa.9354877</property>
    <property name="2">49</property>
    <property name="3">500</property>
    <property name="4">0</property>
    <property name="kdenlive:collapsed">0</property>
    <property name="instances">2</property>
   </filter>
  </entry>
  <entry in="00:01:25.080" out="00:01:25.800" producer="chain3">
   <property name="kdenlive:id">9</property>
   <filter id="filter109">
    <property name="mlt_service">ladspa.9354877</property>
    <property name="kdenlive_id">ladspa.9354877</property>
    <property name="2">49</property>
    <property name="3">500</property>
    <property name="4">0</property>
    <property name="kdenlive:collapsed">0</property>
    <property name="instances">2</property>
   </filter>
  </entry>
  <entry in="00:01:26.720" out="00:01:30.520" producer="chain3">
   <property name="kdenlive:id">9</property>
   <filter id="filter110">
    <property name="mlt_service">ladspa.9354877</property>
    <property name="kdenlive_id">ladspa.9354877</property>
    <property name="2">49</property>
    <property name="3">500</property>
    <property name="4">0</property>
    <property name="kdenlive:collapsed">0</property>
    <property name="instances">2</property>
   </filter>
  </entry>
  <entry in="00:01:35.960" out="00:01:37.600" producer="chain3">
   <property name="kdenlive:id">9</property>
   <filter id="filter111">
    <property name="mlt_service">ladspa.9354877</property>
    <property name="kdenlive_id">ladspa.9354877</property>
    <property name="2">49</property>
    <property name="3">500</property>
    <property name="4">0</property>
    <property name="kdenlive:collapsed">0</property>
    <property name="instances">2</property>
   </filter>
  </entry>
  <entry in="00:01:40.160" out="00:01:40.920" producer="chain3">
   <property name="kdenlive:id">9</property>
   <filter id="filter112">
    <property name="mlt_service">ladspa.9354877</property>
    <property name="kdenlive_id">ladspa.9354877</property>
    <property name="2">49</property>
    <property name="3">500</property>
    <property name="4">0</property>
    <property name="kdenlive:collapsed">0</property>
    <property name="instances">2</property>
   </filter>
  </entry>
  <entry in="00:01:42.160" out="00:01:43.880" producer="chain3">
   <property name="kdenlive:id">9</property>
   <filter id="filter113">
    <property name="mlt_service">ladspa.9354877</property>
    <property name="kdenlive_id">ladspa.9354877</property>
    <property name="2">49</property>
    <property name="3">500</property>
    <property name="4">0</property>
    <property name="kdenlive:collapsed">0</property>
    <property name="instances">2</property>
   </filter>
  </entry>
  <entry in="00:01:44.800" out="00:01:53.560" producer="chain3">
   <property name="kdenlive:id">9</property>
   <filter id="filter114">
    <property name="mlt_service">ladspa.9354877</property>
    <property name="kdenlive_id">ladspa.9354877</property>
    <property name="2">49</property>
    <property name="3">500</property>
    <property name="4">0</property>
    <property name="kdenlive:collapsed">0</property>
    <property name="instances">2</property>
   </filter>
  </entry>
  <entry in="00:01:53.920" out="00:02:06.160" producer="chain3">
   <property name="kdenlive:id">9</property>
   <filter id="filter115">
    <property name="mlt_service">ladspa.9354877</property>
    <property name="kdenlive_id">ladspa.9354877</property>
    <property name="2">49</property>
    <property name="3">500</property>
    <property name="4">0</property>
    <property name="kdenlive:collapsed">0</property>
    <property name="instances">2</property>
   </filter>
  </entry>
  <entry in="00:02:08.600" out="00:19:10.880" producer="chain3">
   <property name="kdenlive:id">9</property>
   <filter id="filter116">
    <property name="mlt_service">ladspa.9354877</property>
    <property name="kdenlive_id">ladspa.9354877</property>
    <property name="2">49</property>
    <property name="3">500</property>
    <property name="4">0</property>
    <property name="kdenlive:collapsed">0</property>
    <property name="instances">2</property>
   </filter>
  </entry>
 </playlist>
 <playlist id="playlist1">
  <property name="kdenlive:audio_track">1</property>
 </playlist>
 <tractor id="tractor0" in="00:00:00.000" out="00:26:45.720">
  <property name="kdenlive:audio_track">1</property>
  <property name="kdenlive:trackheight">61</property>
  <property name="kdenlive:timeline_active">1</property>
  <property name="kdenlive:collapsed">0</property>
  <property name="kdenlive:thumbs_format"/>
  <property name="kdenlive:audio_rec">0</property>
  <track hide="video" producer="playlist0"/>
  <track hide="video" producer="playlist1"/>
  <filter id="filter117">
   <property name="window">75</property>
   <property name="max_gain">20dB</property>
   <property name="level">-4.16303</property>
   <property name="mlt_service">volume</property>
   <property name="internal_added">237</property>
   <property name="disable">0</property>
  </filter>
  <filter id="filter118">
   <property name="channel">-1</property>
   <property name="mlt_service">panner</property>
   <property name="internal_added">237</property>
   <property name="start">0.5</property>
   <property name="disable">1</property>
  </filter>
  <filter id="filter119">
   <property name="iec_scale">0</property>
   <property name="mlt_service">audiolevel</property>
   <property name="dbpeak">1</property>
   <property name="disable">1</property>
  </filter>
  <filter id="filter120" out="00:26:45.760">
   <property name="mlt_service">ladspa.9354877</property>
   <property name="kdenlive_id">ladspa.9354877</property>
   <property name="2">49</property>
   <property name="3">500</property>
   <property name="4">0</property>
   <property name="instances">2</property>
  </filter>
 </tractor>
 <chain id="chain6" out="00:09:55.920">
  <property name="length">14899</property>
  <property name="eof">pause</property>
  <property name="resource">Assets/Videos/raw/Loops_1.mkv</property>
  <property name="mlt_service">avformat-novalidate</property>
  <property name="seekable">1</property>
  <property name="format">3</property>
  <property name="audio_index">1</property>
  <property name="video_index">0</property>
  <property name="vstream">0</property>
  <property name="astream">0</property>
  <property name="kdenlive:folderid">-1</property>
  <property name="kdenlive:id">4</property>
  <property name="kdenlive:control_uuid">{ad6f90a7-227c-4e47-9ac4-cfcbb9dca6b7}</property>
  <property name="mute_on_pause">0</property>
  <property name="kdenlive:clip_type">0</property>
  <property name="kdenlive:file_size">25409101</property>
  <property name="kdenlive:file_hash">0733de0895b747414e12665fd9328d92</property>
  <property name="meta.media.nb_streams">2</property>
  <property name="meta.media.0.stream.type">video</property>
  <property name="meta.media.0.stream.frame_rate">60</property>
  <property name="meta.media.0.stream.sample_aspect_ratio">0</property>
  <property name="meta.media.0.codec.width">1920</property>
  <property name="meta.media.0.codec.height">1080</property>
  <property name="meta.media.0.codec.rotate">0</property>
  <property name="meta.media.0.codec.pix_fmt">yuv420p</property>
  <property name="meta.media.0.codec.sample_aspect_ratio">1</property>
  <property name="meta.media.0.codec.colorspace">709</property>
  <property name="meta.media.0.codec.color_trc">1</property>
  <property name="meta.media.0.codec.name">h264</property>
  <property name="meta.media.0.codec.long_name">H.264 / AVC / MPEG-4 AVC / MPEG-4 part 10</property>
  <property name="meta.media.0.codec.bit_rate">0</property>
  <property name="meta.attr.0.stream.DURATION.markup">00:09:55.950000000</property>
  <property name="meta.media.1.stream.type">audio</property>
  <property name="meta.media.1.codec.sample_fmt">fltp</property>
  <property name="meta.media.1.codec.sample_rate">48000</property>
  <property name="meta.media.1.codec.channels">2</property>
  <property name="meta.media.1.codec.layout">stereo</property>
  <property name="meta.media.1.codec.name">aac</property>
  <property name="meta.media.1.codec.long_name">AAC (Advanced Audio Coding)</property>
  <property name="meta.media.1.codec.bit_rate">0</property>
  <property name="meta.attr.1.stream.title.markup">simple_aac_recording0</property>
  <property name="meta.attr.1.stream.DURATION.markup">00:09:55.904000000</property>
  <property name="meta.attr.ENCODER.markup">Lavf60.16.100</property>
  <property name="meta.media.sample_aspect_num">1</property>
  <property name="meta.media.sample_aspect_den">1</property>
  <property name="meta.media.frame_rate_num">60</property>
  <property name="meta.media.frame_rate_den">1</property>
  <property name="meta.media.colorspace">709</property>
  <property name="meta.media.color_trc">1</property>
  <property name="meta.media.has_b_frames">2</property>
  <property name="meta.media.width">1920</property>
  <property name="meta.media.height">1080</property>
  <property name="meta.media.aspect_ratio">1</property>
  <property name="meta.media.color_range">mpeg</property>
  <property name="xml">was here</property>
  <property name="meta.media.top_field_first">0</property>
  <property name="meta.media.progressive">1</property>
  <property name="set.test_audio">0</property>
  <property name="set.test_image">1</property>
 </chain>
 <chain id="chain7" out="00:09:55.920">
  <property name="length">14899</property>
  <property name="eof">pause</property>
  <property name="resource">Assets/Videos/raw/Loops_1.mkv</property>
  <property name="mlt_service">avformat-novalidate</property>
  <property name="seekable">1</property>
  <property name="format">3</property>
  <property name="audio_index">1</property>
  <property name="video_index">0</property>
  <property name="vstream">0</property>
  <property name="astream">0</property>
  <property name="kdenlive:folderid">-1</property>
  <property name="kdenlive:id">4</property>
  <property name="kdenlive:control_uuid">{ad6f90a7-227c-4e47-9ac4-cfcbb9dca6b7}</property>
  <property name="mute_on_pause">0</property>
  <property name="kdenlive:clip_type">0</property>
  <property name="kdenlive:file_size">25409101</property>
  <property name="kdenlive:file_hash">0733de0895b747414e12665fd9328d92</property>
  <property name="kdenlive:monitorPosition">109</property>
  <property name="meta.media.nb_streams">2</property>
  <property name="meta.media.0.stream.type">video</property>
  <property name="meta.media.0.stream.frame_rate">60</property>
  <property name="meta.media.0.stream.sample_aspect_ratio">0</property>
  <property name="meta.media.0.codec.width">1920</property>
  <property name="meta.media.0.codec.height">1080</property>
  <property name="meta.media.0.codec.rotate">0</property>
  <property name="meta.media.0.codec.pix_fmt">yuv420p</property>
  <property name="meta.media.0.codec.sample_aspect_ratio">1</property>
  <property name="meta.media.0.codec.colorspace">709</property>
  <property name="meta.media.0.codec.color_trc">1</property>
  <property name="meta.media.0.codec.name">h264</property>
  <property name="meta.media.0.codec.long_name">H.264 / AVC / MPEG-4 AVC / MPEG-4 part 10</property>
  <property name="meta.media.0.codec.bit_rate">0</property>
  <property name="meta.attr.0.stream.DURATION.markup">00:09:55.950000000</property>
  <property name="meta.media.1.stream.type">audio</property>
  <property name="meta.media.1.codec.sample_fmt">fltp</property>
  <property name="meta.media.1.codec.sample_rate">48000</property>
  <property name="meta.media.1.codec.channels">2</property>
  <property name="meta.media.1.codec.layout">stereo</property>
  <property name="meta.media.1.codec.name">aac</property>
  <property name="meta.media.1.codec.long_name">AAC (Advanced Audio Coding)</property>
  <property name="meta.media.1.codec.bit_rate">0</property>
  <property name="meta.attr.1.stream.title.markup">simple_aac_recording0</property>
  <property name="meta.attr.1.stream.DURATION.markup">00:09:55.904000000</property>
  <property name="meta.attr.ENCODER.markup">Lavf60.16.100</property>
  <property name="meta.media.sample_aspect_num">1</property>
  <property name="meta.media.sample_aspect_den">1</property>
  <property name="meta.media.frame_rate_num">60</property>
  <property name="meta.media.frame_rate_den">1</property>
  <property name="meta.media.colorspace">709</property>
  <property name="meta.media.color_trc">1</property>
  <property name="meta.media.has_b_frames">2</property>
  <property name="meta.media.width">1920</property>
  <property name="meta.media.height">1080</property>
  <property name="meta.media.aspect_ratio">1</property>
  <property name="meta.media.color_range">mpeg</property>
  <property name="xml">was here</property>
  <property name="meta.media.top_field_first">0</property>
  <property name="meta.media.progressive">1</property>
  <property name="set.test_audio">1</property>
  <property name="set.test_image">1</property>
 </chain>
 <chain id="chain8" out="00:09:51.480">
  <property name="length">14788</property>
  <property name="eof">pause</property>
  <property name="resource">Assets/Videos/raw/Loops_2.mkv</property>
  <property name="mlt_service">avformat-novalidate</property>
  <property name="seekable">1</property>
  <property name="audio_index">1</property>
  <property name="video_index">0</property>
  <property name="vstream">0</property>
  <property name="astream">0</property>
  <property name="kdenlive:folderid">-1</property>
  <property name="kdenlive:id">6</property>
  <property name="kdenlive:control_uuid">{ea91381e-cca3-44c5-af65-b1b9d97fef49}</property>
  <property name="mute_on_pause">0</property>
  <property name="kdenlive:clip_type">0</property>
  <property name="kdenlive:file_size">24131387</property>
  <property name="kdenlive:file_hash">1762fd213f26783cae9ab2cbdc90059c</property>
  <property name="kdenlive:monitorPosition">0</property>
  <property name="meta.media.nb_streams">2</property>
  <property name="meta.media.0.stream.type">video</property>
  <property name="meta.media.0.stream.frame_rate">60</property>
  <property name="meta.media.0.stream.sample_aspect_ratio">0</property>
  <property name="meta.media.0.codec.width">1920</property>
  <property name="meta.media.0.codec.height">1080</property>
  <property name="meta.media.0.codec.rotate">0</property>
  <property name="meta.media.0.codec.pix_fmt">yuv420p</property>
  <property name="meta.media.0.codec.sample_aspect_ratio">1</property>
  <property name="meta.media.0.codec.colorspace">709</property>
  <property name="meta.media.0.codec.color_trc">1</property>
  <property name="meta.media.0.codec.name">h264</property>
  <property name="meta.media.0.codec.long_name">H.264 / AVC / MPEG-4 AVC / MPEG-4 part 10</property>
  <property name="meta.media.0.codec.bit_rate">0</property>
  <property name="meta.attr.0.stream.DURATION.markup">00:09:51.534000000</property>
  <property name="meta.media.1.stream.type">audio</property>
  <property name="meta.media.1.codec.sample_fmt">fltp</property>
  <property name="meta.media.1.codec.sample_rate">48000</property>
  <property name="meta.media.1.codec.channels">2</property>
  <property name="meta.media.1.codec.layout">stereo</property>
  <property name="meta.media.1.codec.name">aac</property>
  <property name="meta.media.1.codec.long_name">AAC (Advanced Audio Coding)</property>
  <property name="meta.media.1.codec.bit_rate">0</property>
  <property name="meta.attr.1.stream.title.markup">simple_aac_recording0</property>
  <property name="meta.attr.1.stream.DURATION.markup">00:09:51.488000000</property>
  <property name="meta.attr.ENCODER.markup">Lavf60.16.100</property>
  <property name="meta.media.sample_aspect_num">1</property>
  <property name="meta.media.sample_aspect_den">1</property>
  <property name="meta.media.frame_rate_num">60</property>
  <property name="meta.media.frame_rate_den">1</property>
  <property name="meta.media.colorspace">709</property>
  <property name="meta.media.color_trc">1</property>
  <property name="meta.media.has_b_frames">2</property>
  <property name="meta.media.width">1920</property>
  <property name="meta.media.height">1080</property>
  <property name="meta.media.aspect_ratio">1</property>
  <property name="meta.media.color_range">mpeg</property>
  <property name="xml">was here</property>
  <property name="meta.media.top_field_first">0</property>
  <property name="meta.media.progressive">1</property>
  <property name="set.test_audio">0</property>
  <property name="set.test_image">1</property>
 </chain>
 <chain id="chain9" out="00:18:50.320">
  <property name="length">28259</property>
  <property name="eof">pause</property>
  <property name="resource">Assets/Videos/raw/Loops_3.mkv</property>
  <property name="mlt_service">avformat-novalidate</property>
  <property name="seekable">1</property>
  <property name="audio_index">1</property>
  <property name="video_index">0</property>
  <property name="vstream">0</property>
  <property name="astream">0</property>
  <property name="kdenlive:folderid">-1</property>
  <property name="kdenlive:id">7</property>
  <property name="kdenlive:control_uuid">{3e3872f1-f41d-45ea-ab9d-9c80c7d969a6}</property>
  <property name="mute_on_pause">0</property>
  <property name="kdenlive:clip_type">0</property>
  <property name="kdenlive:file_size">48962920</property>
  <property name="kdenlive:file_hash">321d95344d6eea00f0d46aa16140f6a2</property>
  <property name="meta.media.nb_streams">2</property>
  <property name="meta.media.0.stream.type">video</property>
  <property name="meta.media.0.stream.frame_rate">60</property>
  <property name="meta.media.0.stream.sample_aspect_ratio">0</property>
  <property name="meta.media.0.codec.width">1920</property>
  <property name="meta.media.0.codec.height">1080</property>
  <property name="meta.media.0.codec.rotate">0</property>
  <property name="meta.media.0.codec.pix_fmt">yuv420p</property>
  <property name="meta.media.0.codec.sample_aspect_ratio">1</property>
  <property name="meta.media.0.codec.colorspace">709</property>
  <property name="meta.media.0.codec.color_trc">1</property>
  <property name="meta.media.0.codec.name">h264</property>
  <property name="meta.media.0.codec.long_name">H.264 / AVC / MPEG-4 AVC / MPEG-4 part 10</property>
  <property name="meta.media.0.codec.bit_rate">0</property>
  <property name="meta.attr.0.stream.DURATION.markup">00:18:50.350000000</property>
  <property name="meta.media.1.stream.type">audio</property>
  <property name="meta.media.1.codec.sample_fmt">fltp</property>
  <property name="meta.media.1.codec.sample_rate">48000</property>
  <property name="meta.media.1.codec.channels">2</property>
  <property name="meta.media.1.codec.layout">stereo</property>
  <property name="meta.media.1.codec.name">aac</property>
  <property name="meta.media.1.codec.long_name">AAC (Advanced Audio Coding)</property>
  <property name="meta.media.1.codec.bit_rate">0</property>
  <property name="meta.attr.1.stream.title.markup">simple_aac_recording0</property>
  <property name="meta.attr.1.stream.DURATION.markup">00:18:50.304000000</property>
  <property name="meta.attr.ENCODER.markup">Lavf60.16.100</property>
  <property name="meta.media.sample_aspect_num">1</property>
  <property name="meta.media.sample_aspect_den">1</property>
  <property name="meta.media.frame_rate_num">60</property>
  <property name="meta.media.frame_rate_den">1</property>
  <property name="meta.media.colorspace">709</property>
  <property name="meta.media.color_trc">1</property>
  <property name="meta.media.has_b_frames">2</property>
  <property name="meta.media.width">1920</property>
  <property name="meta.media.height">1080</property>
  <property name="meta.media.aspect_ratio">1</property>
  <property name="meta.media.color_range">mpeg</property>
  <property name="xml">was here</property>
  <property name="meta.media.top_field_first">0</property>
  <property name="meta.media.progressive">1</property>
  <property name="set.test_audio">0</property>
  <property name="set.test_image">1</property>
 </chain>
 <playlist id="playlist2">
  <property name="kdenlive:audio_track">1</property>
  <entry in="00:00:05.680" out="00:00:22.160" producer="chain6">
   <property name="kdenlive:id">4</property>
  </entry>
  <entry in="00:00:25.240" out="00:00:33.680" producer="chain6">
   <property name="kdenlive:id">4</property>
  </entry>
  <entry in="00:00:34.080" out="00:01:01.320" producer="chain6">
   <property name="kdenlive:id">4</property>
  </entry>
  <entry in="00:01:10.920" out="00:02:02.840" producer="chain6">
   <property name="kdenlive:id">4</property>
  </entry>
  <entry in="00:02:11.480" out="00:02:21.920" producer="chain6">
   <property name="kdenlive:id">4</property>
  </entry>
  <entry in="00:02:58.360" out="00:03:04.480" producer="chain6">
   <property name="kdenlive:id">4</property>
  </entry>
  <entry in="00:03:05.440" out="00:03:12.880" producer="chain6">
   <property name="kdenlive:id">4</property>
  </entry>
  <entry in="00:03:14.040" out="00:03:15.000" producer="chain6">
   <property name="kdenlive:id">4</property>
  </entry>
  <entry in="00:03:15.640" out="00:03:16.440" producer="chain6">
   <property name="kdenlive:id">4</property>
  </entry>
  <entry in="00:03:17.320" out="00:03:22.920" producer="chain6">
   <property name="kdenlive:id">4</property>
  </entry>
  <entry in="00:03:41.680" out="00:03:47.920" producer="chain6">
   <property name="kdenlive:id">4</property>
  </entry>
  <entry in="00:03:50.840" out="00:03:51.160" producer="chain6">
   <property name="kdenlive:id">4</property>
  </entry>
  <entry in="00:04:06.080" out="00:04:22.160" producer="chain6">
   <property name="kdenlive:id">4</property>
  </entry>
  <entry in="00:04:24.360" out="00:04:32.400" producer="chain6">
   <property name="kdenlive:id">4</property>
  </entry>
  <entry in="00:04:40.960" out="00:04:55.720" producer="chain7">
   <property name="kdenlive:id">4</property>
  </entry>
  <entry in="00:04:57.800" out="00:05:01.240" producer="chain6">
   <property name="kdenlive:id">4</property>
  </entry>
  <entry in="00:05:01.520" out="00:05:13.960" producer="chain6">
   <property name="kdenlive:id">4</property>
  </entry>
  <entry in="00:05:14.360" out="00:05:16.040" producer="chain6">
   <property name="kdenlive:id">4</property>
  </entry>
  <entry in="00:05:16.000" out="00:05:16.720" producer="chain6">
   <property name="kdenlive:id">4</property>
  </entry>
  <entry in="00:05:18.680" out="00:05:20.640" producer="chain6">
   <property name="kdenlive:id">4</property>
  </entry>
  <entry in="00:05:22.960" out="00:05:23.680" producer="chain6">
   <property name="kdenlive:id">4</property>
  </entry>
  <entry in="00:05:24.640" out="00:05:30.160" producer="chain6">
   <property name="kdenlive:id">4</property>
  </entry>
  <entry in="00:05:30.000" out="00:05:32.720" producer="chain6">
   <property name="kdenlive:id">4</property>
  </entry>
  <entry in="00:05:33.320" out="00:05:37.040" producer="chain6">
   <property name="kdenlive:id">4</property>
  </entry>
  <entry in="00:05:37.920" out="00:05:52.080" producer="chain6">
   <property name="kdenlive:id">4</property>
  </entry>
  <entry in="00:06:04.880" out="00:06:05.440" producer="chain6">
   <property name="kdenlive:id">4</property>
  </entry>
  <entry in="00:06:51.440" out="00:07:03.400" producer="chain6">
   <property name="kdenlive:id">4</property>
  </entry>
  <entry in="00:07:28.120" out="00:07:38.240" producer="chain6">
   <property name="kdenlive:id">4</property>
  </entry>
  <entry in="00:08:06.240" out="00:08:33.920" producer="chain6">
   <property name="kdenlive:id">4</property>
  </entry>
  <entry in="00:09:16.720" out="00:09:31.800" producer="chain6">
   <property name="kdenlive:id">4</property>
  </entry>
  <entry in="00:00:02.120" out="00:00:13.120" producer="chain8">
   <property name="kdenlive:id">6</property>
   <filter id="filter121">
    <property name="mlt_service">ladspa.9354877</property>
    <property name="kdenlive_id">ladspa.9354877</property>
    <property name="2">49</property>
    <property name="3">500</property>
    <property name="4">0</property>
   </filter>
  </entry>
  <entry in="00:00:23.200" out="00:00:28.160" producer="chain8">
   <property name="kdenlive:id">6</property>
   <filter id="filter122">
    <property name="mlt_service">ladspa.9354877</property>
    <property name="kdenlive_id">ladspa.9354877</property>
    <property name="2">49</property>
    <property name="3">500</property>
    <property name="4">0</property>
   </filter>
  </entry>
  <entry in="00:00:41.960" out="00:00:51.800" producer="chain8">
   <property name="kdenlive:id">6</property>
   <filter id="filter123">
    <property name="mlt_service">ladspa.9354877</property>
    <property name="kdenlive_id">ladspa.9354877</property>
    <property name="2">49</property>
    <property name="3">500</property>
    <property name="4">0</property>
   </filter>
  </entry>
  <entry in="00:00:52.400" out="00:00:54.480" producer="chain8">
   <property name="kdenlive:id">6</property>
   <filter id="filter124">
    <property name="mlt_service">ladspa.9354877</property>
    <property name="kdenlive_id">ladspa.9354877</property>
    <property name="2">49</property>
    <property name="3">500</property>
    <property name="4">0</property>
   </filter>
  </entry>
  <entry in="00:00:55.120" out="00:00:57.040" producer="chain8">
   <property name="kdenlive:id">6</property>
   <filter id="filter125">
    <property name="mlt_service">ladspa.9354877</property>
    <property name="kdenlive_id">ladspa.9354877</property>
    <property name="2">49</property>
    <property name="3">500</property>
    <property name="4">0</property>
   </filter>
  </entry>
  <entry in="00:00:57.640" out="00:01:01.600" producer="chain8">
   <property name="kdenlive:id">6</property>
   <filter id="filter126">
    <property name="mlt_service">ladspa.9354877</property>
    <property name="kdenlive_id">ladspa.9354877</property>
    <property name="2">49</property>
    <property name="3">500</property>
    <property name="4">0</property>
   </filter>
  </entry>
  <entry in="00:01:01.800" out="00:01:04.520" producer="chain8">
   <property name="kdenlive:id">6</property>
   <filter id="filter127">
    <property name="mlt_service">ladspa.9354877</property>
    <property name="kdenlive_id">ladspa.9354877</property>
    <property name="2">49</property>
    <property name="3">500</property>
    <property name="4">0</property>
   </filter>
  </entry>
  <entry in="00:01:05.320" out="00:01:05.840" producer="chain8">
   <property name="kdenlive:id">6</property>
   <filter id="filter128">
    <property name="mlt_service">ladspa.9354877</property>
    <property name="kdenlive_id">ladspa.9354877</property>
    <property name="2">49</property>
    <property name="3">500</property>
    <property name="4">0</property>
   </filter>
  </entry>
  <entry in="00:01:06.040" out="00:01:10.400" producer="chain8">
   <property name="kdenlive:id">6</property>
   <filter id="filter129">
    <property name="mlt_service">ladspa.9354877</property>
    <property name="kdenlive_id">ladspa.9354877</property>
    <property name="2">49</property>
    <property name="3">500</property>
    <property name="4">0</property>
   </filter>
  </entry>
  <entry in="00:01:12.240" out="00:01:14.720" producer="chain8">
   <property name="kdenlive:id">6</property>
   <filter id="filter130">
    <property name="mlt_service">ladspa.9354877</property>
    <property name="kdenlive_id">ladspa.9354877</property>
    <property name="2">49</property>
    <property name="3">500</property>
    <property name="4">0</property>
   </filter>
  </entry>
  <entry in="00:01:15.200" out="00:01:17.160" producer="chain8">
   <property name="kdenlive:id">6</property>
   <filter id="filter131">
    <property name="mlt_service">ladspa.9354877</property>
    <property name="kdenlive_id">ladspa.9354877</property>
    <property name="2">49</property>
    <property name="3">500</property>
    <property name="4">0</property>
   </filter>
  </entry>
  <entry in="00:01:17.200" out="00:01:17.280" producer="chain8">
   <property name="kdenlive:id">6</property>
   <filter id="filter132">
    <property name="mlt_service">ladspa.9354877</property>
    <property name="kdenlive_id">ladspa.9354877</property>
    <property name="2">49</property>
    <property name="3">500</property>
    <property name="4">0</property>
   </filter>
  </entry>
  <entry in="00:01:17.200" out="00:01:17.280" producer="chain8">
   <property name="kdenlive:id">6</property>
   <filter id="filter133">
    <property name="mlt_service">ladspa.9354877</property>
    <property name="kdenlive_id">ladspa.9354877</property>
    <property name="2">49</property>
    <property name="3">500</property>
    <property name="4">0</property>
   </filter>
  </entry>
  <entry in="00:01:26.440" out="00:01:32.680" producer="chain8">
   <property name="kdenlive:id">6</property>
   <filter id="filter134">
    <property name="mlt_service">ladspa.9354877</property>
    <property name="kdenlive_id">ladspa.9354877</property>
    <property name="2">49</property>
    <property name="3">500</property>
    <property name="4">0</property>
   </filter>
  </entry>
  <entry in="00:01:41.160" out="00:01:43.360" producer="chain8">
   <property name="kdenlive:id">6</property>
   <filter id="filter135">
    <property name="mlt_service">ladspa.9354877</property>
    <property name="kdenlive_id">ladspa.9354877</property>
    <property name="2">49</property>
    <property name="3">500</property>
    <property name="4">0</property>
   </filter>
  </entry>
  <blank length="00:00:00.040"/>
  <entry in="00:01:43.800" out="00:01:46.120" producer="chain8">
   <property name="kdenlive:id">6</property>
   <filter id="filter136">
    <property name="mlt_service">ladspa.9354877</property>
    <property name="kdenlive_id">ladspa.9354877</property>
    <property name="2">49</property>
    <property name="3">500</property>
    <property name="4">0</property>
   </filter>
  </entry>
  <entry in="00:01:46.520" out="00:01:47.640" producer="chain8">
   <property name="kdenlive:id">6</property>
   <filter id="filter137">
    <property name="mlt_service">ladspa.9354877</property>
    <property name="kdenlive_id">ladspa.9354877</property>
    <property name="2">49</property>
    <property name="3">500</property>
    <property name="4">0</property>
   </filter>
  </entry>
  <entry in="00:01:50.800" out="00:01:51.440" producer="chain8">
   <property name="kdenlive:id">6</property>
   <filter id="filter138">
    <property name="mlt_service">ladspa.9354877</property>
    <property name="kdenlive_id">ladspa.9354877</property>
    <property name="2">49</property>
    <property name="3">500</property>
    <property name="4">0</property>
   </filter>
  </entry>
  <entry in="00:01:54.120" out="00:02:12.640" producer="chain8">
   <property name="kdenlive:id">6</property>
   <filter id="filter139">
    <property name="mlt_service">ladspa.9354877</property>
    <property name="kdenlive_id">ladspa.9354877</property>
    <property name="2">49</property>
    <property name="3">500</property>
    <property name="4">0</property>
   </filter>
  </entry>
  <entry in="00:02:29.760" out="00:02:33.160" producer="chain8">
   <property name="kdenlive:id">6</property>
   <filter id="filter140">
    <property name="mlt_service">ladspa.9354877</property>
    <property name="kdenlive_id">ladspa.9354877</property>
    <property name="2">49</property>
    <property name="3">500</property>
    <property name="4">0</property>
   </filter>
  </entry>
  <entry in="00:02:33.600" out="00:02:35.560" producer="chain8">
   <property name="kdenlive:id">6</property>
   <filter id="filter141">
    <property name="mlt_service">ladspa.9354877</property>
    <property name="kdenlive_id">ladspa.9354877</property>
    <property name="2">49</property>
    <property name="3">500</property>
    <property name="4">0</property>
   </filter>
  </entry>
  <entry in="00:02:36.400" out="00:02:37.040" producer="chain8">
   <property name="kdenlive:id">6</property>
   <filter id="filter142">
    <property name="mlt_service">ladspa.9354877</property>
    <property name="kdenlive_id">ladspa.9354877</property>
    <property name="2">49</property>
    <property name="3">500</property>
    <property name="4">0</property>
   </filter>
  </entry>
  <entry in="00:02:38.560" out="00:02:43.320" producer="chain8">
   <property name="kdenlive:id">6</property>
   <filter id="filter143">
    <property name="mlt_service">ladspa.9354877</property>
    <property name="kdenlive_id">ladspa.9354877</property>
    <property name="2">49</property>
    <property name="3">500</property>
    <property name="4">0</property>
   </filter>
  </entry>
  <entry in="00:02:45.520" out="00:02:47.560" producer="chain8">
   <property name="kdenlive:id">6</property>
   <filter id="filter144">
    <property name="mlt_service">ladspa.9354877</property>
    <property name="kdenlive_id">ladspa.9354877</property>
    <property name="2">49</property>
    <property name="3">500</property>
    <property name="4">0</property>
   </filter>
  </entry>
  <entry in="00:02:47.600" out="00:02:53.240" producer="chain8">
   <property name="kdenlive:id">6</property>
   <filter id="filter145">
    <property name="mlt_service">ladspa.9354877</property>
    <property name="kdenlive_id">ladspa.9354877</property>
    <property name="2">49</property>
    <property name="3">500</property>
    <property name="4">0</property>
   </filter>
  </entry>
  <entry in="00:03:24.000" out="00:03:25.680" producer="chain8">
   <property name="kdenlive:id">6</property>
   <filter id="filter146">
    <property name="mlt_service">ladspa.9354877</property>
    <property name="kdenlive_id">ladspa.9354877</property>
    <property name="2">49</property>
    <property name="3">500</property>
    <property name="4">0</property>
   </filter>
  </entry>
  <entry in="00:03:26.080" out="00:03:26.960" producer="chain8">
   <property name="kdenlive:id">6</property>
   <filter id="filter147">
    <property name="mlt_service">ladspa.9354877</property>
    <property name="kdenlive_id">ladspa.9354877</property>
    <property name="2">49</property>
    <property name="3">500</property>
    <property name="4">0</property>
   </filter>
  </entry>
  <entry in="00:03:27.160" out="00:03:27.640" producer="chain8">
   <property name="kdenlive:id">6</property>
   <filter id="filter148">
    <property name="mlt_service">ladspa.9354877</property>
    <property name="kdenlive_id">ladspa.9354877</property>
    <property name="2">49</property>
    <property name="3">500</property>
    <property name="4">0</property>
   </filter>
  </entry>
  <entry in="00:03:27.800" out="00:03:29.120" producer="chain8">
   <property name="kdenlive:id">6</property>
   <filter id="filter149">
    <property name="mlt_service">ladspa.9354877</property>
    <property name="kdenlive_id">ladspa.9354877</property>
    <property name="2">49</property>
    <property name="3">500</property>
    <property name="4">0</property>
   </filter>
  </entry>
  <entry in="00:03:29.640" out="00:03:31.480" producer="chain8">
   <property name="kdenlive:id">6</property>
   <filter id="filter150">
    <property name="mlt_service">ladspa.9354877</property>
    <property name="kdenlive_id">ladspa.9354877</property>
    <property name="2">49</property>
    <property name="3">500</property>
    <property name="4">0</property>
   </filter>
  </entry>
  <entry in="00:03:31.960" out="00:03:33.160" producer="chain8">
   <property name="kdenlive:id">6</property>
   <filter id="filter151">
    <property name="mlt_service">ladspa.9354877</property>
    <property name="kdenlive_id">ladspa.9354877</property>
    <property name="2">49</property>
    <property name="3">500</property>
    <property name="4">0</property>
   </filter>
  </entry>
  <entry in="00:03:33.880" out="00:03:34.440" producer="chain8">
   <property name="kdenlive:id">6</property>
   <filter id="filter152">
    <property name="mlt_service">ladspa.9354877</property>
    <property name="kdenlive_id">ladspa.9354877</property>
    <property name="2">49</property>
    <property name="3">500</property>
    <property name="4">0</property>
   </filter>
  </entry>
  <entry in="00:03:34.600" out="00:03:35.600" producer="chain8">
   <property name="kdenlive:id">6</property>
   <filter id="filter153">
    <property name="mlt_service">ladspa.9354877</property>
    <property name="kdenlive_id">ladspa.9354877</property>
    <property name="2">49</property>
    <property name="3">500</property>
    <property name="4">0</property>
   </filter>
  </entry>
  <entry in="00:03:36.000" out="00:03:36.280" producer="chain8">
   <property name="kdenlive:id">6</property>
   <filter id="filter154">
    <property name="mlt_service">ladspa.9354877</property>
    <property name="kdenlive_id">ladspa.9354877</property>
    <property name="2">49</property>
    <property name="3">500</property>
    <property name="4">0</property>
   </filter>
  </entry>
  <entry in="00:03:36.720" out="00:03:38.240" producer="chain8">
   <property name="kdenlive:id">6</property>
   <filter id="filter155">
    <property name="mlt_service">ladspa.9354877</property>
    <property name="kdenlive_id">ladspa.9354877</property>
    <property name="2">49</property>
    <property name="3">500</property>
    <property name="4">0</property>
   </filter>
  </entry>
  <entry in="00:03:41.360" out="00:03:43.280" producer="chain8">
   <property name="kdenlive:id">6</property>
   <filter id="filter156">
    <property name="mlt_service">ladspa.9354877</property>
    <property name="kdenlive_id">ladspa.9354877</property>
    <property name="2">49</property>
    <property name="3">500</property>
    <property name="4">0</property>
   </filter>
  </entry>
  <entry in="00:03:43.680" out="00:03:45.760" producer="chain8">
   <property name="kdenlive:id">6</property>
   <filter id="filter157">
    <property name="mlt_service">ladspa.9354877</property>
    <property name="kdenlive_id">ladspa.9354877</property>
    <property name="2">49</property>
    <property name="3">500</property>
    <property name="4">0</property>
   </filter>
  </entry>
  <entry in="00:03:47.040" out="00:03:51.960" producer="chain8">
   <property name="kdenlive:id">6</property>
   <filter id="filter158">
    <property name="mlt_service">ladspa.9354877</property>
    <property name="kdenlive_id">ladspa.9354877</property>
    <property name="2">49</property>
    <property name="3">500</property>
    <property name="4">0</property>
   </filter>
  </entry>
  <entry in="00:03:52.400" out="00:03:53.480" producer="chain8">
   <property name="kdenlive:id">6</property>
   <filter id="filter159">
    <property name="mlt_service">ladspa.9354877</property>
    <property name="kdenlive_id">ladspa.9354877</property>
    <property name="2">49</property>
    <property name="3">500</property>
    <property name="4">0</property>
   </filter>
  </entry>
  <entry in="00:03:54.880" out="00:03:55.480" producer="chain8">
   <property name="kdenlive:id">6</property>
   <filter id="filter160">
    <property name="mlt_service">ladspa.9354877</property>
    <property name="kdenlive_id">ladspa.9354877</property>
    <property name="2">49</property>
    <property name="3">500</property>
    <property name="4">0</property>
   </filter>
  </entry>
  <entry in="00:03:55.760" out="00:03:59.440" producer="chain8">
   <property name="kdenlive:id">6</property>
   <filter id="filter161">
    <property name="mlt_service">ladspa.9354877</property>
    <property name="kdenlive_id">ladspa.9354877</property>
    <property name="2">49</property>
    <property name="3">500</property>
    <property name="4">0</property>
   </filter>
  </entry>
  <entry in="00:04:00.000" out="00:04:02.720" producer="chain8">
   <property name="kdenlive:id">6</property>
   <filter id="filter162">
    <property name="mlt_service">ladspa.9354877</property>
    <property name="kdenlive_id">ladspa.9354877</property>
    <property name="2">49</property>
    <property name="3">500</property>
    <property name="4">0</property>
   </filter>
  </entry>
  <entry in="00:04:21.040" out="00:04:27.200" producer="chain8">
   <property name="kdenlive:id">6</property>
   <filter id="filter163">
    <property name="mlt_service">ladspa.9354877</property>
    <property name="kdenlive_id">ladspa.9354877</property>
    <property name="2">49</property>
    <property name="3">500</property>
    <property name="4">0</property>
   </filter>
  </entry>
  <entry in="00:04:27.880" out="00:04:30.640" producer="chain8">
   <property name="kdenlive:id">6</property>
   <filter id="filter164">
    <property name="mlt_service">ladspa.9354877</property>
    <property name="kdenlive_id">ladspa.9354877</property>
    <property name="2">49</property>
    <property name="3">500</property>
    <property name="4">0</property>
   </filter>
  </entry>
  <entry in="00:04:31.120" out="00:04:31.760" producer="chain8">
   <property name="kdenlive:id">6</property>
   <filter id="filter165">
    <property name="mlt_service">ladspa.9354877</property>
    <property name="kdenlive_id">ladspa.9354877</property>
    <property name="2">49</property>
    <property name="3">500</property>
    <property name="4">0</property>
   </filter>
  </entry>
  <entry in="00:04:32.760" out="00:04:34.520" producer="chain8">
   <property name="kdenlive:id">6</property>
   <filter id="filter166">
    <property name="mlt_service">ladspa.9354877</property>
    <property name="kdenlive_id">ladspa.9354877</property>
    <property name="2">49</property>
    <property name="3">500</property>
    <property name="4">0</property>
   </filter>
  </entry>
  <entry in="00:04:34.840" out="00:04:36.800" producer="chain8">
   <property name="kdenlive:id">6</property>
   <filter id="filter167">
    <property name="mlt_service">ladspa.9354877</property>
    <property name="kdenlive_id">ladspa.9354877</property>
    <property name="2">49</property>
    <property name="3">500</property>
    <property name="4">0</property>
   </filter>
  </entry>
  <entry in="00:04:37.080" out="00:04:38.640" producer="chain8">
   <property name="kdenlive:id">6</property>
   <filter id="filter168">
    <property name="mlt_service">ladspa.9354877</property>
    <property name="kdenlive_id">ladspa.9354877</property>
    <property name="2">49</property>
    <property name="3">500</property>
    <property name="4">0</property>
   </filter>
  </entry>
  <entry in="00:04:40.000" out="00:04:45.360" producer="chain8">
   <property name="kdenlive:id">6</property>
   <filter id="filter169">
    <property name="mlt_service">ladspa.9354877</property>
    <property name="kdenlive_id">ladspa.9354877</property>
    <property name="2">49</property>
    <property name="3">500</property>
    <property name="4">0</property>
   </filter>
  </entry>
  <entry in="00:04:46.160" out="00:04:50.040" producer="chain8">
   <property name="kdenlive:id">6</property>
   <filter id="filter170">
    <property name="mlt_service">ladspa.9354877</property>
    <property name="kdenlive_id">ladspa.9354877</property>
    <property name="2">49</property>
    <property name="3">500</property>
    <property name="4">0</property>
   </filter>
  </entry>
  <entry in="00:04:50.320" out="00:04:51.400" producer="chain8">
   <property name="kdenlive:id">6</property>
   <filter id="filter171">
    <property name="mlt_service">ladspa.9354877</property>
    <property name="kdenlive_id">ladspa.9354877</property>
    <property name="2">49</property>
    <property name="3">500</property>
    <property name="4">0</property>
   </filter>
  </entry>
  <entry in="00:04:54.840" out="00:04:56.080" producer="chain8">
   <property name="kdenlive:id">6</property>
   <filter id="filter172">
    <property name="mlt_service">ladspa.9354877</property>
    <property name="kdenlive_id">ladspa.9354877</property>
    <property name="2">49</property>
    <property name="3">500</property>
    <property name="4">0</property>
   </filter>
  </entry>
  <entry in="00:05:01.040" out="00:05:05.560" producer="chain8">
   <property name="kdenlive:id">6</property>
   <filter id="filter173">
    <property name="mlt_service">ladspa.9354877</property>
    <property name="kdenlive_id">ladspa.9354877</property>
    <property name="2">49</property>
    <property name="3">500</property>
    <property name="4">0</property>
   </filter>
  </entry>
  <entry in="00:06:35.160" out="00:06:43.280" producer="chain8">
   <property name="kdenlive:id">6</property>
   <filter id="filter174">
    <property name="mlt_service">ladspa.9354877</property>
    <property name="kdenlive_id">ladspa.9354877</property>
    <property name="2">49</property>
    <property name="3">500</property>
    <property name="4">0</property>
    <property name="kdenlive:collapsed">0</property>
   </filter>
  </entry>
  <entry in="00:06:46.520" out="00:06:47.120" producer="chain8">
   <property name="kdenlive:id">6</property>
   <filter id="filter175">
    <property name="mlt_service">ladspa.9354877</property>
    <property name="kdenlive_id">ladspa.9354877</property>
    <property name="2">49</property>
    <property name="3">500</property>
    <property name="4">0</property>
    <property name="kdenlive:collapsed">0</property>
   </filter>
  </entry>
  <entry in="00:06:48.480" out="00:06:51.320" producer="chain8">
   <property name="kdenlive:id">6</property>
   <filter id="filter176">
    <property name="mlt_service">ladspa.9354877</property>
    <property name="kdenlive_id">ladspa.9354877</property>
    <property name="2">49</property>
    <property name="3">500</property>
    <property name="4">0</property>
    <property name="kdenlive:collapsed">0</property>
   </filter>
  </entry>
  <entry in="00:06:51.760" out="00:06:59.560" producer="chain8">
   <property name="kdenlive:id">6</property>
   <filter id="filter177">
    <property name="mlt_service">ladspa.9354877</property>
    <property name="kdenlive_id">ladspa.9354877</property>
    <property name="2">49</property>
    <property name="3">500</property>
    <property name="4">0</property>
    <property name="kdenlive:collapsed">0</property>
   </filter>
  </entry>
  <entry in="00:07:01.960" out="00:07:17.760" producer="chain8">
   <property name="kdenlive:id">6</property>
   <filter id="filter178">
    <property name="mlt_service">ladspa.9354877</property>
    <property name="kdenlive_id">ladspa.9354877</property>
    <property name="2">49</property>
    <property name="3">500</property>
    <property name="4">0</property>
    <property name="kdenlive:collapsed">0</property>
   </filter>
  </entry>
  <entry in="00:07:18.440" out="00:07:20.200" producer="chain8">
   <property name="kdenlive:id">6</property>
   <filter id="filter179">
    <property name="mlt_service">ladspa.9354877</property>
    <property name="kdenlive_id">ladspa.9354877</property>
    <property name="2">49</property>
    <property name="3">500</property>
    <property name="4">0</property>
    <property name="kdenlive:collapsed">0</property>
   </filter>
  </entry>
  <entry in="00:07:25.440" out="00:07:31.320" producer="chain8">
   <property name="kdenlive:id">6</property>
   <filter id="filter180">
    <property name="mlt_service">ladspa.9354877</property>
    <property name="kdenlive_id">ladspa.9354877</property>
    <property name="2">49</property>
    <property name="3">500</property>
    <property name="4">0</property>
    <property name="kdenlive:collapsed">0</property>
   </filter>
  </entry>
  <entry in="00:07:37.120" out="00:07:39.560" producer="chain8">
   <property name="kdenlive:id">6</property>
   <filter id="filter181">
    <property name="mlt_service">ladspa.9354877</property>
    <property name="kdenlive_id">ladspa.9354877</property>
    <property name="2">49</property>
    <property name="3">500</property>
    <property name="4">0</property>
    <property name="kdenlive:collapsed">0</property>
   </filter>
  </entry>
  <entry in="00:08:24.800" out="00:08:26.920" producer="chain8">
   <property name="kdenlive:id">6</property>
   <filter id="filter182">
    <property name="mlt_service">ladspa.9354877</property>
    <property name="kdenlive_id">ladspa.9354877</property>
    <property name="2">49</property>
    <property name="3">500</property>
    <property name="4">0</property>
    <property name="kdenlive:collapsed">0</property>
   </filter>
  </entry>
  <entry in="00:08:27.400" out="00:08:28.960" producer="chain8">
   <property name="kdenlive:id">6</property>
   <filter id="filter183">
    <property name="mlt_service">ladspa.9354877</property>
    <property name="kdenlive_id">ladspa.9354877</property>
    <property name="2">49</property>
    <property name="3">500</property>
    <property name="4">0</property>
    <property name="kdenlive:collapsed">0</property>
   </filter>
  </entry>
  <entry in="00:00:01.960" out="00:00:06.560" producer="chain9">
   <property name="kdenlive:id">7</property>
   <filter id="filter184">
    <property name="mlt_service">ladspa.9354877</property>
    <property name="kdenlive_id">ladspa.9354877</property>
    <property name="2">49</property>
    <property name="3">500</property>
    <property name="4">0</property>
   </filter>
  </entry>
  <entry in="00:00:06.600" out="00:00:09.040" producer="chain9">
   <property name="kdenlive:id">7</property>
   <filter id="filter185">
    <property name="mlt_service">ladspa.9354877</property>
    <property name="kdenlive_id">ladspa.9354877</property>
    <property name="2">49</property>
    <property name="3">500</property>
    <property name="4">0</property>
   </filter>
  </entry>
  <entry in="00:00:09.080" out="00:00:10.200" producer="chain9">
   <property name="kdenlive:id">7</property>
   <filter id="filter186">
    <property name="mlt_service">ladspa.9354877</property>
    <property name="kdenlive_id">ladspa.9354877</property>
    <property name="2">49</property>
    <property name="3">500</property>
    <property name="4">0</property>
   </filter>
  </entry>
  <entry in="00:00:12.440" out="00:00:15.240" producer="chain9">
   <property name="kdenlive:id">7</property>
   <filter id="filter187">
    <property name="mlt_service">ladspa.9354877</property>
    <property name="kdenlive_id">ladspa.9354877</property>
    <property name="2">49</property>
    <property name="3">500</property>
    <property name="4">0</property>
   </filter>
  </entry>
  <entry in="00:00:16.480" out="00:00:23.440" producer="chain9">
   <property name="kdenlive:id">7</property>
   <filter id="filter188">
    <property name="mlt_service">ladspa.9354877</property>
    <property name="kdenlive_id">ladspa.9354877</property>
    <property name="2">49</property>
    <property name="3">500</property>
    <property name="4">0</property>
   </filter>
  </entry>
  <entry in="00:00:23.760" out="00:00:24.840" producer="chain9">
   <property name="kdenlive:id">7</property>
   <filter id="filter189">
    <property name="mlt_service">ladspa.9354877</property>
    <property name="kdenlive_id">ladspa.9354877</property>
    <property name="2">49</property>
    <property name="3">500</property>
    <property name="4">0</property>
   </filter>
  </entry>
  <entry in="00:00:25.120" out="00:00:27.760" producer="chain9">
   <property name="kdenlive:id">7</property>
   <filter id="filter190">
    <property name="mlt_service">ladspa.9354877</property>
    <property name="kdenlive_id">ladspa.9354877</property>
    <property name="2">49</property>
    <property name="3">500</property>
    <property name="4">0</property>
   </filter>
  </entry>
  <entry in="00:00:28.160" out="00:00:30.960" producer="chain9">
   <property name="kdenlive:id">7</property>
   <filter id="filter191">
    <property name="mlt_service">ladspa.9354877</property>
    <property name="kdenlive_id">ladspa.9354877</property>
    <property name="2">49</property>
    <property name="3">500</property>
    <property name="4">0</property>
   </filter>
  </entry>
  <entry in="00:00:31.520" out="00:00:33.240" producer="chain9">
   <property name="kdenlive:id">7</property>
   <filter id="filter192">
    <property name="mlt_service">ladspa.9354877</property>
    <property name="kdenlive_id">ladspa.9354877</property>
    <property name="2">49</property>
    <property name="3">500</property>
    <property name="4">0</property>
   </filter>
  </entry>
  <entry in="00:00:48.440" out="00:00:54.240" producer="chain9">
   <property name="kdenlive:id">7</property>
   <filter id="filter193">
    <property name="mlt_service">ladspa.9354877</property>
    <property name="kdenlive_id">ladspa.9354877</property>
    <property name="2">49</property>
    <property name="3">500</property>
    <property name="4">0</property>
   </filter>
  </entry>
  <entry in="00:00:58.000" out="00:01:01.640" producer="chain9">
   <property name="kdenlive:id">7</property>
   <filter id="filter194">
    <property name="mlt_service">ladspa.9354877</property>
    <property name="kdenlive_id">ladspa.9354877</property>
    <property name="2">49</property>
    <property name="3">500</property>
    <property name="4">0</property>
   </filter>
  </entry>
  <entry in="00:01:03.000" out="00:01:03.760" producer="chain9">
   <property name="kdenlive:id">7</property>
   <filter id="filter195">
    <property name="mlt_service">ladspa.9354877</property>
    <property name="kdenlive_id">ladspa.9354877</property>
    <property name="2">49</property>
    <property name="3">500</property>
    <property name="4">0</property>
   </filter>
  </entry>
  <entry in="00:01:05.280" out="00:01:17.800" producer="chain9">
   <property name="kdenlive:id">7</property>
   <filter id="filter196">
    <property name="mlt_service">ladspa.9354877</property>
    <property name="kdenlive_id">ladspa.9354877</property>
    <property name="2">49</property>
    <property name="3">500</property>
    <property name="4">0</property>
   </filter>
  </entry>
  <entry in="00:01:19.040" out="00:01:20.800" producer="chain9">
   <property name="kdenlive:id">7</property>
   <filter id="filter197">
    <property name="mlt_service">ladspa.9354877</property>
    <property name="kdenlive_id">ladspa.9354877</property>
    <property name="2">49</property>
    <property name="3">500</property>
    <property name="4">0</property>
   </filter>
  </entry>
  <entry in="00:01:21.640" out="00:01:23.120" producer="chain9">
   <property name="kdenlive:id">7</property>
   <filter id="filter198">
    <property name="mlt_service">ladspa.9354877</property>
    <property name="kdenlive_id">ladspa.9354877</property>
    <property name="2">49</property>
    <property name="3">500</property>
    <property name="4">0</property>
   </filter>
  </entry>
  <entry in="00:01:23.720" out="00:01:24.320" producer="chain9">
   <property name="kdenlive:id">7</property>
   <filter id="filter199">
    <property name="mlt_service">ladspa.9354877</property>
    <property name="kdenlive_id">ladspa.9354877</property>
    <property name="2">49</property>
    <property name="3">500</property>
    <property name="4">0</property>
   </filter>
  </entry>
  <entry in="00:01:25.200" out="00:01:25.920" producer="chain9">
   <property name="kdenlive:id">7</property>
   <filter id="filter200">
    <property name="mlt_service">ladspa.9354877</property>
    <property name="kdenlive_id">ladspa.9354877</property>
    <property name="2">49</property>
    <property name="3">500</property>
    <property name="4">0</property>
   </filter>
  </entry>
  <entry in="00:01:26.840" out="00:01:30.640" producer="chain9">
   <property name="kdenlive:id">7</property>
   <filter id="filter201">
    <property name="mlt_service">ladspa.9354877</property>
    <property name="kdenlive_id">ladspa.9354877</property>
    <property name="2">49</property>
    <property name="3">500</property>
    <property name="4">0</property>
   </filter>
  </entry>
  <entry in="00:01:36.080" out="00:01:37.720" producer="chain9">
   <property name="kdenlive:id">7</property>
   <filter id="filter202">
    <property name="mlt_service">ladspa.9354877</property>
    <property name="kdenlive_id">ladspa.9354877</property>
    <property name="2">49</property>
    <property name="3">500</property>
    <property name="4">0</property>
   </filter>
  </entry>
  <entry in="00:01:40.280" out="00:01:41.040" producer="chain9">
   <property name="kdenlive:id">7</property>
   <filter id="filter203">
    <property name="mlt_service">ladspa.9354877</property>
    <property name="kdenlive_id">ladspa.9354877</property>
    <property name="2">49</property>
    <property name="3">500</property>
    <property name="4">0</property>
   </filter>
  </entry>
  <entry in="00:01:42.280" out="00:01:44.000" producer="chain9">
   <property name="kdenlive:id">7</property>
   <filter id="filter204">
    <property name="mlt_service">ladspa.9354877</property>
    <property name="kdenlive_id">ladspa.9354877</property>
    <property name="2">49</property>
    <property name="3">500</property>
    <property name="4">0</property>
   </filter>
  </entry>
  <entry in="00:01:44.920" out="00:01:53.680" producer="chain9">
   <property name="kdenlive:id">7</property>
   <filter id="filter205">
    <property name="mlt_service">ladspa.9354877</property>
    <property name="kdenlive_id">ladspa.9354877</property>
    <property name="2">49</property>
    <property name="3">500</property>
    <property name="4">0</property>
   </filter>
  </entry>
  <entry in="00:01:54.040" out="00:02:06.280" producer="chain9">
   <property name="kdenlive:id">7</property>
   <filter id="filter206">
    <property name="mlt_service">ladspa.9354877</property>
    <property name="kdenlive_id">ladspa.9354877</property>
    <property name="2">49</property>
    <property name="3">500</property>
    <property name="4">0</property>
   </filter>
  </entry>
  <entry in="00:02:08.720" out="00:18:50.320" producer="chain9">
   <property name="kdenlive:id">7</property>
   <filter id="filter207">
    <property name="mlt_service">ladspa.9354877</property>
    <property name="kdenlive_id">ladspa.9354877</property>
    <property name="2">49</property>
    <property name="3">500</property>
    <property name="4">0</property>
   </filter>
  </entry>
 </playlist>
 <playlist id="playlist3">
  <property name="kdenlive:audio_track">1</property>
 </playlist>
 <tractor id="tractor1" in="00:00:00.000" out="00:26:25.040">
  <property name="kdenlive:audio_track">1</property>
  <property name="kdenlive:trackheight">72</property>
  <property name="kdenlive:timeline_active">1</property>
  <property name="kdenlive:collapsed">28</property>
  <property name="kdenlive:thumbs_format"/>
  <property name="kdenlive:audio_rec"/>
  <track hide="both" producer="playlist2"/>
  <track hide="both" producer="playlist3"/>
  <filter id="filter208">
   <property name="window">75</property>
   <property name="max_gain">20dB</property>
   <property name="level">6.92321</property>
   <property name="mlt_service">volume</property>
   <property name="internal_added">237</property>
   <property name="disable">0</property>
  </filter>
  <filter id="filter209">
   <property name="channel">-1</property>
   <property name="mlt_service">panner</property>
   <property name="internal_added">237</property>
   <property name="start">0.5</property>
   <property name="disable">1</property>
  </filter>
  <filter id="filter210">
   <property name="iec_scale">0</property>
   <property name="mlt_service">audiolevel</property>
   <property name="dbpeak">1</property>
   <property name="disable">1</property>
  </filter>
 </tractor>
 <chain id="chain10" out="00:09:55.920">
  <property name="length">14899</property>
  <property name="eof">pause</property>
  <property name="resource">Assets/Videos/raw/Loops_1.mkv</property>
  <property name="mlt_service">avformat-novalidate</property>
  <property name="seekable">1</property>
  <property name="format">3</property>
  <property name="audio_index">1</property>
  <property name="video_index">0</property>
  <property name="vstream">0</property>
  <property name="astream">0</property>
  <property name="kdenlive:folderid">-1</property>
  <property name="kdenlive:id">4</property>
  <property name="kdenlive:control_uuid">{ad6f90a7-227c-4e47-9ac4-cfcbb9dca6b7}</property>
  <property name="mute_on_pause">0</property>
  <property name="kdenlive:clip_type">0</property>
  <property name="kdenlive:file_size">25409101</property>
  <property name="kdenlive:file_hash">0733de0895b747414e12665fd9328d92</property>
  <property name="meta.media.nb_streams">2</property>
  <property name="meta.media.0.stream.type">video</property>
  <property name="meta.media.0.stream.frame_rate">60</property>
  <property name="meta.media.0.stream.sample_aspect_ratio">0</property>
  <property name="meta.media.0.codec.width">1920</property>
  <property name="meta.media.0.codec.height">1080</property>
  <property name="meta.media.0.codec.rotate">0</property>
  <property name="meta.media.0.codec.pix_fmt">yuv420p</property>
  <property name="meta.media.0.codec.sample_aspect_ratio">1</property>
  <property name="meta.media.0.codec.colorspace">709</property>
  <property name="meta.media.0.codec.color_trc">1</property>
  <property name="meta.media.0.codec.name">h264</property>
  <property name="meta.media.0.codec.long_name">H.264 / AVC / MPEG-4 AVC / MPEG-4 part 10</property>
  <property name="meta.media.0.codec.bit_rate">0</property>
  <property name="meta.attr.0.stream.DURATION.markup">00:09:55.950000000</property>
  <property name="meta.media.1.stream.type">audio</property>
  <property name="meta.media.1.codec.sample_fmt">fltp</property>
  <property name="meta.media.1.codec.sample_rate">48000</property>
  <property name="meta.media.1.codec.channels">2</property>
  <property name="meta.media.1.codec.layout">stereo</property>
  <property name="meta.media.1.codec.name">aac</property>
  <property name="meta.media.1.codec.long_name">AAC (Advanced Audio Coding)</property>
  <property name="meta.media.1.codec.bit_rate">0</property>
  <property name="meta.attr.1.stream.title.markup">simple_aac_recording0</property>
  <property name="meta.attr.1.stream.DURATION.markup">00:09:55.904000000</property>
  <property name="meta.attr.ENCODER.markup">Lavf60.16.100</property>
  <property name="meta.media.sample_aspect_num">1</property>
  <property name="meta.media.sample_aspect_den">1</property>
  <property name="meta.media.frame_rate_num">60</property>
  <property name="meta.media.frame_rate_den">1</property>
  <property name="meta.media.colorspace">709</property>
  <property name="meta.media.color_trc">1</property>
  <property name="meta.media.has_b_frames">2</property>
  <property name="meta.media.width">1920</property>
  <property name="meta.media.height">1080</property>
  <property name="meta.media.aspect_ratio">1</property>
  <property name="meta.media.color_range">mpeg</property>
  <property name="xml">was here</property>
  <property name="meta.media.top_field_first">0</property>
  <property name="meta.media.progressive">1</property>
  <property name="set.test_audio">1</property>
  <property name="set.test_image">0</property>
 </chain>
 <chain id="chain11" out="00:09:51.480">
  <property name="length">14788</property>
  <property name="eof">pause</property>
  <property name="resource">Assets/Videos/raw/Loops_2.mkv</property>
  <property name="mlt_service">avformat-novalidate</property>
  <property name="seekable">1</property>
  <property name="audio_index">1</property>
  <property name="video_index">0</property>
  <property name="vstream">0</property>
  <property name="astream">0</property>
  <property name="kdenlive:folderid">-1</property>
  <property name="kdenlive:id">6</property>
  <property name="kdenlive:control_uuid">{ea91381e-cca3-44c5-af65-b1b9d97fef49}</property>
  <property name="mute_on_pause">0</property>
  <property name="kdenlive:clip_type">0</property>
  <property name="kdenlive:file_size">24131387</property>
  <property name="kdenlive:file_hash">1762fd213f26783cae9ab2cbdc90059c</property>
  <property name="kdenlive:monitorPosition">0</property>
  <property name="meta.media.nb_streams">2</property>
  <property name="meta.media.0.stream.type">video</property>
  <property name="meta.media.0.stream.frame_rate">60</property>
  <property name="meta.media.0.stream.sample_aspect_ratio">0</property>
  <property name="meta.media.0.codec.width">1920</property>
  <property name="meta.media.0.codec.height">1080</property>
  <property name="meta.media.0.codec.rotate">0</property>
  <property name="meta.media.0.codec.pix_fmt">yuv420p</property>
  <property name="meta.media.0.codec.sample_aspect_ratio">1</property>
  <property name="meta.media.0.codec.colorspace">709</property>
  <property name="meta.media.0.codec.color_trc">1</property>
  <property name="meta.media.0.codec.name">h264</property>
  <property name="meta.media.0.codec.long_name">H.264 / AVC / MPEG-4 AVC / MPEG-4 part 10</property>
  <property name="meta.media.0.codec.bit_rate">0</property>
  <property name="meta.attr.0.stream.DURATION.markup">00:09:51.534000000</property>
  <property name="meta.media.1.stream.type">audio</property>
  <property name="meta.media.1.codec.sample_fmt">fltp</property>
  <property name="meta.media.1.codec.sample_rate">48000</property>
  <property name="meta.media.1.codec.channels">2</property>
  <property name="meta.media.1.codec.layout">stereo</property>
  <property name="meta.media.1.codec.name">aac</property>
  <property name="meta.media.1.codec.long_name">AAC (Advanced Audio Coding)</property>
  <property name="meta.media.1.codec.bit_rate">0</property>
  <property name="meta.attr.1.stream.title.markup">simple_aac_recording0</property>
  <property name="meta.attr.1.stream.DURATION.markup">00:09:51.488000000</property>
  <property name="meta.attr.ENCODER.markup">Lavf60.16.100</property>
  <property name="meta.media.sample_aspect_num">1</property>
  <property name="meta.media.sample_aspect_den">1</property>
  <property name="meta.media.frame_rate_num">60</property>
  <property name="meta.media.frame_rate_den">1</property>
  <property name="meta.media.colorspace">709</property>
  <property name="meta.media.color_trc">1</property>
  <property name="meta.media.has_b_frames">2</property>
  <property name="meta.media.width">1920</property>
  <property name="meta.media.height">1080</property>
  <property name="meta.media.aspect_ratio">1</property>
  <property name="meta.media.color_range">mpeg</property>
  <property name="xml">was here</property>
  <property name="meta.media.top_field_first">0</property>
  <property name="meta.media.progressive">1</property>
  <property name="set.test_audio">1</property>
  <property name="set.test_image">0</property>
 </chain>
 <chain id="chain12" out="00:18:50.320">
  <property name="length">28259</property>
  <property name="eof">pause</property>
  <property name="resource">Assets/Videos/raw/Loops_3.mkv</property>
  <property name="mlt_service">avformat-novalidate</property>
  <property name="seekable">1</property>
  <property name="audio_index">1</property>
  <property name="video_index">0</property>
  <property name="vstream">0</property>
  <property name="astream">0</property>
  <property name="kdenlive:folderid">-1</property>
  <property name="kdenlive:id">7</property>
  <property name="kdenlive:control_uuid">{3e3872f1-f41d-45ea-ab9d-9c80c7d969a6}</property>
  <property name="mute_on_pause">0</property>
  <property name="kdenlive:clip_type">0</property>
  <property name="kdenlive:file_size">48962920</property>
  <property name="kdenlive:file_hash">321d95344d6eea00f0d46aa16140f6a2</property>
  <property name="meta.media.nb_streams">2</property>
  <property name="meta.media.0.stream.type">video</property>
  <property name="meta.media.0.stream.frame_rate">60</property>
  <property name="meta.media.0.stream.sample_aspect_ratio">0</property>
  <property name="meta.media.0.codec.width">1920</property>
  <property name="meta.media.0.codec.height">1080</property>
  <property name="meta.media.0.codec.rotate">0</property>
  <property name="meta.media.0.codec.pix_fmt">yuv420p</property>
  <property name="meta.media.0.codec.sample_aspect_ratio">1</property>
  <property name="meta.media.0.codec.colorspace">709</property>
  <property name="meta.media.0.codec.color_trc">1</property>
  <property name="meta.media.0.codec.name">h264</property>
  <property name="meta.media.0.codec.long_name">H.264 / AVC / MPEG-4 AVC / MPEG-4 part 10</property>
  <property name="meta.media.0.codec.bit_rate">0</property>
  <property name="meta.attr.0.stream.DURATION.markup">00:18:50.350000000</property>
  <property name="meta.media.1.stream.type">audio</property>
  <property name="meta.media.1.codec.sample_fmt">fltp</property>
  <property name="meta.media.1.codec.sample_rate">48000</property>
  <property name="meta.media.1.codec.channels">2</property>
  <property name="meta.media.1.codec.layout">stereo</property>
  <property name="meta.media.1.codec.name">aac</property>
  <property name="meta.media.1.codec.long_name">AAC (Advanced Audio Coding)</property>
  <property name="meta.media.1.codec.bit_rate">0</property>
  <property name="meta.attr.1.stream.title.markup">simple_aac_recording0</property>
  <property name="meta.attr.1.stream.DURATION.markup">00:18:50.304000000</property>
  <property name="meta.attr.ENCODER.markup">Lavf60.16.100</property>
  <property name="meta.media.sample_aspect_num">1</property>
  <property name="meta.media.sample_aspect_den">1</property>
  <property name="meta.media.frame_rate_num">60</property>
  <property name="meta.media.frame_rate_den">1</property>
  <property name="meta.media.colorspace">709</property>
  <property name="meta.media.color_trc">1</property>
  <property name="meta.media.has_b_frames">2</property>
  <property name="meta.media.width">1920</property>
  <property name="meta.media.height">1080</property>
  <property name="meta.media.aspect_ratio">1</property>
  <property name="meta.media.color_range">mpeg</property>
  <property name="xml">was here</property>
  <property name="meta.media.top_field_first">0</property>
  <property name="meta.media.progressive">1</property>
  <property name="set.test_audio">1</property>
  <property name="set.test_image">0</property>
 </chain>
 <playlist id="playlist4">
  <entry in="00:00:05.680" out="00:00:22.160" producer="chain10">
   <property name="kdenlive:id">4</property>
  </entry>
  <entry in="00:00:25.240" out="00:00:33.680" producer="chain10">
   <property name="kdenlive:id">4</property>
  </entry>
  <entry in="00:00:34.080" out="00:01:01.320" producer="chain10">
   <property name="kdenlive:id">4</property>
  </entry>
  <entry in="00:01:10.920" out="00:02:02.840" producer="chain10">
   <property name="kdenlive:id">4</property>
  </entry>
  <entry in="00:02:11.480" out="00:02:21.920" producer="chain10">
   <property name="kdenlive:id">4</property>
  </entry>
  <entry in="00:02:58.360" out="00:03:04.480" producer="chain10">
   <property name="kdenlive:id">4</property>
  </entry>
  <entry in="00:03:05.440" out="00:03:12.880" producer="chain10">
   <property name="kdenlive:id">4</property>
  </entry>
  <entry in="00:03:14.040" out="00:03:15.000" producer="chain10">
   <property name="kdenlive:id">4</property>
  </entry>
  <entry in="00:03:15.640" out="00:03:16.440" producer="chain10">
   <property name="kdenlive:id">4</property>
  </entry>
  <entry in="00:03:17.320" out="00:03:22.920" producer="chain10">
   <property name="kdenlive:id">4</property>
  </entry>
  <entry in="00:03:41.680" out="00:03:47.920" producer="chain10">
   <property name="kdenlive:id">4</property>
  </entry>
  <entry in="00:03:50.840" out="00:03:51.160" producer="chain10">
   <property name="kdenlive:id">4</property>
  </entry>
  <entry in="00:04:06.080" out="00:04:22.160" producer="chain10">
   <property name="kdenlive:id">4</property>
  </entry>
  <entry in="00:04:24.360" out="00:04:32.400" producer="chain10">
   <property name="kdenlive:id">4</property>
  </entry>
  <entry in="00:04:40.960" out="00:04:55.720" producer="chain10">
   <property name="kdenlive:id">4</property>
  </entry>
  <entry in="00:04:57.800" out="00:05:01.240" producer="chain10">
   <property name="kdenlive:id">4</property>
  </entry>
  <entry in="00:05:01.520" out="00:05:13.960" producer="chain10">
   <property name="kdenlive:id">4</property>
  </entry>
  <entry in="00:05:14.360" out="00:05:16.040" producer="chain10">
   <property name="kdenlive:id">4</property>
  </entry>
  <entry in="00:05:16.000" out="00:05:16.720" producer="chain10">
   <property name="kdenlive:id">4</property>
  </entry>
  <entry in="00:05:18.680" out="00:05:20.640" producer="chain10">
   <property name="kdenlive:id">4</property>
  </entry>
  <entry in="00:05:22.960" out="00:05:23.680" producer="chain10">
   <property name="kdenlive:id">4</property>
  </entry>
  <entry in="00:05:24.640" out="00:05:30.160" producer="chain10">
   <property name="kdenlive:id">4</property>
  </entry>
  <entry in="00:05:30.000" out="00:05:32.720" producer="chain10">
   <property name="kdenlive:id">4</property>
  </entry>
  <entry in="00:05:33.320" out="00:05:37.040" producer="chain10">
   <property name="kdenlive:id">4</property>
  </entry>
  <entry in="00:05:37.920" out="00:05:52.080" producer="chain10">
   <property name="kdenlive:id">4</property>
  </entry>
  <entry in="00:06:04.880" out="00:06:05.440" producer="chain10">
   <property name="kdenlive:id">4</property>
  </entry>
  <entry in="00:06:51.440" out="00:07:03.400" producer="chain10">
   <property name="kdenlive:id">4</property>
  </entry>
  <entry in="00:07:28.120" out="00:07:38.240" producer="chain10">
   <property name="kdenlive:id">4</property>
  </entry>
  <entry in="00:08:06.240" out="00:08:33.920" producer="chain10">
   <property name="kdenlive:id">4</property>
  </entry>
  <entry in="00:09:16.720" out="00:09:31.800" producer="chain10">
   <property name="kdenlive:id">4</property>
  </entry>
  <entry in="00:00:02.120" out="00:00:13.120" producer="chain11">
   <property name="kdenlive:id">6</property>
  </entry>
  <entry in="00:00:23.200" out="00:00:28.160" producer="chain11">
   <property name="kdenlive:id">6</property>
  </entry>
  <entry in="00:00:41.960" out="00:00:51.800" producer="chain11">
   <property name="kdenlive:id">6</property>
  </entry>
  <entry in="00:00:52.400" out="00:00:54.480" producer="chain11">
   <property name="kdenlive:id">6</property>
  </entry>
  <entry in="00:00:55.120" out="00:00:57.040" producer="chain11">
   <property name="kdenlive:id">6</property>
  </entry>
  <entry in="00:00:57.640" out="00:01:01.600" producer="chain11">
   <property name="kdenlive:id">6</property>
  </entry>
  <entry in="00:01:01.800" out="00:01:04.520" producer="chain11">
   <property name="kdenlive:id">6</property>
  </entry>
  <entry in="00:01:05.320" out="00:01:05.840" producer="chain11">
   <property name="kdenlive:id">6</property>
  </entry>
  <entry in="00:01:06.040" out="00:01:10.400" producer="chain11">
   <property name="kdenlive:id">6</property>
  </entry>
  <entry in="00:01:12.240" out="00:01:14.720" producer="chain11">
   <property name="kdenlive:id">6</property>
  </entry>
  <entry in="00:01:15.200" out="00:01:17.160" producer="chain11">
   <property name="kdenlive:id">6</property>
  </entry>
  <entry in="00:01:17.200" out="00:01:17.280" producer="chain11">
   <property name="kdenlive:id">6</property>
  </entry>
  <entry in="00:01:17.200" out="00:01:17.280" producer="chain11">
   <property name="kdenlive:id">6</property>
  </entry>
  <entry in="00:01:26.440" out="00:01:32.680" producer="chain11">
   <property name="kdenlive:id">6</property>
  </entry>
  <entry in="00:01:41.160" out="00:01:43.360" producer="chain11">
   <property name="kdenlive:id">6</property>
  </entry>
  <blank length="00:00:00.040"/>
  <entry in="00:01:43.800" out="00:01:46.120" producer="chain11">
   <property name="kdenlive:id">6</property>
  </entry>
  <entry in="00:01:46.520" out="00:01:47.640" producer="chain11">
   <property name="kdenlive:id">6</property>
  </entry>
  <entry in="00:01:50.800" out="00:01:51.440" producer="chain11">
   <property name="kdenlive:id">6</property>
  </entry>
  <entry in="00:01:54.120" out="00:02:12.640" producer="chain11">
   <property name="kdenlive:id">6</property>
  </entry>
  <entry in="00:02:29.760" out="00:02:33.160" producer="chain11">
   <property name="kdenlive:id">6</property>
  </entry>
  <entry in="00:02:33.600" out="00:02:35.560" producer="chain11">
   <property name="kdenlive:id">6</property>
  </entry>
  <entry in="00:02:36.400" out="00:02:37.040" producer="chain11">
   <property name="kdenlive:id">6</property>
  </entry>
  <entry in="00:02:38.560" out="00:02:43.320" producer="chain11">
   <property name="kdenlive:id">6</property>
  </entry>
  <entry in="00:02:45.520" out="00:02:47.560" producer="chain11">
   <property name="kdenlive:id">6</property>
  </entry>
  <entry in="00:02:47.600" out="00:02:53.240" producer="chain11">
   <property name="kdenlive:id">6</property>
  </entry>
  <entry in="00:03:24.000" out="00:03:25.680" producer="chain11">
   <property name="kdenlive:id">6</property>
  </entry>
  <entry in="00:03:26.080" out="00:03:26.960" producer="chain11">
   <property name="kdenlive:id">6</property>
  </entry>
  <entry in="00:03:27.160" out="00:03:27.640" producer="chain11">
   <property name="kdenlive:id">6</property>
  </entry>
  <entry in="00:03:27.800" out="00:03:29.120" producer="chain11">
   <property name="kdenlive:id">6</property>
  </entry>
  <entry in="00:03:29.640" out="00:03:31.480" producer="chain11">
   <property name="kdenlive:id">6</property>
  </entry>
  <entry in="00:03:31.960" out="00:03:33.160" producer="chain11">
   <property name="kdenlive:id">6</property>
  </entry>
  <entry in="00:03:33.880" out="00:03:34.440" producer="chain11">
   <property name="kdenlive:id">6</property>
  </entry>
  <entry in="00:03:34.600" out="00:03:35.600" producer="chain11">
   <property name="kdenlive:id">6</property>
  </entry>
  <entry in="00:03:36.000" out="00:03:36.280" producer="chain11">
   <property name="kdenlive:id">6</property>
  </entry>
  <entry in="00:03:36.720" out="00:03:38.240" producer="chain11">
   <property name="kdenlive:id">6</property>
  </entry>
  <entry in="00:03:41.360" out="00:03:43.280" producer="chain11">
   <property name="kdenlive:id">6</property>
  </entry>
  <entry in="00:03:43.680" out="00:03:45.760" producer="chain11">
   <property name="kdenlive:id">6</property>
  </entry>
  <entry in="00:03:47.040" out="00:03:51.960" producer="chain11">
   <property name="kdenlive:id">6</property>
  </entry>
  <entry in="00:03:52.400" out="00:03:53.480" producer="chain11">
   <property name="kdenlive:id">6</property>
  </entry>
  <entry in="00:03:54.880" out="00:03:55.480" producer="chain11">
   <property name="kdenlive:id">6</property>
  </entry>
  <entry in="00:03:55.760" out="00:03:59.440" producer="chain11">
   <property name="kdenlive:id">6</property>
  </entry>
  <entry in="00:04:00.000" out="00:04:02.720" producer="chain11">
   <property name="kdenlive:id">6</property>
  </entry>
  <entry in="00:04:21.040" out="00:04:27.200" producer="chain11">
   <property name="kdenlive:id">6</property>
  </entry>
  <entry in="00:04:27.880" out="00:04:30.640" producer="chain11">
   <property name="kdenlive:id">6</property>
  </entry>
  <entry in="00:04:31.120" out="00:04:31.760" producer="chain11">
   <property name="kdenlive:id">6</property>
  </entry>
  <entry in="00:04:32.760" out="00:04:34.520" producer="chain11">
   <property name="kdenlive:id">6</property>
  </entry>
  <entry in="00:04:34.840" out="00:04:36.800" producer="chain11">
   <property name="kdenlive:id">6</property>
  </entry>
  <entry in="00:04:37.080" out="00:04:38.640" producer="chain11">
   <property name="kdenlive:id">6</property>
  </entry>
  <entry in="00:04:40.000" out="00:04:45.360" producer="chain11">
   <property name="kdenlive:id">6</property>
  </entry>
  <entry in="00:04:46.160" out="00:04:50.040" producer="chain11">
   <property name="kdenlive:id">6</property>
  </entry>
  <entry in="00:04:50.320" out="00:04:51.400" producer="chain11">
   <property name="kdenlive:id">6</property>
  </entry>
  <entry in="00:04:54.840" out="00:04:56.080" producer="chain11">
   <property name="kdenlive:id">6</property>
  </entry>
  <entry in="00:05:01.040" out="00:05:05.560" producer="chain11">
   <property name="kdenlive:id">6</property>
  </entry>
  <entry in="00:06:35.160" out="00:06:43.280" producer="chain11">
   <property name="kdenlive:id">6</property>
  </entry>
  <entry in="00:06:46.520" out="00:06:47.120" producer="chain11">
   <property name="kdenlive:id">6</property>
  </entry>
  <entry in="00:06:48.480" out="00:06:51.320" producer="chain11">
   <property name="kdenlive:id">6</property>
  </entry>
  <entry in="00:06:51.760" out="00:06:59.560" producer="chain11">
   <property name="kdenlive:id">6</property>
  </entry>
  <entry in="00:07:01.960" out="00:07:17.760" producer="chain11">
   <property name="kdenlive:id">6</property>
  </entry>
  <entry in="00:07:18.440" out="00:07:20.200" producer="chain11">
   <property name="kdenlive:id">6</property>
  </entry>
  <entry in="00:07:25.440" out="00:07:31.320" producer="chain11">
   <property name="kdenlive:id">6</property>
  </entry>
  <entry in="00:07:37.120" out="00:07:39.560" producer="chain11">
   <property name="kdenlive:id">6</property>
  </entry>
  <entry in="00:08:24.800" out="00:08:26.920" producer="chain11">
   <property name="kdenlive:id">6</property>
  </entry>
  <entry in="00:08:27.400" out="00:08:28.960" producer="chain11">
   <property name="kdenlive:id">6</property>
  </entry>
  <entry in="00:00:01.960" out="00:00:06.560" producer="chain12">
   <property name="kdenlive:id">7</property>
  </entry>
  <entry in="00:00:06.600" out="00:00:09.040" producer="chain12">
   <property name="kdenlive:id">7</property>
  </entry>
  <entry in="00:00:09.080" out="00:00:10.200" producer="chain12">
   <property name="kdenlive:id">7</property>
  </entry>
  <entry in="00:00:12.440" out="00:00:15.240" producer="chain12">
   <property name="kdenlive:id">7</property>
  </entry>
  <entry in="00:00:16.480" out="00:00:23.440" producer="chain12">
   <property name="kdenlive:id">7</property>
  </entry>
  <entry in="00:00:23.760" out="00:00:24.840" producer="chain12">
   <property name="kdenlive:id">7</property>
  </entry>
  <entry in="00:00:25.120" out="00:00:27.760" producer="chain12">
   <property name="kdenlive:id">7</property>
  </entry>
  <entry in="00:00:28.160" out="00:00:30.960" producer="chain12">
   <property name="kdenlive:id">7</property>
  </entry>
  <entry in="00:00:31.520" out="00:00:33.240" producer="chain12">
   <property name="kdenlive:id">7</property>
  </entry>
  <entry in="00:00:48.440" out="00:00:54.240" producer="chain12">
   <property name="kdenlive:id">7</property>
  </entry>
  <entry in="00:00:58.000" out="00:01:01.640" producer="chain12">
   <property name="kdenlive:id">7</property>
  </entry>
  <entry in="00:01:03.000" out="00:01:03.760" producer="chain12">
   <property name="kdenlive:id">7</property>
  </entry>
  <entry in="00:01:05.280" out="00:01:17.800" producer="chain12">
   <property name="kdenlive:id">7</property>
  </entry>
  <entry in="00:01:19.040" out="00:01:20.800" producer="chain12">
   <property name="kdenlive:id">7</property>
  </entry>
  <entry in="00:01:21.640" out="00:01:23.120" producer="chain12">
   <property name="kdenlive:id">7</property>
  </entry>
  <entry in="00:01:23.720" out="00:01:24.320" producer="chain12">
   <property name="kdenlive:id">7</property>
  </entry>
  <entry in="00:01:25.200" out="00:01:25.920" producer="chain12">
   <property name="kdenlive:id">7</property>
  </entry>
  <entry in="00:01:26.840" out="00:01:30.640" producer="chain12">
   <property name="kdenlive:id">7</property>
  </entry>
  <entry in="00:01:36.080" out="00:01:37.720" producer="chain12">
   <property name="kdenlive:id">7</property>
  </entry>
  <entry in="00:01:40.280" out="00:01:41.040" producer="chain12">
   <property name="kdenlive:id">7</property>
  </entry>
  <entry in="00:01:42.280" out="00:01:44.000" producer="chain12">
   <property name="kdenlive:id">7</property>
  </entry>
  <entry in="00:01:44.920" out="00:01:53.680" producer="chain12">
   <property name="kdenlive:id">7</property>
  </entry>
  <entry in="00:01:54.040" out="00:02:06.280" producer="chain12">
   <property name="kdenlive:id">7</property>
  </entry>
  <entry in="00:02:08.720" out="00:18:50.320" producer="chain12">
   <property name="kdenlive:id">7</property>
  </entry>
 </playlist>
 <playlist id="playlist5"/>
 <tractor id="tractor2" in="00:00:00.000" out="00:26:25.040">
  <property name="kdenlive:trackheight">69</property>
  <property name="kdenlive:timeline_active">1</property>
  <property name="kdenlive:collapsed">0</property>
  <property name="kdenlive:thumbs_format"/>
  <property name="kdenlive:audio_rec"/>
  <track hide="audio" producer="playlist4"/>
  <track hide="audio" producer="playlist5"/>
 </tractor>
 <chain id="chain17" out="00:13:27.760">
  <property name="length">20195</property>
  <property name="eof">pause</property>
  <property name="resource">Assets/Videos/raw/Loops_2_B-roll.mkv</property>
  <property name="mlt_service">avformat-novalidate</property>
  <property name="seekable">1</property>
  <property name="audio_index">1</property>
  <property name="video_index">0</property>
  <property name="vstream">0</property>
  <property name="astream">0</property>
  <property name="kdenlive:folderid">-1</property>
  <property name="kdenlive:id">11</property>
  <property name="kdenlive:control_uuid">{b03accb7-ce84-4b82-8b53-11980ae29458}</property>
  <property name="mute_on_pause">0</property>
  <property name="kdenlive:clip_type">0</property>
  <property name="kdenlive:file_size">23661009</property>
  <property name="kdenlive:file_hash">52d1847ed385dda2b9687aedcb611682</property>
  <property name="meta.media.nb_streams">2</property>
  <property name="meta.media.0.stream.type">video</property>
  <property name="meta.media.0.stream.frame_rate">60</property>
  <property name="meta.media.0.stream.sample_aspect_ratio">0</property>
  <property name="meta.media.0.codec.width">1920</property>
  <property name="meta.media.0.codec.height">1080</property>
  <property name="meta.media.0.codec.rotate">0</property>
  <property name="meta.media.0.codec.pix_fmt">yuv420p</property>
  <property name="meta.media.0.codec.sample_aspect_ratio">1</property>
  <property name="meta.media.0.codec.colorspace">709</property>
  <property name="meta.media.0.codec.color_trc">1</property>
  <property name="meta.media.0.codec.name">h264</property>
  <property name="meta.media.0.codec.long_name">H.264 / AVC / MPEG-4 AVC / MPEG-4 part 10</property>
  <property name="meta.media.0.codec.bit_rate">0</property>
  <property name="meta.attr.0.stream.DURATION.markup">00:13:27.817000000</property>
  <property name="meta.media.1.stream.type">audio</property>
  <property name="meta.media.1.codec.sample_fmt">fltp</property>
  <property name="meta.media.1.codec.sample_rate">48000</property>
  <property name="meta.media.1.codec.channels">2</property>
  <property name="meta.media.1.codec.layout">stereo</property>
  <property name="meta.media.1.codec.name">aac</property>
  <property name="meta.media.1.codec.long_name">AAC (Advanced Audio Coding)</property>
  <property name="meta.media.1.codec.bit_rate">0</property>
  <property name="meta.attr.1.stream.title.markup">simple_aac_recording0</property>
  <property name="meta.attr.1.stream.DURATION.markup">00:13:27.786000000</property>
  <property name="meta.attr.ENCODER.markup">Lavf61.7.100</property>
  <property name="meta.media.sample_aspect_num">1</property>
  <property name="meta.media.sample_aspect_den">1</property>
  <property name="meta.media.frame_rate_num">60</property>
  <property name="meta.media.frame_rate_den">1</property>
  <property name="meta.media.colorspace">709</property>
  <property name="meta.media.color_trc">1</property>
  <property name="meta.media.has_b_frames">2</property>
  <property name="meta.media.width">1920</property>
  <property name="meta.media.height">1080</property>
  <property name="meta.media.aspect_ratio">1</property>
  <property name="meta.media.color_range">mpeg</property>
  <property name="xml">was here</property>
  <property name="meta.media.top_field_first">0</property>
  <property name="meta.media.progressive">1</property>
  <property name="set.test_audio">1</property>
  <property name="set.test_image">0</property>
 </chain>
 <playlist id="playlist6">
  <blank length="00:04:54.560"/>
  <entry in="00:00:00.000" out="00:00:12.920" producer="chain17">
   <property name="kdenlive:id">11</property>
  </entry>
  <entry in="00:00:25.600" out="00:00:42.560" producer="chain17">
   <property name="kdenlive:id">11</property>
  </entry>
  <entry in="00:00:53.000" out="00:00:54.360" producer="chain17">
   <property name="kdenlive:id">11</property>
  </entry>
  <entry in="00:00:55.160" out="00:00:56.040" producer="chain17">
   <property name="kdenlive:id">11</property>
  </entry>
  <entry in="00:01:04.080" out="00:01:13.640" producer="chain17">
   <property name="kdenlive:id">11</property>
  </entry>
  <entry in="00:01:13.680" out="00:01:14.440" producer="chain17">
   <property name="kdenlive:id">11</property>
  </entry>
  <entry in="00:08:37.000" out="00:08:40.760" producer="chain17">
   <property name="kdenlive:id">11</property>
  </entry>
  <entry in="00:01:21.440" out="00:01:29.920" producer="chain17">
   <property name="kdenlive:id">11</property>
  </entry>
  <entry in="00:01:30.320" out="00:01:32.680" producer="chain17">
   <property name="kdenlive:id">11</property>
  </entry>
  <entry in="00:01:33.080" out="00:01:34.200" producer="chain17">
   <property name="kdenlive:id">11</property>
  </entry>
  <entry in="00:01:37.360" out="00:01:38.000" producer="chain17">
   <property name="kdenlive:id">11</property>
  </entry>
  <entry in="00:01:40.680" out="00:01:43.160" producer="chain17">
   <property name="kdenlive:id">11</property>
  </entry>
  <entry in="00:01:58.600" out="00:02:16.840" producer="chain17">
   <property name="kdenlive:id">11</property>
  </entry>
  <entry in="00:02:16.880" out="00:02:18.000" producer="chain17">
   <property name="kdenlive:id">11</property>
  </entry>
  <entry in="00:02:16.880" out="00:02:18.000" producer="chain17">
   <property name="kdenlive:id">11</property>
  </entry>
  <entry in="00:02:16.880" out="00:02:18.000" producer="chain17">
   <property name="kdenlive:id">11</property>
  </entry>
  <entry in="00:02:16.880" out="00:02:18.000" producer="chain17">
   <property name="kdenlive:id">11</property>
  </entry>
  <entry in="00:02:16.880" out="00:02:18.000" producer="chain17">
   <property name="kdenlive:id">11</property>
  </entry>
  <entry in="00:02:41.880" out="00:02:47.200" producer="chain17">
   <property name="kdenlive:id">11</property>
  </entry>
  <entry in="00:02:47.240" out="00:02:52.480" producer="chain17">
   <property name="kdenlive:id">11</property>
  </entry>
  <entry in="00:03:23.240" out="00:03:24.920" producer="chain17">
   <property name="kdenlive:id">11</property>
  </entry>
  <entry in="00:03:25.320" out="00:03:26.200" producer="chain17">
   <property name="kdenlive:id">11</property>
  </entry>
  <entry in="00:03:26.400" out="00:03:26.880" producer="chain17">
   <property name="kdenlive:id">11</property>
  </entry>
  <entry in="00:03:27.040" out="00:03:28.360" producer="chain17">
   <property name="kdenlive:id">11</property>
  </entry>
  <entry in="00:03:28.880" out="00:03:30.720" producer="chain17">
   <property name="kdenlive:id">11</property>
  </entry>
  <entry in="00:03:31.200" out="00:03:32.400" producer="chain17">
   <property name="kdenlive:id">11</property>
  </entry>
  <entry in="00:03:33.120" out="00:03:33.680" producer="chain17">
   <property name="kdenlive:id">11</property>
  </entry>
  <entry in="00:03:33.840" out="00:03:34.840" producer="chain17">
   <property name="kdenlive:id">11</property>
  </entry>
  <entry in="00:03:35.240" out="00:03:35.520" producer="chain17">
   <property name="kdenlive:id">11</property>
  </entry>
  <entry in="00:03:35.960" out="00:03:37.480" producer="chain17">
   <property name="kdenlive:id">11</property>
  </entry>
  <entry in="00:03:40.600" out="00:03:42.520" producer="chain17">
   <property name="kdenlive:id">11</property>
  </entry>
  <entry in="00:03:42.920" out="00:03:45.000" producer="chain17">
   <property name="kdenlive:id">11</property>
  </entry>
  <entry in="00:03:46.280" out="00:03:51.200" producer="chain17">
   <property name="kdenlive:id">11</property>
  </entry>
  <entry in="00:03:51.640" out="00:03:52.720" producer="chain17">
   <property name="kdenlive:id">11</property>
  </entry>
  <entry in="00:03:54.120" out="00:03:54.720" producer="chain17">
   <property name="kdenlive:id">11</property>
  </entry>
  <entry in="00:03:55.000" out="00:03:58.680" producer="chain17">
   <property name="kdenlive:id">11</property>
  </entry>
  <entry in="00:03:59.240" out="00:04:01.960" producer="chain17">
   <property name="kdenlive:id">11</property>
  </entry>
  <entry in="00:03:59.240" out="00:04:01.960" producer="chain17">
   <property name="kdenlive:id">11</property>
  </entry>
  <entry in="00:03:59.240" out="00:04:01.960" producer="chain17">
   <property name="kdenlive:id">11</property>
  </entry>
  <entry in="00:03:59.240" out="00:04:01.960" producer="chain17">
   <property name="kdenlive:id">11</property>
  </entry>
  <entry in="00:03:59.240" out="00:04:01.960" producer="chain17">
   <property name="kdenlive:id">11</property>
  </entry>
  <entry in="00:03:59.240" out="00:04:01.960" producer="chain17">
   <property name="kdenlive:id">11</property>
  </entry>
  <entry in="00:03:59.240" out="00:04:00.480" producer="chain17">
   <property name="kdenlive:id">11</property>
  </entry>
  <entry in="00:04:44.440" out="00:04:49.800" producer="chain17">
   <property name="kdenlive:id">11</property>
  </entry>
  <entry in="00:04:50.600" out="00:04:54.480" producer="chain17">
   <property name="kdenlive:id">11</property>
  </entry>
  <entry in="00:04:54.760" out="00:04:55.840" producer="chain17">
   <property name="kdenlive:id">11</property>
  </entry>
  <entry in="00:04:54.760" out="00:04:56.000" producer="chain17">
   <property name="kdenlive:id">11</property>
  </entry>
  <entry in="00:07:20.680" out="00:07:25.920" producer="chain17">
   <property name="kdenlive:id">11</property>
  </entry>
  <entry in="00:09:35.400" out="00:09:42.800" producer="chain17">
   <property name="kdenlive:id">11</property>
  </entry>
  <entry in="00:10:09.360" out="00:10:50.480" producer="chain17">
   <property name="kdenlive:id">11</property>
  </entry>
 </playlist>
 <playlist id="playlist7"/>
 <tractor id="tractor3" in="00:00:00.000" out="00:08:20.120">
  <property name="kdenlive:trackheight">72</property>
  <property name="kdenlive:timeline_active">1</property>
  <property name="kdenlive:collapsed">28</property>
  <property name="kdenlive:thumbs_format"/>
  <property name="kdenlive:audio_rec"/>
  <track hide="audio" producer="playlist6"/>
  <track hide="audio" producer="playlist7"/>
 </tractor>
 <playlist id="playlist8"/>
 <playlist id="playlist9"/>
 <tractor id="tractor4" in="00:00:00.000">
  <property name="kdenlive:track_name">Temp</property>
  <property name="kdenlive:trackheight">72</property>
  <property name="kdenlive:timeline_active">1</property>
  <property name="kdenlive:collapsed">28</property>
  <track hide="audio" producer="playlist8"/>
  <track hide="audio" producer="playlist9"/>
 </tractor>
 <tractor id="tractor5" in="00:00:00.000" out="00:26:45.720">
  <property name="kdenlive:duration">00:26:45.760</property>
  <property name="kdenlive:maxduration">40144</property>
  <property name="kdenlive:clipname">Sequence 1</property>
  <property name="kdenlive:description"/>
  <property name="kdenlive:uuid">{a98f7d63-701f-4939-b272-52f7f5bfbb05}</property>
  <property name="kdenlive:producer_type">17</property>
  <property name="kdenlive:control_uuid">{a98f7d63-701f-4939-b272-52f7f5bfbb05}</property>
  <property name="kdenlive:id">3</property>
  <property name="kdenlive:clip_type">0</property>
  <property name="kdenlive:file_hash">a5e20e283e9787de82a7e2e14cb06c6b</property>
  <property name="kdenlive:folderid">2</property>
  <property name="kdenlive:sequenceproperties.activeTrack">2</property>
  <property name="kdenlive:sequenceproperties.audioTarget">1</property>
  <property name="kdenlive:sequenceproperties.disablepreview">0</property>
  <property name="kdenlive:sequenceproperties.documentuuid">{a98f7d63-701f-4939-b272-52f7f5bfbb05}</property>
  <property name="kdenlive:sequenceproperties.hasAudio">1</property>
  <property name="kdenlive:sequenceproperties.hasVideo">1</property>
  <property name="kdenlive:sequenceproperties.position">15341</property>
  <property name="kdenlive:sequenceproperties.scrollPos">18014</property>
  <property name="kdenlive:sequenceproperties.tracks">4</property>
  <property name="kdenlive:sequenceproperties.tracksCount">5</property>
  <property name="kdenlive:sequenceproperties.verticalzoom">1</property>
  <property name="kdenlive:sequenceproperties.videoTarget">2</property>
  <property name="kdenlive:sequenceproperties.zonein">0</property>
  <property name="kdenlive:sequenceproperties.zoneout">75</property>
  <property name="kdenlive:sequenceproperties.zoom">6</property>
  <property name="kdenlive:sequenceproperties.groups">[
    {
        "children": [
            {
                "children": [
                    {
                        "data": "2:9967:-1",
                        "leaf": "clip",
                        "type": "Leaf"
                    },
                    {
                        "data": "1:9967:-1",
                        "leaf": "clip",
                        "type": "Leaf"
                    }
                ],
                "type": "Normal"
            },
            {
                "data": "0:9967:-1",
                "leaf": "clip",
                "type": "Leaf"
            }
        ],
        "type": "Normal"
    },
    {
        "children": [
            {
                "children": [
                    {
                        "data": "2:9936:-1",
                        "leaf": "clip",
                        "type": "Leaf"
                    },
                    {
                        "data": "1:9936:-1",
                        "leaf": "clip",
                        "type": "Leaf"
                    }
                ],
                "type": "Normal"
            },
            {
                "data": "0:9936:-1",
                "leaf": "clip",
                "type": "Leaf"
            }
        ],
        "type": "Normal"
    },
    {
        "children": [
            {
                "children": [
                    {
                        "data": "2:9982:-1",
                        "leaf": "clip",
                        "type": "Leaf"
                    },
                    {
                        "data": "1:9982:-1",
                        "leaf": "clip",
                        "type": "Leaf"
                    }
                ],
                "type": "Normal"
            },
            {
                "data": "0:9982:-1",
                "leaf": "clip",
                "type": "Leaf"
            }
        ],
        "type": "Normal"
    },
    {
        "children": [
            {
                "children": [
                    {
                        "data": "2:10309:-1",
                        "leaf": "clip",
                        "type": "Leaf"
                    },
                    {
                        "data": "1:10309:-1",
                        "leaf": "clip",
                        "type": "Leaf"
                    }
                ],
                "type": "Normal"
            },
            {
                "data": "0:10309:-1",
                "leaf": "clip",
                "type": "Leaf"
            }
        ],
        "type": "Normal"
    },
    {
        "children": [
            {
                "data": "0:9395:-1",
                "leaf": "clip",
                "type": "Leaf"
            },
            {
                "children": [
                    {
                        "data": "1:9395:-1",
                        "leaf": "clip",
                        "type": "Leaf"
                    },
                    {
                        "data": "2:9395:-1",
                        "leaf": "clip",
                        "type": "Leaf"
                    }
                ],
                "type": "Normal"
            }
        ],
        "type": "Normal"
    },
    {
        "children": [
            {
                "children": [
                    {
                        "data": "2:10157:-1",
                        "leaf": "clip",
                        "type": "Leaf"
                    },
                    {
                        "data": "1:10157:-1",
                        "leaf": "clip",
                        "type": "Leaf"
                    }
                ],
                "type": "Normal"
            },
            {
                "data": "0:10157:-1",
                "leaf": "clip",
                "type": "Leaf"
            }
        ],
        "type": "Normal"
    },
    {
        "children": [
            {
                "data": "0:9445:-1",
                "leaf": "clip",
                "type": "Leaf"
            },
            {
                "children": [
                    {
                        "data": "2:9445:-1",
                        "leaf": "clip",
                        "type": "Leaf"
                    },
                    {
                        "data": "1:9445:-1",
                        "leaf": "clip",
                        "type": "Leaf"
                    }
                ],
                "type": "Normal"
            }
        ],
        "type": "Normal"
    },
    {
        "children": [
            {
                "data": "2:5067:-1",
                "leaf": "clip",
                "type": "Leaf"
            },
            {
                "data": "1:5067:-1",
                "leaf": "clip",
                "type": "Leaf"
            }
        ],
        "type": "Normal"
    },
    {
        "children": [
            {
                "children": [
                    {
                        "data": "2:9855:-1",
                        "leaf": "clip",
                        "type": "Leaf"
                    },
                    {
                        "data": "1:9855:-1",
                        "leaf": "clip",
                        "type": "Leaf"
                    }
                ],
                "type": "Normal"
            },
            {
                "data": "0:9855:-1",
                "leaf": "clip",
                "type": "Leaf"
            }
        ],
        "type": "Normal"
    },
    {
        "children": [
            {
                "data": "0:8845:-1",
                "leaf": "clip",
                "type": "Leaf"
            },
            {
                "children": [
                    {
                        "data": "2:8845:-1",
                        "leaf": "clip",
                        "type": "Leaf"
                    },
                    {
                        "data": "1:8845:-1",
                        "leaf": "clip",
                        "type": "Leaf"
                    }
                ],
                "type": "Normal"
            }
        ],
        "type": "Normal"
    },
    {
        "children": [
            {
                "children": [
                    {
                        "data": "2:10325:-1",
                        "leaf": "clip",
                        "type": "Leaf"
                    },
                    {
                        "data": "1:10325:-1",
                        "leaf": "clip",
                        "type": "Leaf"
                    }
                ],
                "type": "Normal"
            },
            {
                "data": "0:10325:-1",
                "leaf": "clip",
                "type": "Leaf"
            }
        ],
        "type": "Normal"
    },
    {
        "children": [
            {
                "data": "2:3562:-1",
                "leaf": "clip",
                "type": "Leaf"
            },
            {
                "data": "1:3562:-1",
                "leaf": "clip",
                "type": "Leaf"
            }
        ],
        "type": "Normal"
    },
    {
        "children": [
            {
                "children": [
                    {
                        "data": "2:8065:-1",
                        "leaf": "clip",
                        "type": "Leaf"
                    },
                    {
                        "data": "1:8065:-1",
                        "leaf": "clip",
                        "type": "Leaf"
                    }
                ],
                "type": "Normal"
            },
            {
                "data": "0:8065:-1",
                "leaf": "clip",
                "type": "Leaf"
            }
        ],
        "type": "Normal"
    },
    {
        "children": [
            {
                "data": "2:0:-1",
                "leaf": "clip",
                "type": "Leaf"
            },
            {
                "data": "1:0:-1",
                "leaf": "clip",
                "type": "Leaf"
            }
        ],
        "type": "AVSplit"
    },
    {
        "children": [
            {
                "data": "2:4998:-1",
                "leaf": "clip",
                "type": "Leaf"
            },
            {
                "data": "1:4998:-1",
                "leaf": "clip",
                "type": "Leaf"
            }
        ],
        "type": "Normal"
    },
    {
        "children": [
            {
                "data": "2:4537:-1",
                "leaf": "clip",
                "type": "Leaf"
            },
            {
                "data": "1:4537:-1",
                "leaf": "clip",
                "type": "Leaf"
            }
        ],
        "type": "Normal"
    },
    {
        "children": [
            {
                "children": [
                    {
                        "data": "1:8740:-1",
                        "leaf": "clip",
                        "type": "Leaf"
                    },
                    {
                        "data": "2:8740:-1",
                        "leaf": "clip",
                        "type": "Leaf"
                    }
                ],
                "type": "Normal"
            },
            {
                "data": "0:8740:-1",
                "leaf": "clip",
                "type": "Leaf"
            }
        ],
        "type": "Normal"
    },
    {
        "children": [
            {
                "data": "0:8520:-1",
                "leaf": "clip",
                "type": "Leaf"
            },
            {
                "children": [
                    {
                        "data": "1:8520:-1",
                        "leaf": "clip",
                        "type": "Leaf"
                    },
                    {
                        "data": "2:8520:-1",
                        "leaf": "clip",
                        "type": "Leaf"
                    }
                ],
                "type": "Normal"
            }
        ],
        "type": "Normal"
    },
    {
        "children": [
            {
                "children": [
                    {
                        "data": "2:13123:-1",
                        "leaf": "clip",
                        "type": "Leaf"
                    },
                    {
                        "data": "1:13123:-1",
                        "leaf": "clip",
                        "type": "Leaf"
                    }
                ],
                "type": "Normal"
            },
            {
                "data": "0:13123:-1",
                "leaf": "clip",
                "type": "Leaf"
            }
        ],
        "type": "Normal"
    },
    {
        "children": [
            {
                "data": "0:2868:-1",
                "leaf": "clip",
                "type": "Leaf"
            },
            {
                "children": [
                    {
                        "data": "1:2868:-1",
                        "leaf": "clip",
                        "type": "Leaf"
                    },
                    {
                        "data": "2:2868:-1",
                        "leaf": "clip",
                        "type": "Leaf"
                    }
                ],
                "type": "AVSplit"
            }
        ],
        "type": "Normal"
    },
    {
        "children": [
            {
                "children": [
                    {
                        "data": "2:9776:-1",
                        "leaf": "clip",
                        "type": "Leaf"
                    },
                    {
                        "data": "1:9776:-1",
                        "leaf": "clip",
                        "type": "Leaf"
                    }
                ],
                "type": "Normal"
            },
            {
                "data": "0:9776:-1",
                "leaf": "clip",
                "type": "Leaf"
            }
        ],
        "type": "Normal"
    },
    {
        "children": [
            {
                "data": "0:11097:-1",
                "leaf": "clip",
                "type": "Leaf"
            },
            {
                "children": [
                    {
                        "data": "2:11097:-1",
                        "leaf": "clip",
                        "type": "Leaf"
                    },
                    {
                        "data": "1:11097:-1",
                        "leaf": "clip",
                        "type": "Leaf"
                    }
                ],
                "type": "Normal"
            }
        ],
        "type": "Normal"
    },
    {
        "children": [
            {
                "data": "2:5275:-1",
                "leaf": "clip",
                "type": "Leaf"
            },
            {
                "data": "1:5275:-1",
                "leaf": "clip",
                "type": "Leaf"
            }
        ],
        "type": "Normal"
    },
    {
        "children": [
            {
                "data": "1:3553:-1",
                "leaf": "clip",
                "type": "Leaf"
            },
            {
                "data": "2:3553:-1",
                "leaf": "clip",
                "type": "Leaf"
            }
        ],
        "type": "Normal"
    },
    {
        "children": [
            {
                "data": "2:3255:-1",
                "leaf": "clip",
                "type": "Leaf"
            },
            {
                "data": "1:3255:-1",
                "leaf": "clip",
                "type": "Leaf"
            }
        ],
        "type": "Normal"
    },
    {
        "children": [
            {
                "children": [
                    {
                        "data": "2:13052:-1",
                        "leaf": "clip",
                        "type": "Leaf"
                    },
                    {
                        "data": "1:13052:-1",
                        "leaf": "clip",
                        "type": "Leaf"
                    }
                ],
                "type": "Normal"
            },
            {
                "data": "0:13052:-1",
                "leaf": "clip",
                "type": "Leaf"
            }
        ],
        "type": "Normal"
    },
    {
        "children": [
            {
                "data": "0:10418:-1",
                "leaf": "clip",
                "type": "Leaf"
            },
            {
                "children": [
                    {
                        "data": "1:10418:-1",
                        "leaf": "clip",
                        "type": "Leaf"
                    },
                    {
                        "data": "2:10418:-1",
                        "leaf": "clip",
                        "type": "Leaf"
                    }
                ],
                "type": "Normal"
            }
        ],
        "type": "Normal"
    },
    {
        "children": [
            {
                "data": "2:413:-1",
                "leaf": "clip",
                "type": "Leaf"
            },
            {
                "data": "1:413:-1",
                "leaf": "clip",
                "type": "Leaf"
            }
        ],
        "type": "AVSplit"
    },
    {
        "children": [
            {
                "data": "2:2606:-1",
                "leaf": "clip",
                "type": "Leaf"
            },
            {
                "data": "1:2606:-1",
                "leaf": "clip",
                "type": "Leaf"
            }
        ],
        "type": "AVSplit"
    },
    {
        "children": [
            {
                "children": [
                    {
                        "data": "2:8214:-1",
                        "leaf": "clip",
                        "type": "Leaf"
                    },
                    {
                        "data": "1:8214:-1",
                        "leaf": "clip",
                        "type": "Leaf"
                    }
                ],
                "type": "Normal"
            },
            {
                "data": "0:8214:-1",
                "leaf": "clip",
                "type": "Leaf"
            }
        ],
        "type": "Normal"
    },
    {
        "children": [
            {
                "data": "0:8470:-1",
                "leaf": "clip",
                "type": "Leaf"
            },
            {
                "children": [
                    {
                        "data": "1:8470:-1",
                        "leaf": "clip",
                        "type": "Leaf"
                    },
                    {
                        "data": "2:8470:-1",
                        "leaf": "clip",
                        "type": "Leaf"
                    }
                ],
                "type": "Normal"
            }
        ],
        "type": "Normal"
    },
    {
        "children": [
            {
                "children": [
                    {
                        "data": "1:8799:-1",
                        "leaf": "clip",
                        "type": "Leaf"
                    },
                    {
                        "data": "2:8799:-1",
                        "leaf": "clip",
                        "type": "Leaf"
                    }
                ],
                "type": "Normal"
            },
            {
                "data": "0:8799:-1",
                "leaf": "clip",
                "type": "Leaf"
            }
        ],
        "type": "Normal"
    },
    {
        "children": [
            {
                "data": "0:14586:-1",
                "leaf": "clip",
                "type": "Leaf"
            },
            {
                "children": [
                    {
                        "data": "2:14586:-1",
                        "leaf": "clip",
                        "type": "Leaf"
                    },
                    {
                        "data": "1:14586:-1",
                        "leaf": "clip",
                        "type": "Leaf"
                    }
                ],
                "type": "Normal"
            }
        ],
        "type": "Normal"
    },
    {
        "children": [
            {
                "data": "2:3209:-1",
                "leaf": "clip",
                "type": "Leaf"
            },
            {
                "data": "1:3209:-1",
                "leaf": "clip",
                "type": "Leaf"
            }
        ],
        "type": "AVSplit"
    },
    {
        "children": [
            {
                "children": [
                    {
                        "data": "2:7765:-1",
                        "leaf": "clip",
                        "type": "Leaf"
                    },
                    {
                        "data": "1:7765:-1",
                        "leaf": "clip",
                        "type": "Leaf"
                    }
                ],
                "type": "Normal"
            },
            {
                "data": "0:7765:-1",
                "leaf": "clip",
                "type": "Leaf"
            }
        ],
        "type": "Normal"
    },
    {
        "children": [
            {
                "data": "2:5724:-1",
                "leaf": "clip",
                "type": "Leaf"
            },
            {
                "data": "1:5724:-1",
                "leaf": "clip",
                "type": "Leaf"
            }
        ],
        "type": "Normal"
    },
    {
        "children": [
            {
                "data": "2:5369:-1",
                "leaf": "clip",
                "type": "Leaf"
            },
            {
                "data": "1:5369:-1",
                "leaf": "clip",
                "type": "Leaf"
            }
        ],
        "type": "Normal"
    },
    {
        "children": [
            {
                "children": [
                    {
                        "data": "2:9889:-1",
                        "leaf": "clip",
                        "type": "Leaf"
                    },
                    {
                        "data": "1:9889:-1",
                        "leaf": "clip",
                        "type": "Leaf"
                    }
                ],
                "type": "Normal"
            },
            {
                "data": "0:9889:-1",
                "leaf": "clip",
                "type": "Leaf"
            }
        ],
        "type": "Normal"
    },
    {
        "children": [
            {
                "children": [
                    {
                        "data": "1:13425:-1",
                        "leaf": "clip",
                        "type": "Leaf"
                    },
                    {
                        "data": "2:13425:-1",
                        "leaf": "clip",
                        "type": "Leaf"
                    }
                ],
                "type": "Normal"
            },
            {
                "data": "0:13425:-1",
                "leaf": "clip",
                "type": "Leaf"
            }
        ],
        "type": "Normal"
    },
    {
        "children": [
            {
                "data": "0:11271:-1",
                "leaf": "clip",
                "type": "Leaf"
            },
            {
                "children": [
                    {
                        "data": "1:11271:-1",
                        "leaf": "clip",
                        "type": "Leaf"
                    },
                    {
                        "data": "2:11271:-1",
                        "leaf": "clip",
                        "type": "Leaf"
                    }
                ],
                "type": "Normal"
            }
        ],
        "type": "Normal"
    },
    {
        "children": [
            {
                "data": "2:12620:-1",
                "leaf": "clip",
                "type": "Leaf"
            },
            {
                "data": "1:12620:-1",
                "leaf": "clip",
                "type": "Leaf"
            }
        ],
        "type": "Normal"
    },
    {
        "children": [
            {
                "children": [
                    {
                        "data": "1:13405:-1",
                        "leaf": "clip",
                        "type": "Leaf"
                    },
                    {
                        "data": "2:13405:-1",
                        "leaf": "clip",
                        "type": "Leaf"
                    }
                ],
                "type": "Normal"
            },
            {
                "data": "0:13405:-1",
                "leaf": "clip",
                "type": "Leaf"
            }
        ],
        "type": "Normal"
    },
    {
        "children": [
            {
                "children": [
                    {
                        "data": "1:13739:-1",
                        "leaf": "clip",
                        "type": "Leaf"
                    },
                    {
                        "data": "2:13739:-1",
                        "leaf": "clip",
                        "type": "Leaf"
                    }
                ],
                "type": "Normal"
            },
            {
                "data": "0:13739:-1",
                "leaf": "clip",
                "type": "Leaf"
            }
        ],
        "type": "Normal"
    },
    {
        "children": [
            {
                "data": "0:11475:-1",
                "leaf": "clip",
                "type": "Leaf"
            },
            {
                "children": [
                    {
                        "data": "2:11475:-1",
                        "leaf": "clip",
                        "type": "Leaf"
                    },
                    {
                        "data": "1:11475:-1",
                        "leaf": "clip",
                        "type": "Leaf"
                    }
                ],
                "type": "Normal"
            }
        ],
        "type": "Normal"
    },
    {
        "children": [
            {
                "children": [
                    {
                        "data": "1:10774:-1",
                        "leaf": "clip",
                        "type": "Leaf"
                    },
                    {
                        "data": "2:10774:-1",
                        "leaf": "clip",
                        "type": "Leaf"
                    }
                ],
                "type": "Normal"
            },
            {
                "data": "0:10774:-1",
                "leaf": "clip",
                "type": "Leaf"
            }
        ],
        "type": "Normal"
    },
    {
        "children": [
            {
                "children": [
                    {
                        "data": "2:11491:-1",
                        "leaf": "clip",
                        "type": "Leaf"
                    },
                    {
                        "data": "1:11491:-1",
                        "leaf": "clip",
                        "type": "Leaf"
                    }
                ],
                "type": "Normal"
            },
            {
                "data": "0:11491:-1",
                "leaf": "clip",
                "type": "Leaf"
            }
        ],
        "type": "Normal"
    },
    {
        "children": [
            {
                "children": [
                    {
                        "data": "2:10008:-1",
                        "leaf": "clip",
                        "type": "Leaf"
                    },
                    {
                        "data": "1:10008:-1",
                        "leaf": "clip",
                        "type": "Leaf"
                    }
                ],
                "type": "Normal"
            },
            {
                "data": "0:10008:-1",
                "leaf": "clip",
                "type": "Leaf"
            }
        ],
        "type": "Normal"
    },
    {
        "children": [
            {
                "children": [
                    {
                        "data": "1:13857:-1",
                        "leaf": "clip",
                        "type": "Leaf"
                    },
                    {
                        "data": "2:13857:-1",
                        "leaf": "clip",
                        "type": "Leaf"
                    }
                ],
                "type": "Normal"
            },
            {
                "data": "0:13857:-1",
                "leaf": "clip",
                "type": "Leaf"
            }
        ],
        "type": "Normal"
    },
    {
        "children": [
            {
                "children": [
                    {
                        "data": "2:10864:-1",
                        "leaf": "clip",
                        "type": "Leaf"
                    },
                    {
                        "data": "1:10864:-1",
                        "leaf": "clip",
                        "type": "Leaf"
                    }
                ],
                "type": "Normal"
            },
            {
                "data": "0:10864:-1",
                "leaf": "clip",
                "type": "Leaf"
            }
        ],
        "type": "Normal"
    },
    {
        "children": [
            {
                "children": [
                    {
                        "data": "2:9634:-1",
                        "leaf": "clip",
                        "type": "Leaf"
                    },
                    {
                        "data": "1:9634:-1",
                        "leaf": "clip",
                        "type": "Leaf"
                    }
                ],
                "type": "Normal"
            },
            {
                "data": "0:9634:-1",
                "leaf": "clip",
                "type": "Leaf"
            }
        ],
        "type": "Normal"
    },
    {
        "children": [
            {
                "data": "2:3234:-1",
                "leaf": "clip",
                "type": "Leaf"
            },
            {
                "data": "1:3234:-1",
                "leaf": "clip",
                "type": "Leaf"
            }
        ],
        "type": "AVSplit"
    },
    {
        "children": [
            {
                "children": [
                    {
                        "data": "2:11759:-1",
                        "leaf": "clip",
                        "type": "Leaf"
                    },
                    {
                        "data": "1:11759:-1",
                        "leaf": "clip",
                        "type": "Leaf"
                    }
                ],
                "type": "Normal"
            },
            {
                "data": "0:11759:-1",
                "leaf": "clip",
                "type": "Leaf"
            }
        ],
        "type": "Normal"
    },
    {
        "children": [
            {
                "children": [
                    {
                        "data": "2:10016:-1",
                        "leaf": "clip",
                        "type": "Leaf"
                    },
                    {
                        "data": "1:10016:-1",
                        "leaf": "clip",
                        "type": "Leaf"
                    }
                ],
                "type": "Normal"
            },
            {
                "data": "0:10016:-1",
                "leaf": "clip",
                "type": "Leaf"
            }
        ],
        "type": "Normal"
    },
    {
        "children": [
            {
                "children": [
                    {
                        "data": "2:8114:-1",
                        "leaf": "clip",
                        "type": "Leaf"
                    },
                    {
                        "data": "1:8114:-1",
                        "leaf": "clip",
                        "type": "Leaf"
                    }
                ],
                "type": "Normal"
            },
            {
                "data": "0:8114:-1",
                "leaf": "clip",
                "type": "Leaf"
            }
        ],
        "type": "Normal"
    },
    {
        "children": [
            {
                "children": [
                    {
                        "data": "1:12200:-1",
                        "leaf": "clip",
                        "type": "Leaf"
                    },
                    {
                        "data": "2:12200:-1",
                        "leaf": "clip",
                        "type": "Leaf"
                    }
                ],
                "type": "Normal"
            },
            {
                "data": "0:12200:-1",
                "leaf": "clip",
                "type": "Leaf"
            }
        ],
        "type": "Normal"
    },
    {
        "children": [
            {
                "data": "2:3965:-1",
                "leaf": "clip",
                "type": "Leaf"
            },
            {
                "data": "1:3965:-1",
                "leaf": "clip",
                "type": "Leaf"
            }
        ],
        "type": "Normal"
    },
    {
        "children": [
            {
                "children": [
                    {
                        "data": "2:10281:-1",
                        "leaf": "clip",
                        "type": "Leaf"
                    },
                    {
                        "data": "1:10281:-1",
                        "leaf": "clip",
                        "type": "Leaf"
                    }
                ],
                "type": "Normal"
            },
            {
                "data": "0:10281:-1",
                "leaf": "clip",
                "type": "Leaf"
            }
        ],
        "type": "Normal"
    },
    {
        "children": [
            {
                "data": "0:12504:-1",
                "leaf": "clip",
                "type": "Leaf"
            },
            {
                "children": [
                    {
                        "data": "2:12504:-1",
                        "leaf": "clip",
                        "type": "Leaf"
                    },
                    {
                        "data": "1:12504:-1",
                        "leaf": "clip",
                        "type": "Leaf"
                    }
                ],
                "type": "Normal"
            }
        ],
        "type": "Normal"
    },
    {
        "children": [
            {
                "data": "0:10824:-1",
                "leaf": "clip",
                "type": "Leaf"
            },
            {
                "children": [
                    {
                        "data": "2:10824:-1",
                        "leaf": "clip",
                        "type": "Leaf"
                    },
                    {
                        "data": "1:10824:-1",
                        "leaf": "clip",
                        "type": "Leaf"
                    }
                ],
                "type": "Normal"
            }
        ],
        "type": "Normal"
    },
    {
        "children": [
            {
                "children": [
                    {
                        "data": "2:12682:-1",
                        "leaf": "clip",
                        "type": "Leaf"
                    },
                    {
                        "data": "1:12682:-1",
                        "leaf": "clip",
                        "type": "Leaf"
                    }
                ],
                "type": "Normal"
            },
            {
                "data": "0:12682:-1",
                "leaf": "clip",
                "type": "Leaf"
            }
        ],
        "type": "Normal"
    },
    {
        "children": [
            {
                "children": [
                    {
                        "data": "1:10487:-1",
                        "leaf": "clip",
                        "type": "Leaf"
                    },
                    {
                        "data": "2:10487:-1",
                        "leaf": "clip",
                        "type": "Leaf"
                    }
                ],
                "type": "Normal"
            },
            {
                "data": "0:10487:-1",
                "leaf": "clip",
                "type": "Leaf"
            }
        ],
        "type": "Normal"
    },
    {
        "children": [
            {
                "data": "2:6293:-1",
                "leaf": "clip",
                "type": "Leaf"
            },
            {
                "data": "1:6293:-1",
                "leaf": "clip",
                "type": "Leaf"
            }
        ],
        "type": "Normal"
    },
    {
        "children": [
            {
                "data": "2:4936:-1",
                "leaf": "clip",
                "type": "Leaf"
            },
            {
                "data": "1:4936:-1",
                "leaf": "clip",
                "type": "Leaf"
            }
        ],
        "type": "Normal"
    },
    {
        "children": [
            {
                "data": "0:12155:-1",
                "leaf": "clip",
                "type": "Leaf"
            },
            {
                "children": [
                    {
                        "data": "1:12155:-1",
                        "leaf": "clip",
                        "type": "Leaf"
                    },
                    {
                        "data": "2:12155:-1",
                        "leaf": "clip",
                        "type": "Leaf"
                    }
                ],
                "type": "Normal"
            }
        ],
        "type": "Normal"
    },
    {
        "children": [
            {
                "children": [
                    {
                        "data": "2:9309:-1",
                        "leaf": "clip",
                        "type": "Leaf"
                    },
                    {
                        "data": "1:9309:-1",
                        "leaf": "clip",
                        "type": "Leaf"
                    }
                ],
                "type": "Normal"
            },
            {
                "data": "0:9309:-1",
                "leaf": "clip",
                "type": "Leaf"
            }
        ],
        "type": "Normal"
    },
    {
        "children": [
            {
                "children": [
                    {
                        "data": "2:12957:-1",
                        "leaf": "clip",
                        "type": "Leaf"
                    },
                    {
                        "data": "1:12957:-1",
                        "leaf": "clip",
                        "type": "Leaf"
                    }
                ],
                "type": "Normal"
            },
            {
                "data": "0:12957:-1",
                "leaf": "clip",
                "type": "Leaf"
            }
        ],
        "type": "Normal"
    },
    {
        "children": [
            {
                "children": [
                    {
                        "data": "2:8012:-1",
                        "leaf": "clip",
                        "type": "Leaf"
                    },
                    {
                        "data": "1:8012:-1",
                        "leaf": "clip",
                        "type": "Leaf"
                    }
                ],
                "type": "Normal"
            },
            {
                "data": "0:8012:-1",
                "leaf": "clip",
                "type": "Leaf"
            }
        ],
        "type": "Normal"
    },
    {
        "children": [
            {
                "children": [
                    {
                        "data": "1:10999:-1",
                        "leaf": "clip",
                        "type": "Leaf"
                    },
                    {
                        "data": "2:10999:-1",
                        "leaf": "clip",
                        "type": "Leaf"
                    }
                ],
                "type": "Normal"
            },
            {
                "data": "0:10999:-1",
                "leaf": "clip",
                "type": "Leaf"
            }
        ],
        "type": "Normal"
    },
    {
        "children": [
            {
                "children": [
                    {
                        "data": "1:13995:-1",
                        "leaf": "clip",
                        "type": "Leaf"
                    },
                    {
                        "data": "2:13995:-1",
                        "leaf": "clip",
                        "type": "Leaf"
                    }
                ],
                "type": "Normal"
            },
            {
                "data": "0:13995:-1",
                "leaf": "clip",
                "type": "Leaf"
            }
        ],
        "type": "Normal"
    },
    {
        "children": [
            {
                "data": "1:3396:-1",
                "leaf": "clip",
                "type": "Leaf"
            },
            {
                "data": "2:3396:-1",
                "leaf": "clip",
                "type": "Leaf"
            }
        ],
        "type": "Normal"
    },
    {
        "children": [
            {
                "children": [
                    {
                        "data": "2:12711:-1",
                        "leaf": "clip",
                        "type": "Leaf"
                    },
                    {
                        "data": "1:12711:-1",
                        "leaf": "clip",
                        "type": "Leaf"
                    }
                ],
                "type": "Normal"
            },
            {
                "data": "0:12711:-1",
                "leaf": "clip",
                "type": "Leaf"
            }
        ],
        "type": "Normal"
    },
    {
        "children": [
            {
                "data": "0:7640:-1",
                "leaf": "clip",
                "type": "Leaf"
            },
            {
                "children": [
                    {
                        "data": "1:7640:-1",
                        "leaf": "clip",
                        "type": "Leaf"
                    },
                    {
                        "data": "2:7640:-1",
                        "leaf": "clip",
                        "type": "Leaf"
                    }
                ],
                "type": "Normal"
            }
        ],
        "type": "Normal"
    },
    {
        "children": [
            {
                "children": [
                    {
                        "data": "1:13953:-1",
                        "leaf": "clip",
                        "type": "Leaf"
                    },
                    {
                        "data": "2:13953:-1",
                        "leaf": "clip",
                        "type": "Leaf"
                    }
                ],
                "type": "Normal"
            },
            {
                "data": "0:13953:-1",
                "leaf": "clip",
                "type": "Leaf"
            }
        ],
        "type": "Normal"
    },
    {
        "children": [
            {
                "children": [
                    {
                        "data": "2:7364:-1",
                        "leaf": "clip",
                        "type": "Leaf"
                    },
                    {
                        "data": "1:7364:-1",
                        "leaf": "clip",
                        "type": "Leaf"
                    }
                ],
                "type": "Normal"
            },
            {
                "data": "0:7364:-1",
                "leaf": "clip",
                "type": "Leaf"
            }
        ],
        "type": "Normal"
    },
    {
        "children": [
            {
                "data": "0:13838:-1",
                "leaf": "clip",
                "type": "Leaf"
            },
            {
                "children": [
                    {
                        "data": "1:13838:-1",
                        "leaf": "clip",
                        "type": "Leaf"
                    },
                    {
                        "data": "2:13838:-1",
                        "leaf": "clip",
                        "type": "Leaf"
                    }
                ],
                "type": "Normal"
            }
        ],
        "type": "Normal"
    },
    {
        "children": [
            {
                "data": "2:4624:-1",
                "leaf": "clip",
                "type": "Leaf"
            },
            {
                "data": "1:4624:-1",
                "leaf": "clip",
                "type": "Leaf"
            }
        ],
        "type": "Normal"
    },
    {
        "children": [
            {
                "children": [
                    {
                        "data": "2:9842:-1",
                        "leaf": "clip",
                        "type": "Leaf"
                    },
                    {
                        "data": "1:9842:-1",
                        "leaf": "clip",
                        "type": "Leaf"
                    }
                ],
                "type": "Normal"
            },
            {
                "data": "0:9842:-1",
                "leaf": "clip",
                "type": "Leaf"
            }
        ],
        "type": "Normal"
    },
    {
        "children": [
            {
                "children": [
                    {
                        "data": "1:9582:-1",
                        "leaf": "clip",
                        "type": "Leaf"
                    },
                    {
                        "data": "2:9582:-1",
                        "leaf": "clip",
                        "type": "Leaf"
                    }
                ],
                "type": "Normal"
            },
            {
                "data": "0:9582:-1",
                "leaf": "clip",
                "type": "Leaf"
            }
        ],
        "type": "Normal"
    },
    {
        "children": [
            {
                "data": "0:13822:-1",
                "leaf": "clip",
                "type": "Leaf"
            },
            {
                "children": [
                    {
                        "data": "2:13822:-1",
                        "leaf": "clip",
                        "type": "Leaf"
                    },
                    {
                        "data": "1:13822:-1",
                        "leaf": "clip",
                        "type": "Leaf"
                    }
                ],
                "type": "Normal"
            }
        ],
        "type": "Normal"
    },
    {
        "children": [
            {
                "children": [
                    {
                        "data": "2:12782:-1",
                        "leaf": "clip",
                        "type": "Leaf"
                    },
                    {
                        "data": "1:12782:-1",
                        "leaf": "clip",
                        "type": "Leaf"
                    }
                ],
                "type": "Normal"
            },
            {
                "data": "0:12782:-1",
                "leaf": "clip",
                "type": "Leaf"
            }
        ],
        "type": "Normal"
    },
    {
        "children": [
            {
                "children": [
                    {
                        "data": "2:9462:-1",
                        "leaf": "clip",
                        "type": "Leaf"
                    },
                    {
                        "data": "1:9462:-1",
                        "leaf": "clip",
                        "type": "Leaf"
                    }
                ],
                "type": "Normal"
            },
            {
                "data": "0:9462:-1",
                "leaf": "clip",
                "type": "Leaf"
            }
        ],
        "type": "Normal"
    },
    {
        "children": [
            {
                "children": [
                    {
                        "data": "1:13784:-1",
                        "leaf": "clip",
                        "type": "Leaf"
                    },
                    {
                        "data": "2:13784:-1",
                        "leaf": "clip",
                        "type": "Leaf"
                    }
                ],
                "type": "Normal"
            },
            {
                "data": "0:13784:-1",
                "leaf": "clip",
                "type": "Leaf"
            }
        ],
        "type": "Normal"
    },
    {
        "children": [
            {
                "data": "0:3022:-1",
                "leaf": "clip",
                "type": "Leaf"
            },
            {
                "children": [
                    {
                        "data": "1:3022:-1",
                        "leaf": "clip",
                        "type": "Leaf"
                    },
                    {
                        "data": "2:3022:-1",
                        "leaf": "clip",
                        "type": "Leaf"
                    }
                ],
                "type": "AVSplit"
            }
        ],
        "type": "Normal"
    },
    {
        "children": [
            {
                "children": [
                    {
                        "data": "1:8683:-1",
                        "leaf": "clip",
                        "type": "Leaf"
                    },
                    {
                        "data": "2:8683:-1",
                        "leaf": "clip",
                        "type": "Leaf"
                    }
                ],
                "type": "Normal"
            },
            {
                "data": "0:8683:-1",
                "leaf": "clip",
                "type": "Leaf"
            }
        ],
        "type": "Normal"
    },
    {
        "children": [
            {
                "children": [
                    {
                        "data": "2:11563:-1",
                        "leaf": "clip",
                        "type": "Leaf"
                    },
                    {
                        "data": "1:11563:-1",
                        "leaf": "clip",
                        "type": "Leaf"
                    }
                ],
                "type": "Normal"
            },
            {
                "data": "0:11563:-1",
                "leaf": "clip",
                "type": "Leaf"
            }
        ],
        "type": "Normal"
    },
    {
        "children": [
            {
                "children": [
                    {
                        "data": "1:13167:-1",
                        "leaf": "clip",
                        "type": "Leaf"
                    },
                    {
                        "data": "2:13167:-1",
                        "leaf": "clip",
                        "type": "Leaf"
                    }
                ],
                "type": "Normal"
            },
            {
                "data": "0:13167:-1",
                "leaf": "clip",
                "type": "Leaf"
            }
        ],
        "type": "Normal"
    },
    {
        "children": [
            {
                "data": "2:5206:-1",
                "leaf": "clip",
                "type": "Leaf"
            },
            {
                "data": "1:5206:-1",
                "leaf": "clip",
                "type": "Leaf"
            }
        ],
        "type": "Normal"
    },
    {
        "children": [
            {
                "data": "2:6986:-1",
                "leaf": "clip",
                "type": "Leaf"
            },
            {
                "data": "1:6986:-1",
                "leaf": "clip",
                "type": "Leaf"
            }
        ],
        "type": "Normal"
    },
    {
        "children": [
            {
                "children": [
                    {
                        "data": "2:12985:-1",
                        "leaf": "clip",
                        "type": "Leaf"
                    },
                    {
                        "data": "1:12985:-1",
                        "leaf": "clip",
                        "type": "Leaf"
                    }
                ],
                "type": "Normal"
            },
            {
                "data": "0:12985:-1",
                "leaf": "clip",
                "type": "Leaf"
            }
        ],
        "type": "Normal"
    },
    {
        "children": [
            {
                "children": [
                    {
                        "data": "1:10729:-1",
                        "leaf": "clip",
                        "type": "Leaf"
                    },
                    {
                        "data": "2:10729:-1",
                        "leaf": "clip",
                        "type": "Leaf"
                    }
                ],
                "type": "Normal"
            },
            {
                "data": "0:10729:-1",
                "leaf": "clip",
                "type": "Leaf"
            }
        ],
        "type": "Normal"
    },
    {
        "children": [
            {
                "children": [
                    {
                        "data": "1:14279:-1",
                        "leaf": "clip",
                        "type": "Leaf"
                    },
                    {
                        "data": "2:14279:-1",
                        "leaf": "clip",
                        "type": "Leaf"
                    }
                ],
                "type": "Normal"
            },
            {
                "data": "0:14279:-1",
                "leaf": "clip",
                "type": "Leaf"
            }
        ],
        "type": "Normal"
    },
    {
        "children": [
            {
                "data": "0:8407:-1",
                "leaf": "clip",
                "type": "Leaf"
            },
            {
                "children": [
                    {
                        "data": "1:8407:-1",
                        "leaf": "clip",
                        "type": "Leaf"
                    },
                    {
                        "data": "2:8407:-1",
                        "leaf": "clip",
                        "type": "Leaf"
                    }
                ],
                "type": "Normal"
            }
        ],
        "type": "Normal"
    },
    {
        "children": [
            {
                "children": [
                    {
                        "data": "2:10055:-1",
                        "leaf": "clip",
                        "type": "Leaf"
                    },
                    {
                        "data": "1:10055:-1",
                        "leaf": "clip",
                        "type": "Leaf"
                    }
                ],
                "type": "Normal"
            },
            {
                "data": "0:10055:-1",
                "leaf": "clip",
                "type": "Leaf"
            }
        ],
        "type": "Normal"
    },
    {
        "children": [
            {
                "data": "2:4979:-1",
                "leaf": "clip",
                "type": "Leaf"
            },
            {
                "data": "1:4979:-1",
                "leaf": "clip",
                "type": "Leaf"
            }
        ],
        "type": "Normal"
    },
    {
        "children": [
            {
                "data": "2:5048:-1",
                "leaf": "clip",
                "type": "Leaf"
            },
            {
                "data": "1:5048:-1",
                "leaf": "clip",
                "type": "Leaf"
            }
        ],
        "type": "Normal"
    },
    {
        "children": [
            {
                "children": [
                    {
                        "data": "1:12464:-1",
                        "leaf": "clip",
                        "type": "Leaf"
                    },
                    {
                        "data": "2:12464:-1",
                        "leaf": "clip",
                        "type": "Leaf"
                    }
                ],
                "type": "Normal"
            },
            {
                "data": "0:12464:-1",
                "leaf": "clip",
                "type": "Leaf"
            }
        ],
        "type": "Normal"
    },
    {
        "children": [
            {
                "children": [
                    {
                        "data": "1:8828:-1",
                        "leaf": "clip",
                        "type": "Leaf"
                    },
                    {
                        "data": "2:8828:-1",
                        "leaf": "clip",
                        "type": "Leaf"
                    }
                ],
                "type": "Normal"
            },
            {
                "data": "0:8828:-1",
                "leaf": "clip",
                "type": "Leaf"
            }
        ],
        "type": "Normal"
    },
    {
        "children": [
            {
                "data": "0:8526:-1",
                "leaf": "clip",
                "type": "Leaf"
            },
            {
                "children": [
                    {
                        "data": "2:8526:-1",
                        "leaf": "clip",
                        "type": "Leaf"
                    },
                    {
                        "data": "1:8526:-1",
                        "leaf": "clip",
                        "type": "Leaf"
                    }
                ],
                "type": "Normal"
            }
        ],
        "type": "Normal"
    },
    {
        "children": [
            {
                "children": [
                    {
                        "data": "1:10712:-1",
                        "leaf": "clip",
                        "type": "Leaf"
                    },
                    {
                        "data": "2:10712:-1",
                        "leaf": "clip",
                        "type": "Leaf"
                    }
                ],
                "type": "Normal"
            },
            {
                "data": "0:10712:-1",
                "leaf": "clip",
                "type": "Leaf"
            }
        ],
        "type": "Normal"
    },
    {
        "children": [
            {
                "children": [
                    {
                        "data": "2:10104:-1",
                        "leaf": "clip",
                        "type": "Leaf"
                    },
                    {
                        "data": "1:10104:-1",
                        "leaf": "clip",
                        "type": "Leaf"
                    }
                ],
                "type": "Normal"
            },
            {
                "data": "0:10104:-1",
                "leaf": "clip",
                "type": "Leaf"
            }
        ],
        "type": "Normal"
    },
    {
        "children": [
            {
                "children": [
                    {
                        "data": "1:11157:-1",
                        "leaf": "clip",
                        "type": "Leaf"
                    },
                    {
                        "data": "2:11157:-1",
                        "leaf": "clip",
                        "type": "Leaf"
                    }
                ],
                "type": "Normal"
            },
            {
                "data": "0:11157:-1",
                "leaf": "clip",
                "type": "Leaf"
            }
        ],
        "type": "Normal"
    },
    {
        "children": [
            {
                "children": [
                    {
                        "data": "1:14059:-1",
                        "leaf": "clip",
                        "type": "Leaf"
                    },
                    {
                        "data": "2:14059:-1",
                        "leaf": "clip",
                        "type": "Leaf"
                    }
                ],
                "type": "Normal"
            },
            {
                "data": "0:14059:-1",
                "leaf": "clip",
                "type": "Leaf"
            }
        ],
        "type": "Normal"
    },
    {
        "children": [
            {
                "data": "2:5739:-1",
                "leaf": "clip",
                "type": "Leaf"
            },
            {
                "data": "1:5739:-1",
                "leaf": "clip",
                "type": "Leaf"
            }
        ],
        "type": "Normal"
    },
    {
        "children": [
            {
                "data": "2:1307:-1",
                "leaf": "clip",
                "type": "Leaf"
            },
            {
                "data": "1:1307:-1",
                "leaf": "clip",
                "type": "Leaf"
            }
        ],
        "type": "AVSplit"
    },
    {
        "children": [
            {
                "children": [
                    {
                        "data": "1:13313:-1",
                        "leaf": "clip",
                        "type": "Leaf"
                    },
                    {
                        "data": "2:13313:-1",
                        "leaf": "clip",
                        "type": "Leaf"
                    }
                ],
                "type": "Normal"
            },
            {
                "data": "0:13313:-1",
                "leaf": "clip",
                "type": "Leaf"
            }
        ],
        "type": "Normal"
    },
    {
        "children": [
            {
                "children": [
                    {
                        "data": "1:12410:-1",
                        "leaf": "clip",
                        "type": "Leaf"
                    },
                    {
                        "data": "2:12410:-1",
                        "leaf": "clip",
                        "type": "Leaf"
                    }
                ],
                "type": "Normal"
            },
            {
                "data": "0:12410:-1",
                "leaf": "clip",
                "type": "Leaf"
            }
        ],
        "type": "Normal"
    },
    {
        "children": [
            {
                "data": "2:6039:-1",
                "leaf": "clip",
                "type": "Leaf"
            },
            {
                "data": "1:6039:-1",
                "leaf": "clip",
                "type": "Leaf"
            }
        ],
        "type": "Normal"
    },
    {
        "children": [
            {
                "children": [
                    {
                        "data": "2:8283:-1",
                        "leaf": "clip",
                        "type": "Leaf"
                    },
                    {
                        "data": "1:8283:-1",
                        "leaf": "clip",
                        "type": "Leaf"
                    }
                ],
                "type": "Normal"
            },
            {
                "data": "0:8283:-1",
                "leaf": "clip",
                "type": "Leaf"
            }
        ],
        "type": "Normal"
    },
    {
        "children": [
            {
                "children": [
                    {
                        "data": "1:10642:-1",
                        "leaf": "clip",
                        "type": "Leaf"
                    },
                    {
                        "data": "2:10642:-1",
                        "leaf": "clip",
                        "type": "Leaf"
                    }
                ],
                "type": "Normal"
            },
            {
                "data": "0:10642:-1",
                "leaf": "clip",
                "type": "Leaf"
            }
        ],
        "type": "Normal"
    },
    {
        "children": [
            {
                "children": [
                    {
                        "data": "2:8297:-1",
                        "leaf": "clip",
                        "type": "Leaf"
                    },
                    {
                        "data": "1:8297:-1",
                        "leaf": "clip",
                        "type": "Leaf"
                    }
                ],
                "type": "Normal"
            },
            {
                "data": "0:8297:-1",
                "leaf": "clip",
                "type": "Leaf"
            }
        ],
        "type": "Normal"
    },
    {
        "children": [
            {
                "data": "0:11125:-1",
                "leaf": "clip",
                "type": "Leaf"
            },
            {
                "children": [
                    {
                        "data": "1:11125:-1",
                        "leaf": "clip",
                        "type": "Leaf"
                    },
                    {
                        "data": "2:11125:-1",
                        "leaf": "clip",
                        "type": "Leaf"
                    }
                ],
                "type": "Normal"
            }
        ],
        "type": "Normal"
    },
    {
        "children": [
            {
                "children": [
                    {
                        "data": "1:14015:-1",
                        "leaf": "clip",
                        "type": "Leaf"
                    },
                    {
                        "data": "2:14015:-1",
                        "leaf": "clip",
                        "type": "Leaf"
                    }
                ],
                "type": "Normal"
            },
            {
                "data": "0:14015:-1",
                "leaf": "clip",
                "type": "Leaf"
            }
        ],
        "type": "Normal"
    },
    {
        "children": [
            {
                "data": "2:625:-1",
                "leaf": "clip",
                "type": "Leaf"
            },
            {
                "data": "1:625:-1",
                "leaf": "clip",
                "type": "Leaf"
            }
        ],
        "type": "AVSplit"
    },
    {
        "children": [
            {
                "children": [
                    {
                        "data": "1:12348:-1",
                        "leaf": "clip",
                        "type": "Leaf"
                    },
                    {
                        "data": "2:12348:-1",
                        "leaf": "clip",
                        "type": "Leaf"
                    }
                ],
                "type": "Normal"
            },
            {
                "data": "0:12348:-1",
                "leaf": "clip",
                "type": "Leaf"
            }
        ],
        "type": "Normal"
    },
    {
        "children": [
            {
                "data": "0:8523:-1",
                "leaf": "clip",
                "type": "Leaf"
            },
            {
                "children": [
                    {
                        "data": "1:8523:-1",
                        "leaf": "clip",
                        "type": "Leaf"
                    },
                    {
                        "data": "2:8523:-1",
                        "leaf": "clip",
                        "type": "Leaf"
                    }
                ],
                "type": "Normal"
            }
        ],
        "type": "Normal"
    },
    {
        "children": [
            {
                "children": [
                    {
                        "data": "2:9819:-1",
                        "leaf": "clip",
                        "type": "Leaf"
                    },
                    {
                        "data": "1:9819:-1",
                        "leaf": "clip",
                        "type": "Leaf"
                    }
                ],
                "type": "Normal"
            },
            {
                "data": "0:9819:-1",
                "leaf": "clip",
                "type": "Leaf"
            }
        ],
        "type": "Normal"
    }
]
</property>
  <property name="kdenlive:sequenceproperties.guides">[
]
</property>
  <track producer="producer0"/>
  <track producer="tractor0"/>
  <track producer="tractor1"/>
  <track producer="tractor2"/>
  <track producer="tractor3"/>
  <track producer="tractor4"/>
  <transition id="transition0">
   <property name="a_track">0</property>
   <property name="b_track">1</property>
   <property name="mlt_service">mix</property>
   <property name="kdenlive_id">mix</property>
   <property name="internal_added">237</property>
   <property name="always_active">1</property>
   <property name="accepts_blanks">1</property>
   <property name="sum">1</property>
  </transition>
  <transition id="transition1">
   <property name="a_track">0</property>
   <property name="b_track">2</property>
   <property name="mlt_service">mix</property>
   <property name="kdenlive_id">mix</property>
   <property name="internal_added">237</property>
   <property name="always_active">1</property>
   <property name="accepts_blanks">1</property>
   <property name="sum">1</property>
  </transition>
  <transition id="transition2">
   <property name="a_track">0</property>
   <property name="b_track">3</property>
   <property name="compositing">0</property>
   <property name="distort">0</property>
   <property name="rotate_center">0</property>
   <property name="mlt_service">qtblend</property>
   <property name="kdenlive_id">qtblend</property>
   <property name="internal_added">237</property>
   <property name="always_active">1</property>
  </transition>
  <transition id="transition3">
   <property name="a_track">0</property>
   <property name="b_track">4</property>
   <property name="compositing">0</property>
   <property name="distort">0</property>
   <property name="rotate_center">0</property>
   <property name="mlt_service">qtblend</property>
   <property name="kdenlive_id">qtblend</property>
   <property name="internal_added">237</property>
   <property name="always_active">1</property>
  </transition>
  <transition id="transition4">
   <property name="a_track">0</property>
   <property name="b_track">5</property>
   <property name="compositing">0</property>
   <property name="distort">0</property>
   <property name="rotate_center">0</property>
   <property name="mlt_service">qtblend</property>
   <property name="kdenlive_id">qtblend</property>
   <property name="internal_added">237</property>
   <property name="always_active">1</property>
  </transition>
  <filter id="filter211">
   <property name="window">75</property>
   <property name="max_gain">20dB</property>
   <property name="mlt_service">volume</property>
   <property name="internal_added">237</property>
   <property name="disable">1</property>
  </filter>
  <filter id="filter212">
   <property name="channel">-1</property>
   <property name="mlt_service">panner</property>
   <property name="internal_added">237</property>
   <property name="start">0.5</property>
   <property name="disable">1</property>
  </filter>
 </tractor>
 <chain id="chain18" out="00:13:27.760">
  <property name="length">20195</property>
  <property name="eof">pause</property>
  <property name="resource">Assets/Videos/raw/Loops_2_B-roll.mkv</property>
  <property name="mlt_service">avformat-novalidate</property>
  <property name="meta.media.nb_streams">2</property>
  <property name="meta.media.0.stream.type">video</property>
  <property name="meta.media.0.stream.frame_rate">60</property>
  <property name="meta.media.0.stream.sample_aspect_ratio">0</property>
  <property name="meta.media.0.codec.width">1920</property>
  <property name="meta.media.0.codec.height">1080</property>
  <property name="meta.media.0.codec.rotate">0</property>
  <property name="meta.media.0.codec.pix_fmt">yuv420p</property>
  <property name="meta.media.0.codec.sample_aspect_ratio">1</property>
  <property name="meta.media.0.codec.colorspace">709</property>
  <property name="meta.media.0.codec.color_trc">1</property>
  <property name="meta.media.0.codec.name">h264</property>
  <property name="meta.media.0.codec.long_name">H.264 / AVC / MPEG-4 AVC / MPEG-4 part 10</property>
  <property name="meta.media.0.codec.bit_rate">0</property>
  <property name="meta.attr.0.stream.DURATION.markup">00:13:27.817000000</property>
  <property name="meta.media.1.stream.type">audio</property>
  <property name="meta.media.1.codec.sample_fmt">fltp</property>
  <property name="meta.media.1.codec.sample_rate">48000</property>
  <property name="meta.media.1.codec.channels">2</property>
  <property name="meta.media.1.codec.layout">stereo</property>
  <property name="meta.media.1.codec.name">aac</property>
  <property name="meta.media.1.codec.long_name">AAC (Advanced Audio Coding)</property>
  <property name="meta.media.1.codec.bit_rate">0</property>
  <property name="meta.attr.1.stream.title.markup">simple_aac_recording0</property>
  <property name="meta.attr.1.stream.DURATION.markup">00:13:27.786000000</property>
  <property name="meta.attr.ENCODER.markup">Lavf61.7.100</property>
  <property name="seekable">1</property>
  <property name="meta.media.sample_aspect_num">1</property>
  <property name="meta.media.sample_aspect_den">1</property>
  <property name="audio_index">1</property>
  <property name="video_index">0</property>
  <property name="vstream">0</property>
  <property name="meta.media.frame_rate_num">60</property>
  <property name="meta.media.frame_rate_den">1</property>
  <property name="meta.media.colorspace">709</property>
  <property name="meta.media.color_trc">1</property>
  <property name="meta.media.has_b_frames">2</property>
  <property name="meta.media.width">1920</property>
  <property name="meta.media.height">1080</property>
  <property name="meta.media.aspect_ratio">1</property>
  <property name="meta.media.color_range">mpeg</property>
  <property name="astream">0</property>
  <property name="meta.media.top_field_first">0</property>
  <property name="meta.media.progressive">1</property>
  <property name="kdenlive:folderid">-1</property>
  <property name="kdenlive:id">11</property>
  <property name="kdenlive:control_uuid">{b03accb7-ce84-4b82-8b53-11980ae29458}</property>
  <property name="mute_on_pause">0</property>
  <property name="kdenlive:clip_type">0</property>
  <property name="kdenlive:file_size">23661009</property>
  <property name="kdenlive:file_hash">52d1847ed385dda2b9687aedcb611682</property>
 </chain>
 <chain id="chain19" out="00:02:41.840">
  <property name="length">4047</property>
  <property name="eof">pause</property>
  <property name="resource">Assets/Videos/raw/Loops_3_B-roll.mkv</property>
  <property name="mlt_service">avformat-novalidate</property>
  <property name="meta.media.nb_streams">2</property>
  <property name="meta.media.0.stream.type">video</property>
  <property name="meta.media.0.stream.frame_rate">60</property>
  <property name="meta.media.0.stream.sample_aspect_ratio">0</property>
  <property name="meta.media.0.codec.width">1920</property>
  <property name="meta.media.0.codec.height">1080</property>
  <property name="meta.media.0.codec.rotate">0</property>
  <property name="meta.media.0.codec.pix_fmt">yuv420p</property>
  <property name="meta.media.0.codec.sample_aspect_ratio">1</property>
  <property name="meta.media.0.codec.colorspace">709</property>
  <property name="meta.media.0.codec.color_trc">1</property>
  <property name="meta.media.0.codec.name">h264</property>
  <property name="meta.media.0.codec.long_name">H.264 / AVC / MPEG-4 AVC / MPEG-4 part 10</property>
  <property name="meta.media.0.codec.bit_rate">0</property>
  <property name="meta.attr.0.stream.DURATION.markup">00:02:41.884000000</property>
  <property name="meta.media.1.stream.type">audio</property>
  <property name="meta.media.1.codec.sample_fmt">fltp</property>
  <property name="meta.media.1.codec.sample_rate">48000</property>
  <property name="meta.media.1.codec.channels">2</property>
  <property name="meta.media.1.codec.layout">stereo</property>
  <property name="meta.media.1.codec.name">aac</property>
  <property name="meta.media.1.codec.long_name">AAC (Advanced Audio Coding)</property>
  <property name="meta.media.1.codec.bit_rate">0</property>
  <property name="meta.attr.1.stream.title.markup">simple_aac_recording0</property>
  <property name="meta.attr.1.stream.DURATION.markup">00:02:41.834000000</property>
  <property name="meta.attr.ENCODER.markup">Lavf61.7.100</property>
  <property name="seekable">1</property>
  <property name="meta.media.sample_aspect_num">1</property>
  <property name="meta.media.sample_aspect_den">1</property>
  <property name="audio_index">1</property>
  <property name="video_index">0</property>
  <property name="vstream">0</property>
  <property name="meta.media.frame_rate_num">60</property>
  <property name="meta.media.frame_rate_den">1</property>
  <property name="meta.media.colorspace">709</property>
  <property name="meta.media.color_trc">1</property>
  <property name="meta.media.has_b_frames">2</property>
  <property name="meta.media.width">1920</property>
  <property name="meta.media.height">1080</property>
  <property name="meta.media.aspect_ratio">1</property>
  <property name="meta.media.color_range">mpeg</property>
  <property name="astream">0</property>
  <property name="meta.media.top_field_first">0</property>
  <property name="meta.media.progressive">1</property>
  <property name="kdenlive:folderid">-1</property>
  <property name="kdenlive:id">10</property>
  <property name="kdenlive:control_uuid">{c720991c-0eeb-4fcc-bcb7-21abfb616f1a}</property>
  <property name="mute_on_pause">0</property>
  <property name="kdenlive:clip_type">0</property>
  <property name="kdenlive:file_size">4343288</property>
  <property name="kdenlive:file_hash">8ddbc1fbdcb18569582514498abb5f21</property>
  <property name="kdenlive:monitorPosition">0</property>
 </chain>
 <playlist id="main_bin">
  <property name="kdenlive:folder.-1.2">Sequences</property>
  <property name="kdenlive:sequenceFolder">2</property>
  <property name="kdenlive:docproperties.activetimeline">{a98f7d63-701f-4939-b272-52f7f5bfbb05}</property>
  <property name="kdenlive:docproperties.audioChannels">2</property>
  <property name="kdenlive:docproperties.binsort">0</property>
  <property name="kdenlive:docproperties.browserurl">C:/Users/23052058/Videos/</property>
  <property name="kdenlive:docproperties.documentid">1754752414821</property>
  <property name="kdenlive:docproperties.enableTimelineZone">0</property>
  <property name="kdenlive:docproperties.enableexternalproxy">0</property>
  <property name="kdenlive:docproperties.enableproxy">0</property>
  <property name="kdenlive:docproperties.externalproxyparams"/>
  <property name="kdenlive:docproperties.generateimageproxy">0</property>
  <property name="kdenlive:docproperties.generateproxy">0</property>
  <property name="kdenlive:docproperties.guidesCategories">[
    {
        "color": "#9b59b6",
        "comment": "Category 1",
        "index": 0
    },
    {
        "color": "#3daee9",
        "comment": "Category 2",
        "index": 1
    },
    {
        "color": "#1abc9c",
        "comment": "Category 3",
        "index": 2
    },
    {
        "color": "#1cdc9a",
        "comment": "Category 4",
        "index": 3
    },
    {
        "color": "#c9ce3b",
        "comment": "Category 5",
        "index": 4
    },
    {
        "color": "#fdbc4b",
        "comment": "Category 6",
        "index": 5
    },
    {
        "color": "#f39c1f",
        "comment": "Category 7",
        "index": 6
    },
    {
        "color": "#f47750",
        "comment": "Category 8",
        "index": 7
    },
    {
        "color": "#da4453",
        "comment": "Category 9",
        "index": 8
    }
]
</property>
  <property name="kdenlive:docproperties.kdenliveversion">25.04.3</property>
  <property name="kdenlive:docproperties.opensequences">{a98f7d63-701f-4939-b272-52f7f5bfbb05}</property>
  <property name="kdenlive:docproperties.previewextension"/>
  <property name="kdenlive:docproperties.previewparameters"/>
  <property name="kdenlive:docproperties.profile">atsc_1080p_25</property>
  <property name="kdenlive:docproperties.proxyextension"/>
  <property name="kdenlive:docproperties.proxyimageminsize">2000</property>
  <property name="kdenlive:docproperties.proxyimagesize">800</property>
  <property name="kdenlive:docproperties.proxyminsize">1000</property>
  <property name="kdenlive:docproperties.proxyparams"/>
  <property name="kdenlive:docproperties.proxyresize">640</property>
  <property name="kdenlive:docproperties.seekOffset">30000</property>
  <property name="kdenlive:docproperties.sessionid">{c8efe247-5bbd-4a50-ad6b-c73928315a63}</property>
  <property name="kdenlive:docproperties.uuid">{a98f7d63-701f-4939-b272-52f7f5bfbb05}</property>
  <property name="kdenlive:docproperties.version">1.1</property>
  <property name="kdenlive:expandedFolders"/>
  <property name="kdenlive:binZoom">4</property>
  <property name="kdenlive:extraBins">project_bin:-1:0</property>
  <property name="kdenlive:documentnotes"/>
  <property name="kdenlive:documentnotesversion">2</property>
  <property name="xml_retain">1</property>
  <entry in="00:00:00.000" out="00:09:55.920" producer="chain4"/>
  <entry in="00:00:00.000" out="00:10:56.520" producer="chain5"/>
  <entry in="00:00:00.000" out="00:09:51.480" producer="chain13"/>
  <entry in="00:00:00.000" out="00:18:50.320" producer="chain14"/>
  <entry in="00:00:00.000" out="00:11:47.520" producer="chain15"/>
  <entry in="00:00:00.000" out="00:19:10.880" producer="chain16"/>
  <entry in="00:00:00.000" out="00:32:49.400" producer="tractor5"/>
  <entry in="00:00:00.000" out="00:13:27.760" producer="chain18"/>
  <entry in="00:00:00.000" out="00:02:41.840" producer="chain19"/>
 </playlist>
 <tractor id="tractor6" in="00:00:00.000" out="00:26:45.720">
  <property name="kdenlive:projectTractor">1</property>
  <track in="00:00:00.000" out="00:26:45.720" producer="tractor5"/>
 </tractor>
</mlt>
